<svg id="Layer_1" data-name="Layer 1" xmlns="http://www.w3.org/2000/svg" viewBox="0 0 135.91 149.6"><defs><style>.cls-1{fill:#fff;}.cls-2{fill:#fff5b0;}.cls-3{fill:#d21c5c;}.cls-4{fill:#fcb514;}.cls-5{fill:#f1e91d;}</style></defs><title>A</title><path class="cls-1" d="M139.59-411.18c-3.77,0-7.43-1.72-15.64-7.37l-.12-.09c-5.9-4.19-7.12-5.11-7.76-5.69-5-4.27-7.48-9-7.48-14.1,0-5.48,1.26-12.25,3.85-20.67l0-.14,4.21-13,.15-.45c.61-2.41,5.06-20.84,13.23-54.79v0a83.47,83.47,0,0,1,7-18.8,9.8,9.8,0,0,1,3.83-4c.87-.5,2.1-1.17,3.63-2l.13-.07a41.46,41.46,0,0,1,12.53-4.06l.68-.09c2.22-.2,4.54-.46,6.91-.76,1.58-.35,4.35-1,8.25-1.91,6-1.5,7.14-1.65,8.47-1.65,2.86,0,6,1,10.71,3.34,4.94,2.47,7,3.88,8.56,5.79a9.8,9.8,0,0,1,1.47,2.54c1.62,4.11,4,9.68,7.21,16.56,2.61,5,5.67,11.73,9.12,20,3.88,9.1,6.85,15.77,8.83,19.83,3.06,6.12,6.2,12.28,9.32,18.3l0,.08c7.43,14.68,7.73,16.33,7.73,19,0,5.37-3,9.93-8.15,12.52a9.81,9.81,0,0,1-1.5.6c-2.62.81-6.6,2.25-11.84,4.3-3.38,1.9-8,4.24-14,7.14a9.74,9.74,0,0,1-.93.39c-.23.1-1.21.54-4.1,2l-.14.07c-3.72,1.86-5.94,2.74-8.49,2.74-6.85,0-12.28-5.28-16.69-10.45q-1-1.14-1.82-2.18a14.61,14.61,0,0,1-3.47,8.37A44.92,44.92,0,0,1,165.1-423a21.51,21.51,0,0,1-2.41,2.48,9.79,9.79,0,0,1-1.89,1.32C148.35-412.54,143.32-411.18,139.59-411.18Zm-4.48-23.47c2.62,1.8,4.31,2.86,5.36,3.47a83.8,83.8,0,0,0,9.56-4.46,9.8,9.8,0,0,1,2.6-2.55c2.46-1.64,4-2.77,4.85-3.49,0-.36,0-.81,0-1.36,0-5.87-1.06-16.1-3.15-30.4a9.79,9.79,0,0,1,6.37-10.63,87.93,87.93,0,0,1,11.58-3.45,9.8,9.8,0,0,1,11.4,6.83,173.28,173.28,0,0,1,5.84,26.81,49.93,49.93,0,0,0,4,5.17c.93,1.09,1.69,1.9,2.29,2.5,2.67-1.37,4.08-2,5-2.41,5.72-2.76,10.1-5,13-6.68a9.81,9.81,0,0,1,1.29-.62c2.79-1.09,5.26-2,7.42-2.82-.82-1.7-1.9-3.88-3.32-6.68-3.17-6.11-6.35-12.35-9.45-18.56l0-.09c-2.15-4.41-5.18-11.22-9.27-20.8l0-.08c-3.29-7.89-6.16-14.19-8.53-18.73l-.22-.45C189.08-530,186.87-535,185.19-539c-.46-.24-1-.54-1.75-.9-1-.5-1.74-.83-2.24-1-.75.17-1.86.44-3.49.85l-.12,0c-4.46,1.06-7.44,1.74-9.1,2.1q-.39.08-.79.14c-2.63.34-5.22.63-7.71.86a21.79,21.79,0,0,0-6.26,2l-.56.31a65.92,65.92,0,0,0-4.07,11.82c-12.87,53.54-13.25,54.93-13.41,55.52q-.06.23-.13.45l-.24.73-4.19,12.88a61.8,61.8,0,0,0-2.92,13.51c.18.18.42.4.73.67l0,0C129.34-438.78,130.61-437.84,135.11-434.65Z" transform="translate(-108.58 560.78)"/><path class="cls-2" d="M139.59-419.34c-1.24,0-3.43-.72-11-5.93-6-4.24-6.78-4.87-7-5.09-3.24-2.73-4.81-5.37-4.81-8.05,0-4.59,1.18-10.74,3.49-18.27l4.2-12.93.24-.74c.4-1.5,4.76-19.55,13.32-55.17a75.32,75.32,0,0,1,6.3-17,1.63,1.63,0,0,1,.64-.66c.82-.47,2-1.11,3.46-1.9a33.35,33.35,0,0,1,10.09-3.25h.11c2.43-.22,5-.5,7.57-.84,1.59-.34,4.47-1,8.8-2,5.65-1.41,6.2-1.41,6.53-1.41.9,0,2.61.26,7.06,2.48s5.37,3,5.85,3.6a1.63,1.63,0,0,1,.25.42c1.69,4.29,4.21,10.06,7.47,17.16,2.52,4.82,5.53,11.41,8.94,19.59,4,9.26,7,16.09,9,20.27,3.08,6.16,6.24,12.37,9.39,18.44,6.85,13.54,6.85,14.59,6.85,15.29,0,1.55-.63,3.72-3.64,5.22l-.25.1c-2.9.89-7.25,2.48-12.95,4.71-3.22,1.83-7.94,4.25-14,7.18l-.19.08a52.09,52.09,0,0,0-5.07,2.47c-3.5,1.75-4.29,1.89-4.86,1.89-2.73,0-6.06-2.41-10.48-7.59-5.56-6.51-6.43-8.85-6.54-10.14A156.31,156.31,0,0,0,173.18-476c-2.08.51-4.53,1.26-7.32,2.23,2,14.17,3.08,24.5,3.08,30.73,0,4.19-.5,6.59-1.62,7.77-1.34,1.57-4,3.65-8,6.35a10,10,0,0,1-2.06,2.33,1.64,1.64,0,0,1-.32.22C145.13-420.07,141.38-419.34,139.59-419.34Zm-15.81-13.42c.22.19,1.39,1.07,6.66,4.81,7.2,4.95,8.88,5.32,9.16,5.34,1.26,0,5-.87,15.64-6.56a5.18,5.18,0,0,0,1.31-1.49,1.63,1.63,0,0,1,.61-.75c4-2.64,6.55-4.67,7.7-6l.09-.1s.72-.86.72-5.52c0-6.26-1.09-16.89-3.23-31.58a1.63,1.63,0,0,1,1.06-1.77A81.24,81.24,0,0,1,174-479.54a1.63,1.63,0,0,1,1.9,1.14,162.36,162.36,0,0,1,5.7,26.62v.07c0,.28.4,2,5.77,8.3,4.8,5.63,7.1,6.4,7.92,6.44a22.2,22.2,0,0,0,3.45-1.54,53.87,53.87,0,0,1,5.41-2.62c6-2.91,10.7-5.3,13.84-7.09l.21-.1c5.74-2.25,10.16-3.86,13.15-4.79,1.47-.77,1.71-1.56,1.72-2.18s-1-3-6.49-13.87c-3.15-6.07-6.32-12.3-9.41-18.48-2.07-4.25-5.13-11.12-9.11-20.45-3.39-8.13-6.36-14.64-8.84-19.38l0-.07c-3.22-7-5.72-12.73-7.44-17a29.93,29.93,0,0,0-4.64-2.62c-3.78-1.89-5.15-2.13-5.57-2.14-.21,0-1.2.17-5.79,1.32-4.43,1-7.35,1.72-8.95,2.06l-.13,0c-2.64.34-5.23.63-7.7.86a30,30,0,0,0-9,2.91c-1.2.65-2.19,1.19-2.95,1.61a72.35,72.35,0,0,0-5.8,15.8c-8.77,36.45-13,54-13.36,55.29l0,.08-.25.78-4.19,12.9c-2.21,7.19-3.34,13-3.34,17.29,0,1.65,1.24,3.53,3.69,5.59Z" transform="translate(-108.58 560.78)"/><path class="cls-3" d="M234.7-455.36q0,2.4-2.74,3.76-4.45,1.37-13.17,4.79-4.79,2.74-14,7.18a56.89,56.89,0,0,0-5.3,2.57,16.49,16.49,0,0,1-4.11,1.71q-3.25,0-9.24-7T180-451.6a160,160,0,0,0-5.65-26.34A79.33,79.33,0,0,0,164-474.86q3.25,22.24,3.25,31.82,0,5.48-1.2,6.67-1.88,2.23-8,6.33a7.07,7.07,0,0,1-1.88,2.22Q143.35-421,139.59-421q-1.88,0-10.09-5.65-6.5-4.62-6.84-5-4.28-3.59-4.28-6.84,0-6.67,3.42-17.79l4.45-13.69q.51-1.88,13.35-55.25a73.33,73.33,0,0,1,6.16-16.59q1.19-.68,3.42-1.88a31.56,31.56,0,0,1,9.58-3.08q3.76-.34,7.7-.86,2.39-.51,8.9-2.05A56.79,56.79,0,0,1,181.5-551q1.71,0,6.33,2.31t5.3,3.16q2.57,6.5,7.53,17.28,3.76,7.18,8.9,19.5,6,14,9.07,20.36,4.62,9.24,9.41,18.47Q234.7-456.73,234.7-455.36Z" transform="translate(-108.58 560.78)"/><path class="cls-1" d="M215.88-467.68,180.59-545q-4.79,2.23-16.1,4t-16.27,4.36a126.42,126.42,0,0,0-4.28,15.9q-2.23,12-3.94,18.64-1,4.62-8.95,35.61-6.74,25-6.74,27.18a2.57,2.57,0,0,0,.68,1.9h2.06q3.77,0,14.4-5.3a119.48,119.48,0,0,0,12-6.84q0-2.39-.86-12.66v-19.16q0-2.39,10.43-7,9.41-4.27,11.46-4.28,3.59,0,6.84,13.51,2.39,11.29,4.62,22.58a154.79,154.79,0,0,1,14.88-5A63.77,63.77,0,0,0,215.88-467.68Z" transform="translate(-108.58 560.78)"/><path class="cls-4" d="M159.6-437.52a24.41,24.41,0,0,1-2.91-2.6q-1.71-1.73-2.39-1.73t-9.58,4.5A69.44,69.44,0,0,1,132.06-433q7.18,6.06,7.87,6.06,1,0,8.55-3.81Q156.86-434.92,159.6-437.52Z" transform="translate(-108.58 560.78)"/><path class="cls-4" d="M224.95-456.21q-4.28-5.81-4.62-5.82-.86,0-6.5,2.57-7.18,3.08-9.24,3.93-4.28.86-11.63,2.74-1.71.69-3.42,1.45a3.85,3.85,0,0,0-2.22,2.31q6.67,6.67,8.55,6.67.68,0,11.63-5.3Q221-454.33,224.95-456.21Z" transform="translate(-108.58 560.78)"/><path class="cls-5" d="M213.57-472.74l-.06-.12-2.61-5.72-.28-.61-2.39-5.23-.5-1.1-2.16-4.74-.72-1.59-1.94-4.25-.95-2.08L200.24-502l-1.17-2.57-1.5-3.28-1.39-3.05-1.27-2.79-1.62-3.54-1-2.3-1.84-4-.83-1.81-2.06-4.52-.6-1.32-2.29-5-.38-.83-1.87-4.1q-1,.36-2.09.71l-.5.15a98.34,98.34,0,0,1-12,2.54q-11.31,1.8-16.27,4.36a126.43,126.43,0,0,0-4.28,15.9q-2.23,12-3.94,18.64-.68,3.08-4.44,17.91l-.23.91q-1.58,6.25-3.69,14.48l-.56,2.2,0,.1q-2.12,7.84-3.57,13.43-.49,1.88-.9,3.5-1.61,6.34-2.08,8.84a12,12,0,0,0,1.32-.23,24.69,24.69,0,0,0,2.6-.75,67.73,67.73,0,0,0,6.48-2.69q1.55-.72,3.29-1.59l.7-.36q3.76-2,6.48-3.51,3.07-1.75,4.82-3c0-.72-.06-2-.17-3.76q-.14-2.15-.39-5.32c-.08-1.05-.18-2.2-.28-3.42v-19.32s0-.05,0-.08a3.17,3.17,0,0,1,1.31-1.9,19.06,19.06,0,0,1,2.85-1.94,67.84,67.84,0,0,1,6.27-3.1l1.53-.69q1.6-.71,3-1.29a39.49,39.49,0,0,1,6.13-2.19,4.32,4.32,0,0,1,.84-.11,2.36,2.36,0,0,1,1.47.58,8.26,8.26,0,0,1,2,2.69l.2,0a3.71,3.71,0,0,1,2.08,1.62,14.86,14.86,0,0,1,1.55,2.82,37.55,37.55,0,0,1,1.31,3.55q.44,1.38.88,3,.32,1.18.63,2.49c.15.73.3,1.46.46,2.19l.55,2.65q.57,2.72,1.13,5.43l.41,2q.62,3,1.23,6.05l0,0,1.67-.6q3.1-1.07,7.71-2.48l.89-.27,2.15-.64q3.38-1,6.27-2.05l.19-.07a51.08,51.08,0,0,0,8.59-4Z" transform="translate(-108.58 560.78)"/><path class="cls-4" d="M138.6-480l41.68-60.41-.5.15-41,59.35Z" transform="translate(-108.58 560.78)"/><path class="cls-4" d="M134.34-463.31l50.28-72.87-.38-.83-49.33,71.5Z" transform="translate(-108.58 560.78)"/><path class="cls-4" d="M156.76-485.28l30.75-44.57-.6-1.32-33,47.83A19.06,19.06,0,0,1,156.76-485.28Z" transform="translate(-108.58 560.78)"/><path class="cls-4" d="M129.85-446.28l22.74-33v-2.13s0-.05,0-.08l-21.85,31.66Q130.26-447.91,129.85-446.28Z" transform="translate(-108.58 560.78)"/><path class="cls-4" d="M167.51-490.35l22.89-33.16-.83-1.81-25,36.26Q166.15-489.78,167.51-490.35Z" transform="translate(-108.58 560.78)"/><path class="cls-4" d="M131.68-438.42l20.9-30.3v-3l-23.5,34.06A24.69,24.69,0,0,0,131.68-438.42Z" transform="translate(-108.58 560.78)"/><path class="cls-4" d="M174.48-492.65a2.36,2.36,0,0,1,1.47.58l17.33-25.11-1-2.3-18.59,26.94A4.32,4.32,0,0,1,174.48-492.65Z" transform="translate(-108.58 560.78)"/><path class="cls-4" d="M141.45-442.7l.7-.36,10.74-15.56c-.08-1.05-.18-2.2-.28-3.42l-14.44,20.93Q139.71-441.84,141.45-442.7Z" transform="translate(-108.58 560.78)"/><path class="cls-4" d="M180.22-487.73l16-23.12-1.27-2.79-16.77,24.3A3.71,3.71,0,0,1,180.22-487.73Z" transform="translate(-108.58 560.78)"/><path class="cls-4" d="M153.44-449.54c0-.72-.06-2-.17-3.76l-4.64,6.73Q151.7-448.32,153.44-449.54Z" transform="translate(-108.58 560.78)"/><path class="cls-4" d="M183.08-481.36l16-23.16-1.5-3.28-15.8,22.89A37.55,37.55,0,0,1,183.08-481.36Z" transform="translate(-108.58 560.78)"/><path class="cls-4" d="M184.59-475.87c.15.73.3,1.46.46,2.19L202-498.19,200.24-502,184-478.36Q184.28-477.18,184.59-475.87Z" transform="translate(-108.58 560.78)"/><path class="cls-4" d="M186.73-465.61l18.12-26.25-1.94-4.25L185.6-471Q186.17-468.32,186.73-465.61Z" transform="translate(-108.58 560.78)"/><path class="cls-4" d="M188.37-457.51l0,0,19.32-28-2.16-4.74-18.43,26.7Q187.76-460.54,188.37-457.51Z" transform="translate(-108.58 560.78)"/><path class="cls-4" d="M197.79-460.61l12.83-18.59-2.39-5.23-18.15,26.3Q193.18-459.2,197.79-460.61Z" transform="translate(-108.58 560.78)"/><path class="cls-4" d="M200.83-461.52q3.38-1,6.27-2.05l6.41-9.29-2.61-5.72-12.22,17.71Z" transform="translate(-108.58 560.78)"/><path class="cls-4" d="M215.88-467.68l-2.31-5.07-6.28,9.1A51.08,51.08,0,0,0,215.88-467.68Z" transform="translate(-108.58 560.78)"/><path class="cls-3" d="M173.29-510.78q0,3.25-1.71,3.93-12.15,5.13-14.37,5.13-3.59,0-3.59-4.28a34,34,0,0,1,4.28-17.11,21.05,21.05,0,0,1,10.61-2.74Q171.06-523.27,173.29-510.78Z" transform="translate(-108.58 560.78)"/><path class="cls-1" d="M165.59-511.47q-.51-1-1.88-3.16t-1.88-3.16a51.94,51.94,0,0,0-1,8Q162.34-510.27,165.59-511.47Z" transform="translate(-108.58 560.78)"/></svg>