<svg id="Layer_1" data-name="Layer 1" xmlns="http://www.w3.org/2000/svg" viewBox="0 0 110.42 151.65"><defs><style>.cls-1{fill:#fff;}.cls-2{fill:#fff5b0;}.cls-3{fill:#d21c5c;}.cls-4{fill:#f1e91d;}.cls-5{fill:#fcb514;}</style></defs><title>B</title><path class="cls-1" d="M-2476.38,26.19c-11.28,0-20.44-1.32-28-4-8.55-3.08-14.9-8-18.88-14.54-1.13-1.88-2.22-4.7-4.22-13v-.05c-2-8.48-2.14-10.1-2.14-11.47,0-1.6,0-3.25,6.27-28.69v-.06c2.29-9,4.61-18.37,6.89-27.72.21-1.39.46-3.28.76-5.65a9.78,9.78,0,0,1,.29-1.44c1-3.47,2.38-8.77,4.29-16.17a28.37,28.37,0,0,1,3.16-7.69c1.08-2.47,2.73-5.78,5-10.05.17-.57.34-1.11.51-1.62l.08-.22a14,14,0,0,1,7.32-8.12c2.2-1,4.32-1.08,7.53-1.08,5.46,0,13.86,1.64,26.42,5.15h.05c2.38.68,4.82,1.36,7.24,2l.52.16a56.11,56.11,0,0,1,11.61,5.39q.3.18.59.39c1.57,1.13,3.29,2.9,7.89,9,4.31,5.57,6.77,9.57,8,13,4.11,11.83,6,20.14,6,26.16a49.5,49.5,0,0,1-6.29,23.44A39.81,39.81,0,0,1-2435-28.59a31.68,31.68,0,0,1,1.35,5.57l0,.24a89.81,89.81,0,0,1,.24,9.75c0,12.69-3.9,22.58-11.59,29.4C-2452.35,22.89-2462.91,26.19-2476.38,26.19Zm-29.91-28.4c3.76,5.76,14.09,8.81,29.91,8.81,8.54,0,14.73-1.65,18.39-4.89,3.36-3,5-7.8,5-14.74,0-5.22-.07-6.89-.1-7.35a13.83,13.83,0,0,0-2.84-6.2,9.79,9.79,0,0,1-1.5-9.12,9.8,9.8,0,0,1,6.76-6.3c2.82-.75,5.48-3.43,7.89-8a30.26,30.26,0,0,0,4-14.22c0-2.06-.64-7.37-4.93-19.71,0-.06-.73-2-5-7.48l-.09-.12c-2.27-3-3.45-4.45-4-5.06a36.7,36.7,0,0,0-6.43-2.9c-2.4-.66-4.81-1.33-7.17-2-10.41-2.91-16-3.95-19-4.28-2.26,4.23-3.86,7.42-4.75,9.49q-.18.41-.39.81c-.91,1.67-1.29,2.53-1.43,2.87q0,.19-.09.38c-1.87,7.26-3.28,12.6-4.3,16.26-.31,2.45-.58,4.42-.8,5.87q-.06.42-.17.84c-2.33,9.53-4.69,19-7,28.28-4.09,16.58-5.27,22.13-5.61,24,.17.93.58,2.91,1.53,7A76,76,0,0,0-2506.29-2.21Z" transform="translate(2529.63 125.46)"/><path class="cls-2" d="M-2476.38,18c-20.59,0-34-4.93-39.89-14.64-.5-.83-1.38-2.84-3.27-10.73-1.93-8.22-1.93-9.2-1.93-9.62,0-1.05.69-5,6-26.73,2.33-9.2,4.68-18.67,7-28.15.23-1.48.51-3.57.84-6.21a1.61,1.61,0,0,1,0-.24c1-3.57,2.45-9,4.41-16.64.12-.8.56-2.22,2.53-5.87,1-2.4,2.8-5.93,5.25-10.51.23-.79.44-1.48.66-2.13v0a5.79,5.79,0,0,1,3.07-3.49c.42-.2,1-.32,4.11-.32,4.63,0,12.55,1.59,24.22,4.85,2.42.69,4.89,1.38,7.35,2l.09,0a47.94,47.94,0,0,1,9.92,4.61l.1.06c.66.47,1.95,1.73,6.17,7.36,3.66,4.73,5.87,8.24,6.74,10.7,3.75,10.77,5.57,18.45,5.57,23.46a41.45,41.45,0,0,1-5.33,19.59c-3.48,6.53-7.8,10.87-12.87,12.91a24.58,24.58,0,0,1,3.8,9.86v0c0,.37.18,1.49.18,8.75,0,10.25-3,18.09-8.85,23.29S-2465,18-2476.38,18Zm-28-95.56c-.33,2.65-.62,4.76-.85,6.25,0,0,0,.09,0,.14-2.32,9.52-4.68,19-7,28.24-5.14,20.86-5.93,25.21-5.94,25.94,0,.24.14,1.61,1.84,8.86s2.55,9.24,2.89,9.8c5.24,8.67,17.72,13.06,37.09,13.06,21.23,0,31.55-9.09,31.55-27.79,0-6.07-.1-7.83-.16-8.34a22,22,0,0,0-4.47-10.17,1.63,1.63,0,0,1-.25-1.52,1.63,1.63,0,0,1,1.13-1.05c5.11-1.35,9.48-5.4,13-12a38.24,38.24,0,0,0,4.94-18c0-4.58-1.81-12.11-5.38-22.39-.74-2.1-2.84-5.4-6.25-9.8-4-5.3-5.14-6.42-5.44-6.66a44.67,44.67,0,0,0-9.14-4.24c-2.45-.67-4.92-1.36-7.33-2-11.21-3.14-19.06-4.73-23.33-4.73a28.05,28.05,0,0,0-2.87.08,2.57,2.57,0,0,0-1.24,1.56c-.21.64-.43,1.33-.66,2.13a1.63,1.63,0,0,1-.13.32c-2.47,4.61-4.24,8.14-5.24,10.48l-.07.13c-1.93,3.56-2.18,4.65-2.21,4.9a1.64,1.64,0,0,1,0,.21C-2501.91-86.61-2503.36-81.15-2504.37-77.54Z" transform="translate(2529.63 125.46)"/><path class="cls-3" d="M-2429-64.18a39.66,39.66,0,0,1-5.13,18.82q-5.65,10.61-14,12.83a23.48,23.48,0,0,1,4.79,10.95q.17,1.37.17,8.55,0,29.42-33.19,29.42-30.11,0-38.49-13.86-1-1.71-3.08-10.26a79.43,79.43,0,0,1-1.88-9.24q0-2.05,6-26.34,3.59-14.2,7-28.23.34-2.22.86-6.33,1.54-5.47,4.45-16.76a21,21,0,0,1,2.39-5.47q1.54-3.59,5.3-10.61c.23-.8.45-1.54.68-2.22a4.2,4.2,0,0,1,2.22-2.57,16.26,16.26,0,0,1,3.42-.17q6.67,0,23.78,4.79,3.59,1,7.36,2.05a46.09,46.09,0,0,1,9.58,4.45q1.19.86,5.82,7,5.3,6.84,6.5,10.26Q-2429-71.36-2429-64.18Z" transform="translate(2529.63 125.46)"/><path class="cls-1" d="M-2438.24-70.68a47.44,47.44,0,0,0-3.25-16.08q-3.76-10.6-9.41-13.68-11.46-6-33.19-10.09-2.23-.17-6-.17-7,15.06-11.8,39.17-1.71,8.56-6,24.63-4.62,17.28-6,23.61a37.2,37.2,0,0,0-.34,6.84q27.88,19.16,43.45,19.16a9.11,9.11,0,0,0,3.34-.51q1.28-.51,1.8-.68,6.33-.51,11.72-6.93t5.39-13.6a17.3,17.3,0,0,0-.68-4.28q-2.22-9.24-13.17-14.37a2.69,2.69,0,0,1-1.2-2.57q0-1.19,6.5-4.45,8-4.11,12.15-8.55A24.71,24.71,0,0,0-2438.24-70.68Z" transform="translate(2529.63 125.46)"/><path class="cls-4" d="M-2441.49-86.76a36.89,36.89,0,0,0-4.45-9,12.2,12.2,0,0,0-2-1.39q-11.46-6-33.19-10.09-2.23-.17-6-.17-7,15.06-11.8,39.17-1.71,8.56-6,24.63-4.62,17.28-6,23.61a29.6,29.6,0,0,0-.34,5.57q25.77,17.17,40.51,17.17a9.11,9.11,0,0,0,3.34-.51q1.28-.51,1.8-.68,6.33-.51,11.72-6.93t5.39-13.6a17.31,17.31,0,0,0-.68-4.28,18.14,18.14,0,0,0-2.9-6.36,29.44,29.44,0,0,0-7.33-4.75,2.61,2.61,0,0,1-1.19-2.38c-.57-.3-1.14-.6-1.75-.88a2.69,2.69,0,0,1-1.2-2.57q0-1.19,6.5-4.45,8-4.11,12.15-8.55a24.71,24.71,0,0,0,6.67-17.45A47.44,47.44,0,0,0-2441.49-86.76Z" transform="translate(2529.63 125.46)"/><path class="cls-5" d="M-2472.45,10.92q-2.57-2.57-9.75-4.45a61,61,0,0,1-13-4.79Q-2506-4.48-2513.67-9.61v1.37a18.76,18.76,0,0,0,.94,3.93,15.93,15.93,0,0,0,1.45,3.76Q-2507,6-2495.71,9a69.5,69.5,0,0,0,19.33,2.57A10.53,10.53,0,0,0-2472.45,10.92Z" transform="translate(2529.63 125.46)"/><path class="cls-5" d="M-2505.84-40.16l43.27-62.71-.33-.1L-2505.6-41.1Z" transform="translate(2529.63 125.46)"/><path class="cls-5" d="M-2510.12-23.44l53.47-77.48-.77-.27-52.18,75.62Q-2509.88-24.44-2510.12-23.44Z" transform="translate(2529.63 125.46)"/><path class="cls-5" d="M-2509.75-13.47-2451-98.64l-1.16-.51-58.65,85Z" transform="translate(2529.63 125.46)"/><path class="cls-5" d="M-2504.7-10.27l58.88-85.33-.12-.18a12.82,12.82,0,0,0-1.21-.9l-59,85.51Z" transform="translate(2529.63 125.46)"/><path class="cls-5" d="M-2499.54-7.23l56.91-82.47q-.51-1.21-1.06-2.29l-57.74,83.68Z" transform="translate(2529.63 125.46)"/><path class="cls-5" d="M-2494.24-4.39l54.08-78.37q-.46-1.55-1-3.16l-55.41,80.3Q-2495.4-5-2494.24-4.39Z" transform="translate(2529.63 125.46)"/><path class="cls-5" d="M-2488.76-1.81l25.47-36.92a3.82,3.82,0,0,1-.27-1.5q0-.83,3.13-2.65l22-31.81a43.8,43.8,0,0,0-.74-4.38l-52.41,76Q-2490.17-2.42-2488.76-1.81Z" transform="translate(2529.63 125.46)"/><path class="cls-5" d="M-2483,.4l23.91-34.65-.3-.15a2.61,2.61,0,0,1-1.19-2.38l-.8-.42L-2486.47-.87Q-2484.71-.17-2483,.4Z" transform="translate(2529.63 125.46)"/><path class="cls-5" d="M-2448-50.37l8.69-12.59a27.09,27.09,0,0,0,1.07-7.72s0-.06,0-.09l-17.55,25.43A50.21,50.21,0,0,0-2448-50.37Z" transform="translate(2529.63 125.46)"/><path class="cls-5" d="M-2476.91,2.05-2454-31.19a29.7,29.7,0,0,0-3.39-2.16L-2481.08,1Q-2478.92,1.66-2476.91,2.05Z" transform="translate(2529.63 125.46)"/><path class="cls-5" d="M-2470.74,2.71l.64,0,19.94-28.9a18.17,18.17,0,0,0-1.93-3.44l-.71-.62-22.5,32.6A30,30,0,0,0-2470.74,2.71Z" transform="translate(2529.63 125.46)"/><path class="cls-5" d="M-2467.4,2.2q1.28-.51,1.8-.68a13.67,13.67,0,0,0,4.34-1.1l12.74-18.46c0-.32,0-.64,0-1a17.31,17.31,0,0,0-.68-4.28q-.22-.89-.51-1.75l-19,27.6A6.6,6.6,0,0,0-2467.4,2.2Z" transform="translate(2529.63 125.46)"/><path class="cls-5" d="M-2453.89-5.42a21.52,21.52,0,0,0,5.26-11.48l-11.6,16.81A21.46,21.46,0,0,0-2453.89-5.42Z" transform="translate(2529.63 125.46)"/><path class="cls-3" d="M-2448.5-75.81q0,9.24-5.73,13.94t-14.63,4.7q-2.05,0-9.58-1.88t-8.72-2.91a3.62,3.62,0,0,1-1.2-2.91q0-2.22,3.59-15.31t5-15q1.88-2.73,4.45-2.74,8.38,0,22.24,9.24,3.08,2.05,4.45,9.07A25.22,25.22,0,0,1-2448.5-75.81Z" transform="translate(2529.63 125.46)"/><path class="cls-3" d="M-2464.92-21.92q0,5.3-5,9.67t-9.67,4.36q-3.42,0-11.2-4.79t-7.78-7.36q0-1.71,4.11-21.38a9.4,9.4,0,0,1,1.63-3.34q1.28-1.8,2.48-1.8a3.07,3.07,0,0,1,1.88.86q9.06.69,16.34,8T-2464.92-21.92Z" transform="translate(2529.63 125.46)"/><path class="cls-5" d="M-2488-31a12.88,12.88,0,0,0-.86-3.08q-.86-2.39-1-3.08-3.42,12.15-3.42,15.05,0,.86,2.57,3.08Q-2488-31.67-2488-31Z" transform="translate(2529.63 125.46)"/><path class="cls-1" d="M-2474.16-17.31q0-2.39-2.65-5.39a7.66,7.66,0,0,0-5.73-3h-2.22q-2.74,8.38-2.74,8.9,0,1.54,3.25,2.91a13.2,13.2,0,0,0,4.28,1Q-2474.16-12.86-2474.16-17.31Z" transform="translate(2529.63 125.46)"/><path class="cls-5" d="M-2474.16-82q0-.68-2.91-8-2.23,7.7-6,24.8a15.13,15.13,0,0,1,4.28.51q.68-2.91,2.74-10.44Q-2474.16-81.45-2474.16-82Z" transform="translate(2529.63 125.46)"/><path class="cls-1" d="M-2454.66-69.82q0-4.11-4.79-7a19.14,19.14,0,0,0-8.9-2.91q-.86,2.74-2.91,8.38t-2.91,8.38a20.86,20.86,0,0,1,2.65.26,22,22,0,0,0,2.31.26,36.5,36.5,0,0,0,6.33-.51,16.89,16.89,0,0,0,4.88-2.65Q-2454.66-67.94-2454.66-69.82Z" transform="translate(2529.63 125.46)"/></svg>