<svg id="OBJECTS" xmlns="http://www.w3.org/2000/svg" viewBox="0 0 178.09 86.31"><defs><style>.cls-1{fill:#273a53;}.cls-2{fill:#e8bb37;}.cls-3{fill:#e2a91f;}.cls-4{fill:#39567d;}</style></defs><title>bachelor</title><polygon class="cls-1" points="176.15 32 149.15 37.41 35.05 44.35 2.35 31.87 92.32 2.36 176.15 32"/><path class="cls-2" d="M1564.81,158.33,1481.66,131l-.15-.06-.24-.09-.21,0-.23,0h-.45l-.26,0-.15,0L1389.71,158a2.35,2.35,0,1,0,1.25,4.53l89.36-26.94,82.33,26.89a2.35,2.35,0,0,0,2.17-4.16Z" transform="translate(-1387.99 -130.76)"/><polygon class="cls-3" points="78.92 9.64 78.92 4.73 75.39 5.99 75.39 10.9 78.92 9.64"/><path class="cls-4" d="M1537.14,211.38s-34.15,3.69-56.83,3.69c-26.68,0-57.27-3.69-57.27-3.69V163a184.23,184.23,0,0,1,57.27-9.42c29.95,0,56.83,9.42,56.83,9.42Z" transform="translate(-1387.99 -130.76)"/><path class="cls-1" d="M1449.83,213.86c-16.55-1.09-26.79-2.48-26.79-2.48V163a146.19,146.19,0,0,1,27.45-8.27Z" transform="translate(-1387.99 -130.76)"/><path class="cls-3" d="M1480.41,215.89c-37,0-53-2.61-57.37-3.51v-4.16c2.22.5,17.57,3.61,57.37,3.61,20.76,0,51.44-3.1,56.73-3.65v4.09C1530.76,212.92,1500.86,215.89,1480.41,215.89Z" transform="translate(-1387.99 -130.76)"/><path class="cls-2" d="M1480.31,217.07c-43.12,0-57.21-3.6-57.78-3.75a2,2,0,0,1,1-3.87c.14,0,14.35,3.62,56.76,3.62,22.31,0,56.28-3.64,56.62-3.67a2,2,0,0,1,.43,4C1537,213.41,1502.84,217.07,1480.31,217.07Z" transform="translate(-1387.99 -130.76)"/><path class="cls-2" d="M1466.34,158.78a11.89,11.89,0,0,1-.75-2.82h0V136.15a1.76,1.76,0,1,0-3.52,0V156s0,.05,0,.08a30,30,0,0,1-.61,3.62,26.47,26.47,0,0,0-.65,4.05.88.88,0,0,0,1.76,0,25.07,25.07,0,0,1,.56-3.44v0c.09,1.72.19,3.5.19,4.25a.88.88,0,1,0,1.76,0c0-.8-.09-2.52-.19-4.34V160a8.77,8.77,0,0,1,.54,2.2.88.88,0,0,0,1.76,0A12,12,0,0,0,1466.34,158.78Z" transform="translate(-1387.99 -130.76)"/><path class="cls-1" d="M1480.09,192.59a.5.5,0,0,1-.5-.5V176.9a.5.5,0,0,1,1,0v15.19A.5.5,0,0,1,1480.09,192.59Z" transform="translate(-1387.99 -130.76)"/></svg>