<svg id="Layer_1" data-name="Layer 1" xmlns="http://www.w3.org/2000/svg" viewBox="0 0 110.25 131.81"><defs><style>.cls-1{fill:#fff;}.cls-2{fill:#fff5b0;}.cls-3{fill:#d21c5c;}.cls-4{fill:#f1e91d;}.cls-5{fill:#fcb514;}</style></defs><title>C</title><path class="cls-1" d="M-2313.76,34.4c-23.82,0-44.58-9.27-61.72-27.56l-.09-.1c-3.53-3.88-6.19-10.05-8.6-20l0-.15a90.36,90.36,0,0,1-2.64-19.44,88.19,88.19,0,0,1,2.14-20v0c2.37-9.88,8-19.19,16.62-27.65,8.91-8.7,18.58-13.71,28.74-14.87a263.68,263.68,0,0,1,28.66-1.95h3.76a9.79,9.79,0,0,1,5,1.39c10.82,6.46,17.09,11.62,17.09,18.84,0,3.95-.24,8.59-.72,14.19v.08a85.15,85.15,0,0,1-1.28,9.31c-.49,2.3-1.8,8.41-8,10.32-1,.31-2.09.64-3.38,1-.57.16-3,.92-12.68,4.15l-.32.1a25.21,25.21,0,0,0-8.87,4.33l-.17.13a10.24,10.24,0,0,0-2.1,2.94,9.17,9.17,0,0,0-1,2.31,22.25,22.25,0,0,0,.73,6.08c2.91-.11,5.88-.34,8.87-.69.24,0,1.19-.22,3.82-.84l.16,0a32.3,32.3,0,0,1,6.91-.92c5.18,0,9.33,3.42,15.15,9.74,6.5,7.05,8.18,10.07,8.89,12.91l.07.32c.8,3.75,1.46,10.19,2.08,20.27a9.8,9.8,0,0,1-5.75,9.53A75.89,75.89,0,0,1-2313.76,34.4Zm-47.33-40.85c13.45,14.31,28.93,21.26,47.33,21.26a60.66,60.66,0,0,0,17.09-2.3c-.38-4.76-.72-7.47-1-9a61,61,0,0,0-4.42-5.19c-1.31-1.42-2.29-2.4-3-3.07l-.36.08c-3.52.84-4.85,1.07-5.62,1.18l-.23,0a134.44,134.44,0,0,1-15.5.92h-1a9.8,9.8,0,0,1-6.69-2.64c-5.58-5.22-8.41-13-8.41-23.23a24.07,24.07,0,0,1,3.45-11.67,28.63,28.63,0,0,1,7-8.79,44.41,44.41,0,0,1,15.51-7.87c6.3-2.1,9.56-3.17,11.36-3.74.14-1.07.31-2.45.47-4.23.31-3.57.51-6.75.59-9.49a56.68,56.68,0,0,0-5.23-3.6h-1A244.68,244.68,0,0,0-2337.12-76c-5.73.66-11.54,3.83-17.27,9.42-6,5.83-9.76,11.95-11.25,18.17a68.71,68.71,0,0,0-1.62,15.53,72.83,72.83,0,0,0,2.14,15C-2363-9-2361.27-6.69-2361.08-6.45Z" transform="translate(2386.84 97.41)"/><path class="cls-2" d="M-2313.76,26.24c-21.47,0-40.23-8.4-55.76-25-2.51-2.75-4.7-8.14-6.72-16.47a83.93,83.93,0,0,1-2.44-17.66A80.06,80.06,0,0,1-2376.76-51c2-8.37,6.84-16.35,14.39-23.72s15.65-11.65,24-12.6a255.76,255.76,0,0,1,27.73-1.89h3.76a1.63,1.63,0,0,1,.84.23c11.55,6.9,13.11,9.86,13.11,11.84,0,3.66-.23,8.2-.69,13.48-1,11-2.17,12.2-3.54,12.62-.91.28-2,.61-3.2,1s-5.41,1.72-13,4.26l-.05,0A33.2,33.2,0,0,0-2325.21-40l0,0a17.82,17.82,0,0,0-4.2,5.41,13.45,13.45,0,0,0-2,6.14c0,6.58,1.46,11.43,4.34,14.45h.36a123,123,0,0,0,14.16-.84c.52-.07,1.75-.31,4.62-1a25.21,25.21,0,0,1,5.17-.73c1.35,0,3.39.86,9.15,7.11s6.68,8.21,7,9.35V0c.71,3.29,1.33,9.53,1.91,19.06a1.63,1.63,0,0,1-1,1.59A67.81,67.81,0,0,1-2313.76,26.24ZM-2310.68-86A252.56,252.56,0,0,0-2338-84.11c-7.58.87-15,4.8-22.05,11.69s-11.64,14.38-13.49,22.13a76.79,76.79,0,0,0-1.84,17.41A80.74,80.74,0,0,0-2373.06-16c1.86,7.65,3.86,12.71,5.94,15,14.87,15.87,32.83,23.93,53.36,23.93a65.14,65.14,0,0,0,25.67-4.88c-.54-8.58-1.14-14.43-1.77-17.4-.12-.42-.91-2.17-6.2-7.91-5-5.39-6.5-6-6.79-6.06a22.8,22.8,0,0,0-4.4.65c-2.44.58-4.06.93-4.92,1h0a126.24,126.24,0,0,1-14.56.87h-1a1.63,1.63,0,0,1-1.12-.44c-3.86-3.61-5.82-9.42-5.82-17.27a16.29,16.29,0,0,1,2.43-7.72,20.7,20.7,0,0,1,5-6.38A36.4,36.4,0,0,1-2314.42-49c7.74-2.58,11.92-3.94,13.13-4.29,1-.29,1.95-.57,2.75-.81.27-.58.94-2.68,1.63-9.92.45-5.18.68-9.62.68-13.19,0-.22-.43-2.36-11.14-8.8Z" transform="translate(2386.84 97.41)"/><path class="cls-3" d="M-2286.39,19.13a65.88,65.88,0,0,1-27.37,5.47q-31.65,0-54.57-24.46-3.42-3.76-6.33-15.74A81.92,81.92,0,0,1-2377-32.87a78,78,0,0,1,1.88-17.79q2.91-12.14,13.94-22.92t23-12.15a252.9,252.9,0,0,1,27.54-1.88h3.76q12.32,7.36,12.32,10.44,0,5.48-.68,13.34-1,10.78-2.39,11.2t-3.16.94q-1.8.51-13.09,4.28a34.64,34.64,0,0,0-12.32,6.16,19.3,19.3,0,0,0-4.62,5.9,14.9,14.9,0,0,0-2.22,6.93q0,11.12,5.3,16.08h1a124,124,0,0,0,14.37-.86q1.19-.17,4.79-1a23.82,23.82,0,0,1,4.79-.68q1.88,0,8,6.59t6.59,8.64Q-2287.24,5.1-2286.39,19.13Z" transform="translate(2386.84 97.41)"/><path class="cls-1" d="M-2301.78,8.35q-1-6-2.22-17.79-9.07,3.08-29.42,3.08-4.79,0-11.12-6.67t-7.7-11.8a34,34,0,0,1-1.2-8.9q0-14.54,15.22-22.41,10.95-5.81,28.05-7.18.34-6.16,1.54-18.3h-5.82q-17.45,0-27,3.08a36.21,36.21,0,0,0-21,16.08q-1.54,1.88-4.11,5.65-4.45,8.38-4.45,23.44,0,5.64,2.57,15.91,2.73,11.29,5.47,14.71,6.67,7.87,19.33,12.49a66.15,66.15,0,0,0,22.75,4.11q2.05,0,9.41-2.22Q-2304.86,9.55-2301.78,8.35Z" transform="translate(2386.84 97.41)"/><path class="cls-4" d="M-2343.69,9.72a66.15,66.15,0,0,0,22.75,4.11q2.05,0,9.41-2.22,6.67-2.05,9.75-3.25-.84-4.92-1.8-13.78-9.17,2.34-26.9,2.34-4.79,0-11.12-6.67c-.92-1-1.75-1.91-2.52-2.83l-.42-.43q-6.33-6.67-7.7-11.8a34,34,0,0,1-1.2-8.9q0-14.54,15.22-22.41,10.95-5.81,28.05-7.18.29-5.3,1.22-15h-2.56q-17.45,0-27,3.08a36.21,36.21,0,0,0-21,16.08q-1.54,1.88-4.11,5.65-4.45,8.38-4.45,23.44,0,5.64,2.57,15.91t5,14Q-2354.19,5.89-2343.69,9.72Z" transform="translate(2386.84 97.41)"/><path class="cls-5" d="M-2323-49.47a18.93,18.93,0,0,0-9.07-2.39,13.3,13.3,0,0,0-11,5.39,19.63,19.63,0,0,0-4.19,12.4,20.65,20.65,0,0,0,2.91,10.95q1.71,2.91,7.36,8.72a29.73,29.73,0,0,1-2.05-12Q-2339.07-40.74-2323-49.47Z" transform="translate(2386.84 97.41)"/><path class="cls-5" d="M-2300.24-74.61a3.14,3.14,0,0,0-.9-2.05q-.9-1-1.72-2.05-.17,6.16-1.15,18.3a9.47,9.47,0,0,1,2.95,2.57q0-2.91.41-8.47T-2300.24-74.61Z" transform="translate(2386.84 97.41)"/><path class="cls-5" d="M-2292.2,11.43q-.34-4.27-.86-8.55-.34-3.42-5.13-8v2.74Q-2298.19,8.87-2292.2,11.43Z" transform="translate(2386.84 97.41)"/><path class="cls-5" d="M-2367.76-25.19l35.64-51.65-.46.09-35.25,51.08C-2367.8-25.51-2367.78-25.35-2367.76-25.19Z" transform="translate(2386.84 97.41)"/><path class="cls-5" d="M-2339.7-55.33l15.55-22.54-1,.09-16.16,23.42Q-2340.54-54.86-2339.7-55.33Z" transform="translate(2386.84 97.41)"/><path class="cls-5" d="M-2366.21-16.92l12.82-18.58c0-.55.09-1.09.16-1.62L-2366.44-18Z" transform="translate(2386.84 97.41)"/><path class="cls-5" d="M-2364.24-9.24l11.67-16.91q-.19-.85-.34-1.7l-11.77,17Q-2364.46-10-2364.24-9.24Z" transform="translate(2386.84 97.41)"/><path class="cls-5" d="M-2329.36-59.8l12.76-18.48-1.55.05-13.18,19.1C-2330.68-59.37-2330-59.59-2329.36-59.8Z" transform="translate(2386.84 97.41)"/><path class="cls-5" d="M-2361.76-2.33l11.93-17.29q-.53-.83-1-1.63l-11.77,17.06Q-2362.15-3.18-2361.76-2.33Z" transform="translate(2386.84 97.41)"/><path class="cls-5" d="M-2320.61-62l11.31-16.4h-2.08L-2323-61.47Q-2321.83-61.73-2320.61-62Z" transform="translate(2386.84 97.41)"/><path class="cls-5" d="M-2357.68,2.29-2346-14.63q-.77-.87-1.45-1.72L-2359.37.91Q-2358.56,1.61-2357.68,2.29Z" transform="translate(2386.84 97.41)"/><path class="cls-5" d="M-2312.56-63.1l2.63-3.82q.14-2,.34-4.32l-5.84,8.47C-2314.49-62.89-2313.54-63-2312.56-63.1Z" transform="translate(2386.84 97.41)"/><path class="cls-5" d="M-2352.71,5.59l10.81-15.66q-1-1-1.8-2L-2355,4.22Q-2353.87,4.93-2352.71,5.59Z" transform="translate(2386.84 97.41)"/><path class="cls-5" d="M-2347.31,8.28-2337.46-6a29.76,29.76,0,0,1-2.37-2l-10.32,15Q-2348.77,7.65-2347.31,8.28Z" transform="translate(2386.84 97.41)"/><path class="cls-5" d="M-2343.69,9.72c.71.26,1.43.5,2.14.74l9.48-13.73a11.62,11.62,0,0,1-3.37-1.37L-2345,9.22Z" transform="translate(2386.84 97.41)"/><path class="cls-5" d="M-2335.47,12.16l10.57-15.32q-2.37.06-4.92.06l-9.78,14.17Q-2337.53,11.69-2335.47,12.16Z" transform="translate(2386.84 97.41)"/><path class="cls-5" d="M-2329,13.31l11.59-16.8q-2.66.18-5.63.28l-10.85,15.72Q-2331.45,13-2329,13.31Z" transform="translate(2386.84 97.41)"/><path class="cls-5" d="M-2322.09,13.81l12.48-18.09q-3,.42-6.48.69l-11.75,17Q-2325,13.76-2322.09,13.81Z" transform="translate(2386.84 97.41)"/><path class="cls-5" d="M-2320.94,13.83a34.21,34.21,0,0,0,7.18-1.57l10.46-15.16c-.09-.82-.19-1.66-.28-2.54q-2.34.6-5.24,1l-12.57,18.21Z" transform="translate(2386.84 97.41)"/><path class="cls-5" d="M-2311.53,11.6q3.85-1.18,6.5-2.08l2.8-4.05q-.5-3.44-1-8.19l-10.3,14.93Z" transform="translate(2386.84 97.41)"/><path class="cls-5" d="M-2301.78,8.35c-.15-.87-.3-1.83-.46-2.88l-2.8,4.05Q-2303.09,8.86-2301.78,8.35Z" transform="translate(2386.84 97.41)"/></svg>