<?xml version="1.0" encoding="utf-8"?>
<!-- Generator: Adobe Illustrator 21.1.0, SVG Export Plug-In . SVG Version: 6.00 Build 0)  -->
<svg version="1.1" id="圖層_1" xmlns="http://www.w3.org/2000/svg" xmlns:xlink="http://www.w3.org/1999/xlink" x="0px" y="0px"
	 viewBox="0 0 216.4 225.1" style="enable-background:new 0 0 216.4 225.1;" xml:space="preserve">
<style type="text/css">
	.st0{fill:#519D3C;}
	.st1{clip-path:url(#SVGID_2_);fill:#58595B;}
	.st2{clip-path:url(#SVGID_4_);fill:#58595B;}
	.st3{clip-path:url(#SVGID_6_);fill:#58595B;}
	.st4{clip-path:url(#SVGID_8_);fill:#58595B;}
	.st5{clip-path:url(#SVGID_10_);fill:#58595B;}
	.st6{clip-path:url(#SVGID_12_);fill:#58595B;}
	.st7{fill:#5AC946;}
	.st8{clip-path:url(#SVGID_14_);fill:#E4E5E6;}
	.st9{fill:#FFFFFF;}
	.st10{fill:#414042;}
	.st11{clip-path:url(#SVGID_16_);fill:#E4E5E6;}
	.st12{clip-path:url(#SVGID_18_);fill:#E4E5E6;}
	.st13{clip-path:url(#SVGID_20_);fill:#E4E5E6;}
	.st14{fill:#FF5D12;}
	.st15{fill:#C74E1A;}
	.st16{clip-path:url(#SVGID_22_);fill:#6D6E71;}
	.st17{clip-path:url(#SVGID_24_);fill:#58595B;}
	.st18{clip-path:url(#SVGID_26_);fill:#58595B;}
	.st19{clip-path:url(#SVGID_28_);fill:#58595B;}
	.st20{clip-path:url(#SVGID_30_);fill:#58595B;}
	.st21{clip-path:url(#SVGID_32_);fill:#58595B;}
	.st22{clip-path:url(#SVGID_34_);fill:#58595B;}
	.st23{clip-path:url(#SVGID_36_);fill:#58595B;}
	.st24{clip-path:url(#SVGID_38_);fill:#58595B;}
	.st25{clip-path:url(#SVGID_40_);fill:#58595B;}
	.st26{clip-path:url(#SVGID_42_);fill:#58595B;}
	.st27{clip-path:url(#SVGID_44_);fill:#58595B;}
	.st28{clip-path:url(#SVGID_46_);fill:#58595B;}
	.st29{clip-path:url(#SVGID_48_);fill:#BABCBE;}
	.st30{clip-path:url(#SVGID_50_);fill:#BABCBE;}
	.st31{fill:none;}
</style>
<path class="st0" d="M101.7,194.1l-1.8-5.4l1.4,0.6l-2.7-4.9l1.9,0.9l-2.4-5.2v-4.8l-13.2,1c0,0,0.9,1.2,1.2,5.4
	c0.1,1.1-4.5,2.8-4.5,7.1c0,4.3,4.3,5.4,4.5,7.5c0.2,3.3,0.6,3.7,0.6,4.7c0,3.2-12.6,1.1-12.6,6.7c0,5.6,11.4,2.5,17.6,2.5
	c6.2,0,6.4-1.2,6.4-6v-12.8L101.7,194.1z"/>
<g>
	<g>
		<defs>
			<rect id="SVGID_1_" x="88.7" y="195.9" width="2.7" height="2.7"/>
		</defs>
		<clipPath id="SVGID_2_">
			<use xlink:href="#SVGID_1_"  style="overflow:visible;"/>
		</clipPath>
		<path class="st1" d="M91.4,197.2c0,0.7-0.6,1.3-1.3,1.3c-0.7,0-1.3-0.6-1.3-1.3c0-0.7,0.6-1.3,1.3-1.3
			C90.8,195.9,91.4,196.5,91.4,197.2"/>
	</g>
</g>
<g>
	<g>
		<defs>
			<rect id="SVGID_3_" x="87.2" y="192.9" width="2.1" height="2.1"/>
		</defs>
		<clipPath id="SVGID_4_">
			<use xlink:href="#SVGID_3_"  style="overflow:visible;"/>
		</clipPath>
		<path class="st2" d="M89.3,194c0,0.6-0.5,1-1,1c-0.6,0-1-0.5-1-1c0-0.6,0.5-1,1-1C88.8,192.9,89.3,193.4,89.3,194"/>
	</g>
</g>
<g>
	<g>
		<defs>
			<rect id="SVGID_5_" x="91.4" y="192.9" width="2.1" height="2.1"/>
		</defs>
		<clipPath id="SVGID_6_">
			<use xlink:href="#SVGID_5_"  style="overflow:visible;"/>
		</clipPath>
		<path class="st3" d="M93.5,194c0,0.6-0.5,1-1,1c-0.6,0-1-0.5-1-1c0-0.6,0.5-1,1-1C93,192.9,93.5,193.4,93.5,194"/>
	</g>
</g>
<path class="st0" d="M112.1,194.1l1.8-5.4l-1.4,0.6l2.7-4.9l-1.9,0.9l2.4-5.2v-4.8l13.2,1c0,0-0.9,1.2-1.2,5.4
	c-0.1,1.1,4.5,2.8,4.5,7.1c0,4.3-4.3,5.4-4.5,7.5c-0.2,3.3-0.6,3.7-0.6,4.7c0,3.2,12.6,1.1,12.6,6.7c0,5.6-11.4,2.5-17.6,2.5
	c-6.2,0-6.4-1.2-6.4-6v-12.8L112.1,194.1z"/>
<g>
	<g>
		<defs>
			<rect id="SVGID_7_" x="122.4" y="195.9" width="2.7" height="2.7"/>
		</defs>
		<clipPath id="SVGID_8_">
			<use xlink:href="#SVGID_7_"  style="overflow:visible;"/>
		</clipPath>
		<path class="st4" d="M122.4,197.2c0,0.7,0.6,1.3,1.3,1.3c0.7,0,1.3-0.6,1.3-1.3c0-0.7-0.6-1.3-1.3-1.3
			C123,195.9,122.4,196.5,122.4,197.2"/>
	</g>
</g>
<g>
	<g>
		<defs>
			<rect id="SVGID_9_" x="124.5" y="192.9" width="2.1" height="2.1"/>
		</defs>
		<clipPath id="SVGID_10_">
			<use xlink:href="#SVGID_9_"  style="overflow:visible;"/>
		</clipPath>
		<path class="st5" d="M124.5,194c0,0.6,0.5,1,1,1c0.6,0,1-0.5,1-1c0-0.6-0.5-1-1-1C125,192.9,124.5,193.4,124.5,194"/>
	</g>
</g>
<g>
	<g>
		<defs>
			<rect id="SVGID_11_" x="120.3" y="192.9" width="2.1" height="2.1"/>
		</defs>
		<clipPath id="SVGID_12_">
			<use xlink:href="#SVGID_11_"  style="overflow:visible;"/>
		</clipPath>
		<path class="st6" d="M120.3,194c0,0.6,0.5,1,1,1c0.6,0,1-0.5,1-1c0-0.6-0.5-1-1-1C120.8,192.9,120.3,193.4,120.3,194"/>
	</g>
</g>
<path class="st0" d="M213.4,87c-9.3-10.1-18.1,13.6-30,16.4c-0.4,6.6-2.5,14.6-2.5,14.6s12.7,0.8,23-8.1
	C214.2,101.2,220.4,94.6,213.4,87"/>
<path class="st0" d="M3,87c-7,7.6-0.7,14.1,9.5,23c10.2,8.8,23,8.1,23,8.1s-2.1-8.1-2.5-14.6C21.1,100.7,12.3,76.9,3,87"/>
<path class="st7" d="M184.8,125.5l5.7,5.1l-3.9-26.6c2.1-17.5,0.8-35.8-9-51.3c-16.3-26.1-29.2-29.3-50.7-29.6
	c5.5-3.1,18-9,30.3-7.5C145.6,4.4,123,14.5,123,14.5s-1.9-8.6,12.9-14.3c-20.2-2.3-25.1,16.8-26.1,22.9c-1-6.1-5.9-25.2-26.1-22.9
	c14.7,5.7,12.9,14.3,12.9,14.3S73.9,4.4,62.3,15.7c12.3-1.5,24.8,4.4,30.3,7.5c-21.3,0.3-34.2,3.6-50.4,29.6
	c-9.7,15.4-11,33.5-9,50.9l-3.9,27l5.7-5.1l-4.2,19.8l4.2-3.5l-0.4,20.6l9.6-13.4c1.9,6,3.6,11.3,4.5,15.4
	c2.5,11.4,32.4,15,61.3,14.5c28.8,0.5,58.7-3.2,61.3-14.5c0.9-4.1,2.6-9.3,4.4-15.3l9.5,13.3l-0.4-20.6l4.2,3.5L184.8,125.5z"/>
<g>
	<g>
		<defs>
			<rect id="SVGID_13_" x="86.2" y="76" width="57.3" height="57.3"/>
		</defs>
		<clipPath id="SVGID_14_">
			<use xlink:href="#SVGID_13_"  style="overflow:visible;"/>
		</clipPath>
		<path class="st8" d="M143.4,104.6c0,15.8-12.8,28.6-28.6,28.6c-15.8,0-28.6-12.8-28.6-28.6C86.2,88.8,99,76,114.8,76
			C130.6,76,143.4,88.8,143.4,104.6"/>
	</g>
</g>
<path class="st9" d="M139,99.8c0,15.8-12.8,28.6-28.6,28.6c-15.8,0-28.6-12.8-28.6-28.6s12.8-28.6,28.6-28.6
	C126.1,71.1,139,84,139,99.8"/>
<path class="st10" d="M131.2,100.7c0,11.3-9.2,20.5-20.5,20.5c-11.3,0-20.5-9.2-20.5-20.5c0-11.3,9.2-20.5,20.5-20.5
	C122,80.3,131.2,89.4,131.2,100.7"/>
<path class="st9" d="M90,87.4c1.7,6.9,8,12.1,15.5,12.1c8.8,0,16-7.2,16-16c0-1.6-0.2-3.1-0.7-4.5C109.2,75.4,96.9,77,90,87.4"/>
<g>
	<g>
		<defs>
			<rect id="SVGID_15_" x="101.2" y="45" width="20.7" height="20.7"/>
		</defs>
		<clipPath id="SVGID_16_">
			<use xlink:href="#SVGID_15_"  style="overflow:visible;"/>
		</clipPath>
		<path class="st11" d="M121.9,55.4c0,5.7-4.6,10.3-10.3,10.3c-5.7,0-10.3-4.6-10.3-10.3c0-5.7,4.6-10.3,10.3-10.3
			C117.2,45,121.9,49.7,121.9,55.4"/>
	</g>
</g>
<path class="st9" d="M120.3,53.6c0,5.7-4.6,10.3-10.3,10.3c-5.7,0-10.3-4.6-10.3-10.3c0-5.7,4.6-10.3,10.3-10.3
	C115.6,43.3,120.3,47.9,120.3,53.6"/>
<path class="st10" d="M114.6,53.9c0,2.6-2.1,4.7-4.7,4.7c-2.6,0-4.7-2.1-4.7-4.7c0-2.6,2.1-4.7,4.7-4.7
	C112.5,49.2,114.6,51.3,114.6,53.9"/>
<path class="st9" d="M112.4,49.9c0,2-1.6,3.7-3.7,3.7S105,52,105,49.9c0-2,1.6-3.7,3.7-3.7S112.4,47.9,112.4,49.9"/>
<g>
	<g>
		<defs>
			<rect id="SVGID_17_" x="130.9" y="55.5" width="17.4" height="17.4"/>
		</defs>
		<clipPath id="SVGID_18_">
			<use xlink:href="#SVGID_17_"  style="overflow:visible;"/>
		</clipPath>
		<path class="st12" d="M148.3,64.2c0,4.8-3.9,8.7-8.7,8.7c-4.8,0-8.7-3.9-8.7-8.7c0-4.8,3.9-8.7,8.7-8.7
			C144.4,55.5,148.3,59.4,148.3,64.2"/>
	</g>
</g>
<path class="st9" d="M147,62.7c0,4.8-3.9,8.7-8.7,8.7c-4.8,0-8.7-3.9-8.7-8.7c0-4.8,3.9-8.7,8.7-8.7C143.1,54,147,57.9,147,62.7"/>
<path class="st10" d="M143,63.2c0,2.6-2.1,4.7-4.7,4.7s-4.7-2.1-4.7-4.7c0-2.6,2.1-4.7,4.7-4.7S143,60.6,143,63.2"/>
<path class="st9" d="M140.8,59.2c0,2-1.7,3.7-3.7,3.7c-2,0-3.7-1.7-3.7-3.7c0-2,1.7-3.7,3.7-3.7C139.1,55.5,140.8,57.1,140.8,59.2"
	/>
<g>
	<g>
		<defs>
			<rect id="SVGID_19_" x="73.7" y="56" width="17.4" height="17.4"/>
		</defs>
		<clipPath id="SVGID_20_">
			<use xlink:href="#SVGID_19_"  style="overflow:visible;"/>
		</clipPath>
		<path class="st13" d="M91.1,64.7c0,4.8-3.9,8.7-8.7,8.7c-4.8,0-8.7-3.9-8.7-8.7c0-4.8,3.9-8.7,8.7-8.7
			C87.2,56,91.1,59.9,91.1,64.7"/>
	</g>
</g>
<path class="st9" d="M89.7,63.2c0,4.8-3.9,8.7-8.7,8.7c-4.8,0-8.7-3.9-8.7-8.7c0-4.8,3.9-8.7,8.7-8.7C85.8,54.5,89.7,58.4,89.7,63.2
	"/>
<path class="st10" d="M85.8,63.7c0,2.6-2.1,4.7-4.7,4.7c-2.6,0-4.7-2.1-4.7-4.7c0-2.6,2.1-4.7,4.7-4.7C83.7,59,85.8,61.1,85.8,63.7"
	/>
<path class="st9" d="M83.5,59.7c0,2-1.7,3.7-3.7,3.7c-2,0-3.7-1.7-3.7-3.7c0-2,1.7-3.7,3.7-3.7C81.9,56,83.5,57.7,83.5,59.7"/>
<path class="st14" d="M113.3,152.7c-7.9,0-13.6-1.3-17.6-3.2c-2.8,5.6-8.7,19.6,1.8,21c10.7,1.4,15.9-12.7,17.4-17.8
	C114.3,152.7,113.8,152.7,113.3,152.7"/>
<path class="st15" d="M99.8,167.7c-8.8-1.1-6-11.3-3.3-17.8c-0.3-0.1-0.7-0.3-1-0.4c-2.8,5.5-8.7,19.6,1.8,21
	c5.2,0.7,9.1-2.3,11.8-6.1C106.8,166.7,103.7,168.2,99.8,167.7"/>
<g>
	<g>
		<defs>
			<rect id="SVGID_21_" x="85.3" y="133.8" width="54" height="18.9"/>
		</defs>
		<clipPath id="SVGID_22_">
			<use xlink:href="#SVGID_21_"  style="overflow:visible;"/>
		</clipPath>
		<path class="st16" d="M139.3,137.3c0-0.1,0-0.2,0-0.2c0-1.8-1.5-3.2-3.2-3.2c-1.8,0-3.2,1.5-3.2,3.2c0,0.2,0,0.4,0.1,0.6
			c-0.1,1.1-1.3,8.6-19.7,8.6c-18.9,0-21.2-8-21.5-9.1c0-0.1,0-0.1,0-0.2c0-1.8-1.5-3.2-3.2-3.2s-3.2,1.5-3.2,3.2
			c0,0.3,0,0.5,0.1,0.7l0,0c0.1,0.6,1.8,14.9,27.9,14.9c10.5,0,18.1-2.3,22.5-6.9C139.5,141.9,139.4,137.8,139.3,137.3L139.3,137.3z
			"/>
	</g>
</g>
<g>
	<g>
		<defs>
			<rect id="SVGID_23_" x="57.8" y="98" width="2.7" height="2.7"/>
		</defs>
		<clipPath id="SVGID_24_">
			<use xlink:href="#SVGID_23_"  style="overflow:visible;"/>
		</clipPath>
		<path class="st17" d="M59.2,100.7c-0.7,0-1.4-0.6-1.4-1.4c0-0.7,0.6-1.4,1.4-1.4c0.7,0,1.4,0.6,1.4,1.4
			C60.6,100.1,60,100.7,59.2,100.7"/>
	</g>
</g>
<g>
	<g>
		<defs>
			<rect id="SVGID_25_" x="71.3" y="99.4" width="2.7" height="2.7"/>
		</defs>
		<clipPath id="SVGID_26_">
			<use xlink:href="#SVGID_25_"  style="overflow:visible;"/>
		</clipPath>
		<path class="st18" d="M72.6,102.1c-0.7,0-1.4-0.6-1.4-1.4c0-0.7,0.6-1.4,1.4-1.4c0.7,0,1.4,0.6,1.4,1.4
			C74,101.5,73.4,102.1,72.6,102.1"/>
	</g>
</g>
<g>
	<g>
		<defs>
			<rect id="SVGID_27_" x="65.7" y="89.1" width="2.7" height="2.7"/>
		</defs>
		<clipPath id="SVGID_28_">
			<use xlink:href="#SVGID_27_"  style="overflow:visible;"/>
		</clipPath>
		<path class="st19" d="M67,91.8c-0.7,0-1.4-0.6-1.4-1.4c0-0.8,0.6-1.4,1.4-1.4c0.7,0,1.4,0.6,1.4,1.4C68.4,91.2,67.8,91.8,67,91.8"
			/>
	</g>
</g>
<g>
	<g>
		<defs>
			<rect id="SVGID_29_" x="69.9" y="78.6" width="2.7" height="2.7"/>
		</defs>
		<clipPath id="SVGID_30_">
			<use xlink:href="#SVGID_29_"  style="overflow:visible;"/>
		</clipPath>
		<path class="st20" d="M71.3,81.3c-0.7,0-1.4-0.6-1.4-1.4c0-0.7,0.6-1.4,1.4-1.4c0.8,0,1.4,0.6,1.4,1.4
			C72.6,80.7,72,81.3,71.3,81.3"/>
	</g>
</g>
<g>
	<g>
		<defs>
			<rect id="SVGID_31_" x="59.2" y="76" width="2.7" height="2.7"/>
		</defs>
		<clipPath id="SVGID_32_">
			<use xlink:href="#SVGID_31_"  style="overflow:visible;"/>
		</clipPath>
		<path class="st21" d="M60.6,78.7c-0.7,0-1.4-0.6-1.4-1.4s0.6-1.4,1.4-1.4c0.7,0,1.4,0.6,1.4,1.4S61.3,78.7,60.6,78.7"/>
	</g>
</g>
<g>
	<g>
		<defs>
			<rect id="SVGID_33_" x="50.2" y="85.7" width="2.7" height="2.7"/>
		</defs>
		<clipPath id="SVGID_34_">
			<use xlink:href="#SVGID_33_"  style="overflow:visible;"/>
		</clipPath>
		<path class="st22" d="M51.6,88.4c-0.7,0-1.4-0.6-1.4-1.4c0-0.7,0.6-1.4,1.4-1.4c0.7,0,1.4,0.6,1.4,1.4
			C53,87.8,52.3,88.4,51.6,88.4"/>
	</g>
</g>
<g>
	<g>
		<defs>
			<rect id="SVGID_35_" x="156" y="87.7" width="2.7" height="2.7"/>
		</defs>
		<clipPath id="SVGID_36_">
			<use xlink:href="#SVGID_35_"  style="overflow:visible;"/>
		</clipPath>
		<path class="st23" d="M157.4,87.7c0.7,0,1.4,0.6,1.4,1.4c0,0.7-0.6,1.4-1.4,1.4c-0.7,0-1.4-0.6-1.4-1.4
			C156,88.3,156.6,87.7,157.4,87.7"/>
	</g>
</g>
<g>
	<g>
		<defs>
			<rect id="SVGID_37_" x="149.5" y="100.7" width="2.7" height="2.7"/>
		</defs>
		<clipPath id="SVGID_38_">
			<use xlink:href="#SVGID_37_"  style="overflow:visible;"/>
		</clipPath>
		<path class="st24" d="M150.8,100.7c0.7,0,1.4,0.6,1.4,1.4c0,0.8-0.6,1.4-1.4,1.4c-0.7,0-1.4-0.6-1.4-1.4
			C149.5,101.3,150.1,100.7,150.8,100.7"/>
	</g>
</g>
<g>
	<g>
		<defs>
			<rect id="SVGID_39_" x="157.6" y="70.6" width="2.7" height="2.7"/>
		</defs>
		<clipPath id="SVGID_40_">
			<use xlink:href="#SVGID_39_"  style="overflow:visible;"/>
		</clipPath>
		<path class="st25" d="M159,70.6c0.7,0,1.4,0.6,1.4,1.4c0,0.8-0.6,1.4-1.4,1.4c-0.8,0-1.4-0.6-1.4-1.4
			C157.6,71.2,158.2,70.6,159,70.6"/>
	</g>
</g>
<g>
	<g>
		<defs>
			<rect id="SVGID_41_" x="163.3" y="100.7" width="2.7" height="2.7"/>
		</defs>
		<clipPath id="SVGID_42_">
			<use xlink:href="#SVGID_41_"  style="overflow:visible;"/>
		</clipPath>
		<path class="st26" d="M164.6,100.7c0.8,0,1.4,0.6,1.4,1.4c0,0.8-0.6,1.4-1.4,1.4c-0.7,0-1.4-0.6-1.4-1.4
			C163.3,101.3,163.9,100.7,164.6,100.7"/>
	</g>
</g>
<g>
	<g>
		<defs>
			<rect id="SVGID_43_" x="166" y="84.4" width="2.7" height="2.7"/>
		</defs>
		<clipPath id="SVGID_44_">
			<use xlink:href="#SVGID_43_"  style="overflow:visible;"/>
		</clipPath>
		<path class="st27" d="M167.3,84.4c0.8,0,1.4,0.6,1.4,1.4c0,0.8-0.6,1.4-1.4,1.4c-0.7,0-1.4-0.6-1.4-1.4
			C166,85,166.6,84.4,167.3,84.4"/>
	</g>
</g>
<g>
	<g>
		<defs>
			<rect id="SVGID_45_" x="146.8" y="78.6" width="2.7" height="2.7"/>
		</defs>
		<clipPath id="SVGID_46_">
			<use xlink:href="#SVGID_45_"  style="overflow:visible;"/>
		</clipPath>
		<path class="st28" d="M148.1,78.6c0.8,0,1.4,0.6,1.4,1.4c0,0.8-0.6,1.4-1.4,1.4c-0.7,0-1.4-0.6-1.4-1.4
			C146.8,79.2,147.4,78.6,148.1,78.6"/>
	</g>
</g>
<g>
	<g>
		<defs>
			<rect id="SVGID_47_" x="145.3" y="115.1" width="21.7" height="21.7"/>
		</defs>
		<clipPath id="SVGID_48_">
			<use xlink:href="#SVGID_47_"  style="overflow:visible;"/>
		</clipPath>
		<path class="st29" d="M167,126c0,6-4.9,10.8-10.8,10.8c-6,0-10.8-4.9-10.8-10.8c0-6,4.9-10.8,10.8-10.8
			C162.1,115.1,167,120,167,126"/>
	</g>
</g>
<g>
	<g>
		<defs>
			<rect id="SVGID_49_" x="54.8" y="115.1" width="21.7" height="21.7"/>
		</defs>
		<clipPath id="SVGID_50_">
			<use xlink:href="#SVGID_49_"  style="overflow:visible;"/>
		</clipPath>
		<path class="st30" d="M76.5,126c0,6-4.9,10.8-10.8,10.8c-6,0-10.8-4.9-10.8-10.8c0-6,4.9-10.8,10.8-10.8
			C71.7,115.1,76.5,120,76.5,126"/>
	</g>
</g>
<rect class="st31" width="216.4" height="225.1"/>
<rect class="st31" width="216.4" height="225.1"/>
</svg>
