<svg xmlns="http://www.w3.org/2000/svg" viewBox="0 0 62.93 85.96"><defs><style>.cls-1{isolation:isolate;}.cls-2{fill:#fff;}.cls-3{fill:#e0e1e2;mix-blend-mode:multiply;}</style></defs><title>cloud</title><g class="cls-1"><g id="圖層_1" data-name="圖層 1"><path class="cls-2" d="M57.06,52a6.56,6.56,0,0,0-2-4.74,2.89,2.89,0,0,0,.63-2.16c-.16-.92-1.24-1.25-2-1.26h-.23a9.07,9.07,0,0,0,1.33-6.1c-.15-2.1-.75-4.57-2.82-5.57a9.54,9.54,0,0,0-3.29-.69,4.12,4.12,0,0,0-1.61.24l.13-.18a6.48,6.48,0,0,0,1.16-4.44c-.25-1.65-2.11-2.52-3.6-2.48a4.55,4.55,0,0,0-1.26.29.81.81,0,0,0-.49-.81,1.42,1.42,0,0,0-.57-.19,7.58,7.58,0,0,0,1.28-3.83,5,5,0,0,0-1.11-3.5,2.72,2.72,0,0,0-1.45-1,3.64,3.64,0,0,0-1-.08A1.55,1.55,0,0,0,40,14.2a1.41,1.41,0,0,0-1.43-.56,7.66,7.66,0,0,0,.72-4.12,2.56,2.56,0,0,0-2.79-1.94,1,1,0,0,0-.38,0,5.59,5.59,0,0,0-.65.16c.11-.46.28-1,.3-1.16a9.08,9.08,0,0,0-.41-4.24A3.11,3.11,0,0,0,33.21.46a3.23,3.23,0,0,0-.58-.31c-1.19-.5-2.19.36-2.8,1.28a4.91,4.91,0,0,0-.28.5,5.28,5.28,0,0,0-1.13,4.55,5.18,5.18,0,0,0,1,2.85,3.38,3.38,0,0,0,1.83,1.19,3.41,3.41,0,0,0-.85,1.31,1.91,1.91,0,0,0,.77,2.07,3,3,0,0,0-.22.78c-.5,1.68.21,3.49.86,5a7.9,7.9,0,0,0,2.93,3.61,11.68,11.68,0,0,0-2.06.36,9.28,9.28,0,0,0-3.59,1.93A13.87,13.87,0,0,0,29.4,21c-.19-1.55-1-2.91-2.7-3a2.58,2.58,0,0,0-.48,0,9.67,9.67,0,0,0,2-4.78c.21-1.58.24-3.56-1.22-4.58a2.81,2.81,0,0,0-2.44-.44A14.08,14.08,0,0,0,24.8,6c.1-1.85-.39-4.07-2-5.16a2.91,2.91,0,0,0-3.93.83A6.52,6.52,0,0,0,18,3.3a7,7,0,0,0-1,1.77c-.62,1.5-1.42,4.08-.06,5.38a3.17,3.17,0,0,0-.84.5,4.91,4.91,0,0,0-.49,7.13A19.83,19.83,0,0,0,3.8,28.17,31.23,31.23,0,0,0,.1,45.4a10.46,10.46,0,0,0,2.3,6.32C3.57,53,6,54,7.75,53.31A6,6,0,0,0,7.27,58c.35,1.44,1.44,3.43,3.06,3.38a4.6,4.6,0,0,0-1.28,4.41c.38,2.34,2.32,4.21,4.21,5.44a9,9,0,0,0,7.1,1.57,5.37,5.37,0,0,0,1.27-.52,5.75,5.75,0,0,0-.18.92A2.65,2.65,0,0,0,23.38,76a4.29,4.29,0,0,0,1.11.12A3.92,3.92,0,0,0,25,79.87a3.65,3.65,0,0,0,3.43,1.22c.78,3.74,5.87,5,9.36,4.85a12.17,12.17,0,0,0,6.59-2.44c.62-.29,1.21-.62,1.78-1a17.66,17.66,0,0,0,7.92-8.43c1-2.61,1.17-6.25-.67-8.54a3.61,3.61,0,0,0,1-1.91,1.82,1.82,0,0,0-1.64-2.13,2.09,2.09,0,0,0-.43,0,17.41,17.41,0,0,0,1.41-1.56A13.92,13.92,0,0,0,57.06,52Z" transform="translate(0 0)"/><path class="cls-3" d="M57.06,52a6.56,6.56,0,0,0-2-4.74,2.89,2.89,0,0,0,.63-2.16c-.16-.92-1.24-1.25-2-1.26h-.23a9.07,9.07,0,0,0,1.33-6.1c-.15-2.1-.75-4.57-2.82-5.57a9.54,9.54,0,0,0-3.29-.69,4.12,4.12,0,0,0-1.61.24l.13-.18a6.48,6.48,0,0,0,1.16-4.44c-.25-1.65-2.11-2.52-3.6-2.48a4.55,4.55,0,0,0-1.26.29.81.81,0,0,0-.49-.81,1.42,1.42,0,0,0-.57-.19,7.58,7.58,0,0,0,1.28-3.83,5,5,0,0,0-1.11-3.5,2.72,2.72,0,0,0-1.45-1,3.64,3.64,0,0,0-1-.08A1.55,1.55,0,0,0,40,14.2a1.41,1.41,0,0,0-1.43-.56,7.66,7.66,0,0,0,.72-4.12,2.56,2.56,0,0,0-2.79-1.94,1,1,0,0,0-.38,0,5.59,5.59,0,0,0-.65.16c.11-.46.28-1,.3-1.16a9.08,9.08,0,0,0-.41-4.24A3.11,3.11,0,0,0,33.21.46a3.23,3.23,0,0,0-.58-.31c-1.19-.5-2.19.36-2.8,1.28a4.91,4.91,0,0,0-.28.5,5.28,5.28,0,0,0-1.13,4.55,5.18,5.18,0,0,0,1,2.85,3.38,3.38,0,0,0,1.83,1.19,3.41,3.41,0,0,0-.85,1.31,1.91,1.91,0,0,0,.77,2.07,3,3,0,0,0-.22.78c-.5,1.68.21,3.49.86,5a7.9,7.9,0,0,0,2.93,3.61,11.68,11.68,0,0,0-2.06.36,9.28,9.28,0,0,0-3.59,1.93A13.87,13.87,0,0,0,29.4,21c-.19-1.55-1-2.91-2.7-3a2.58,2.58,0,0,0-.48,0,9.67,9.67,0,0,0,2-4.78c.21-1.58.24-3.56-1.22-4.58a2.81,2.81,0,0,0-2.44-.44A14.08,14.08,0,0,0,24.8,6c.1-1.85-.39-4.07-2-5.16a2.91,2.91,0,0,0-3.93.83A6.52,6.52,0,0,0,18,3.3a7,7,0,0,0-1,1.77c-.62,1.5-1.42,4.08-.06,5.38a3.17,3.17,0,0,0-.84.5,4.91,4.91,0,0,0-.49,7.13A19.83,19.83,0,0,0,3.8,28.17,31.23,31.23,0,0,0,.1,45.4a10.46,10.46,0,0,0,2.3,6.32C3.57,53,6,54,7.75,53.31A6,6,0,0,0,7.27,58c.35,1.44,1.44,3.43,3.06,3.38a4.6,4.6,0,0,0-1.28,4.41c.38,2.34,2.32,4.21,4.21,5.44a9,9,0,0,0,7.1,1.57,5.37,5.37,0,0,0,1.27-.52,5.75,5.75,0,0,0-.18.92A2.65,2.65,0,0,0,23.38,76a4.29,4.29,0,0,0,1.11.12A3.92,3.92,0,0,0,25,79.87a3.65,3.65,0,0,0,3.43,1.22c.78,3.74,5.87,5,9.36,4.85a12.17,12.17,0,0,0,6.59-2.44c.62-.29,1.21-.62,1.78-1a17.66,17.66,0,0,0,7.92-8.43c1-2.61,1.17-6.25-.67-8.54a3.61,3.61,0,0,0,1-1.91,1.82,1.82,0,0,0-1.64-2.13,2.09,2.09,0,0,0-.43,0,17.41,17.41,0,0,0,1.41-1.56A13.92,13.92,0,0,0,57.06,52ZM41.59,21.63a2.41,2.41,0,0,1-1.28,3.56,1.89,1.89,0,0,1-2.46-1.72,2.06,2.06,0,0,1,.76-2,.12.12,0,0,1,0-.11A1.66,1.66,0,0,1,41.59,21.63Zm-7.24-5.52a2.37,2.37,0,0,0-.81,1.59c0,.18-.29.24-.33.05a5.88,5.88,0,0,1,.24-3.59A2.39,2.39,0,0,1,31.4,12a4.24,4.24,0,0,1,.71-2.48,2.94,2.94,0,0,1-.52,0c-1.48-.12-2.31-1.77-2.28-3.11a2.7,2.7,0,0,1,2.2-2.78A2.2,2.2,0,0,1,34.73,5.3a4.31,4.31,0,0,1-1,3.28,2.71,2.71,0,0,1,2.29,1,3.47,3.47,0,0,1,.13,3.58,1.74,1.74,0,0,1,1.51.63,2.32,2.32,0,0,1,.35,1.93,1.68,1.68,0,0,1,1.51.07c1,.62,1.24,2.4.83,3.41A3.2,3.2,0,0,1,37.26,21C34.47,21.45,33.32,18.34,34.35,16.11Zm-16,49.2c-1,1-1.61,2.89-.9,4.09.07.12-.05.31-.2.25a5.34,5.34,0,0,1,0-9.67,7.57,7.57,0,0,1,1.9-.48,7.72,7.72,0,0,1-3.05-2.92c-1.34-2.32-1.56-5.26.3-7.28A5,5,0,0,0,13,52.35a.17.17,0,0,1-.33,0c-1.18-3.07.59-5.88,3-7.77-2.24.06-4.17-.83-5-3.06-.43,2.06-1.42,4.34-3.55,5a4.09,4.09,0,0,1-5.07-2.4,9.65,9.65,0,0,1-.2-6,8.4,8.4,0,0,1,2.76-4.81c.13-.1.27.07.25.2a7.87,7.87,0,0,0,.63,5.75c-.1-5.39,2.63-10.76,8.06-12.18A5.84,5.84,0,0,0,7.7,28.89a.17.17,0,0,1-.29-.13,9.38,9.38,0,0,1,5.67-7.12,5.39,5.39,0,0,1,5.8.71,5.38,5.38,0,0,1,1-.92,1.87,1.87,0,0,1-.14-.64,3.12,3.12,0,0,1,.34-1.67A3.91,3.91,0,0,1,17,17.05a4.42,4.42,0,0,1,.24-4.67,4.55,4.55,0,0,1,1.91-1.47c-1.72-1.34-1.77-5.76,1.46-5.33,1.68.22,2.67,3.14,2.19,4.79a2.54,2.54,0,0,1,2.1,1.82,5.62,5.62,0,0,1-1.12,5.59l-.12.12a2,2,0,0,1,.37.56,3.74,3.74,0,0,1,.13,2.64,4.69,4.69,0,0,1,2.3,2.65,6.19,6.19,0,0,1,.36,3.53,4.72,4.72,0,0,1-.25.72,2.72,2.72,0,0,1,2.05-.89,2.89,2.89,0,0,1,2.54,2.41C32,28.15,33.63,27,34.8,27.86c-.11-2.14,3.62-3.27,5.08-1.79a3.61,3.61,0,0,1,.29,4.24,3,3,0,0,1,2.42.39c1.67,1.31,1.88,4,1.14,5.83a9.94,9.94,0,0,1-3.26,4.26,3.56,3.56,0,0,1,2.84,1c1.41,1.41,1,3.32.55,5.06,1.23-1.06,2.67-2.6,4.37-1.81A4.94,4.94,0,0,1,51,50.44a9.73,9.73,0,0,1-3.52,4.78,5,5,0,0,1,1.05,3,6.44,6.44,0,0,1-3.11,5.34,6.14,6.14,0,0,1-5.89.55,5.72,5.72,0,0,1-1.64-1.16,5.11,5.11,0,0,1-2.47,3.83.18.18,0,0,1-.25-.2A3.57,3.57,0,0,0,34,62.87c.91,1.46.12,3.44-.89,4.76A9.66,9.66,0,0,1,26.82,71C23.12,71.52,17.46,69.88,18.32,65.31ZM46,79.63a8.35,8.35,0,0,1-8.92,4.3,5.19,5.19,0,0,1-3.48-2.53,3.52,3.52,0,0,1-.53-1.85c-1.44,1-3.63,1.37-4.9.19a2.5,2.5,0,0,1-.49-3.18,2.16,2.16,0,0,1,2.12-1c-1.08-1.59.38-4.08,2-4.94s3.76-.24,4.23,1.28c1.79-1.39,4.7-1.18,6.66-.25C45.62,73.08,47.54,76.51,46,79.63Zm3.68-6.89a3.82,3.82,0,0,1-4,.38,4.26,4.26,0,0,1-2.41-3.34c-.11-1.66,1.41-4.45,3.27-4.64a3,3,0,0,1,1.9-.44,3.34,3.34,0,0,1,2.31,1.66A4.8,4.8,0,0,1,49.7,72.74Zm1.2-30.59c-2.95.64-2.57-3.49-1.06-4.75a1.51,1.51,0,0,1,1.43-.77A2,2,0,0,1,52.56,38C53.14,39.51,52.77,41.74,50.9,42.15Z" transform="translate(0 0)"/><path class="cls-3" d="M30.59,83.37a5.38,5.38,0,0,1,.52-2.56,6.08,6.08,0,0,1-3.2-.2,4.33,4.33,0,0,1-2.65-3.48A2.49,2.49,0,0,1,26.11,75a3.48,3.48,0,0,1-2.42-.42,4,4,0,0,1-1.57-3.13l0-.34a6.45,6.45,0,0,1-1.77.69,7.18,7.18,0,0,1-6.19-1.47c-1.93-1.6-3.48-4.42-3.17-7a3.26,3.26,0,0,1,.78-2A7.33,7.33,0,0,1,9.4,54a.18.18,0,0,1,.16-.13,10.81,10.81,0,0,0,2.54.06,12.46,12.46,0,0,1-1.67-.5,12.17,12.17,0,0,1-3.6-2,11.11,11.11,0,0,1-2.68-3.56,7.57,7.57,0,0,0,1.5,3.6.17.17,0,0,1-.2.27C2,49.93.59,46.64,0,43.12c0,.75,0,1.52.1,2.28a10.46,10.46,0,0,0,2.3,6.32C3.57,53,6,54,7.75,53.31A6,6,0,0,0,7.27,58c.35,1.44,1.44,3.43,3.06,3.38a4.6,4.6,0,0,0-1.28,4.41c.38,2.34,2.32,4.21,4.21,5.44a9,9,0,0,0,7.1,1.57,5.37,5.37,0,0,0,1.27-.52,5.75,5.75,0,0,0-.18.92A2.65,2.65,0,0,0,23.38,76a4.29,4.29,0,0,0,1.11.12A3.92,3.92,0,0,0,25,79.87a3.65,3.65,0,0,0,3.43,1.22,5.06,5.06,0,0,0,2.32,3.18A3,3,0,0,1,30.59,83.37Z" transform="translate(0 0)"/><path class="cls-3" d="M47.51,62.16A5.53,5.53,0,0,0,49,61.83,5.62,5.62,0,0,0,47.51,62.16Z" transform="translate(0 0)"/><path class="cls-3" d="M57.06,52a6.56,6.56,0,0,0-2-4.74,2.89,2.89,0,0,0,.63-2.16c-.16-.92-1.24-1.25-2-1.26h-.23a9.07,9.07,0,0,0,1.33-6.1c-.15-2.1-.75-4.57-2.82-5.57a9.54,9.54,0,0,0-3.29-.69,4.12,4.12,0,0,0-1.61.24l.13-.18a6.48,6.48,0,0,0,1.16-4.44c-.25-1.65-2.11-2.52-3.6-2.48a4.55,4.55,0,0,0-1.26.29.81.81,0,0,0-.49-.81,1.42,1.42,0,0,0-.57-.19,7.58,7.58,0,0,0,1.28-3.83,5,5,0,0,0-1.11-3.5l-.12-.15A7.13,7.13,0,0,1,43,22a10.89,10.89,0,0,1-.89,2.14,3.54,3.54,0,0,1,.31,1.54,4.45,4.45,0,0,1,.94-.18,2.69,2.69,0,0,1,2.89,1.7,8.13,8.13,0,0,1-.53,4.21.17.17,0,0,1-.28.07,3.89,3.89,0,0,0-2.32-1A10.16,10.16,0,0,1,46,33.12a6,6,0,0,1,1.1,2.38,9.09,9.09,0,0,0,.73,2.41c.5-1.58.62-3.9-.64-5.07a.17.17,0,0,1,.12-.29c3.51,0,6.67,2.39,6.63,6.06A9,9,0,0,1,52.18,44c-.16.22-.35.46-.54.69,1-.18,2.16-.25,2.75.51a2.43,2.43,0,0,1-.11,2.67c2.41,1.82,1.44,6,.39,8.31a12.19,12.19,0,0,1-4.33,5.32,2.92,2.92,0,0,1,.4.1c.95.29,2.11,1,2.07,2.1a4.29,4.29,0,0,1-1,2.24c1.56,1.76,2.06,4.57,1.84,7a16.84,16.84,0,0,1-.59,3.17,13.55,13.55,0,0,0,1-2c1-2.61,1.17-6.25-.67-8.54a3.61,3.61,0,0,0,1-1.91,1.82,1.82,0,0,0-1.64-2.13,2.09,2.09,0,0,0-.43,0,17.41,17.41,0,0,0,1.41-1.56A13.92,13.92,0,0,0,57.06,52Z" transform="translate(0 0)"/><path class="cls-3" d="M30.74,15.92a10.43,10.43,0,0,0,1,3.8,7.9,7.9,0,0,0,2.93,3.61,11.68,11.68,0,0,0-2.06.36,9.28,9.28,0,0,0-3.59,1.93A13.87,13.87,0,0,0,29.4,21a3.79,3.79,0,0,0-1.12-2.39,6.56,6.56,0,0,1,.39,3.14,14.7,14.7,0,0,1-1.42,5.44,12.2,12.2,0,0,1,6-2.51c1.39-.17,3.45-.48,4.95.1C34.67,23,31.56,19.73,30.74,15.92Z" transform="translate(0 0)"/><path class="cls-3" d="M31.75,80.28a9.76,9.76,0,0,0,1.34-.48,1,1,0,0,1,0-.25,5.27,5.27,0,0,1-1.3.65S31.76,80.25,31.75,80.28Z" transform="translate(0 0)"/><path class="cls-2" d="M62.76,68.78c-.71-2.2-3.86-3.8-5.39-2a5.78,5.78,0,0,0-.62,4.32,3.37,3.37,0,0,0,1,1.83,3.78,3.78,0,0,0,1,.4,3.08,3.08,0,0,0,2.41-.3A3.7,3.7,0,0,0,62.76,68.78Z" transform="translate(0 0)"/><path class="cls-3" d="M62.76,68.78c-.71-2.2-3.86-3.8-5.39-2a5.78,5.78,0,0,0-.62,4.32,3.37,3.37,0,0,0,1,1.83,3.78,3.78,0,0,0,1,.4,3.08,3.08,0,0,0,2.41-.3A3.7,3.7,0,0,0,62.76,68.78Z" transform="translate(0 0)"/><path class="cls-2" d="M59.7,68.36c-.27-.82-1.44-1.41-2-.75a2.14,2.14,0,0,0-.23,1.61,1.21,1.21,0,0,0,.39.68,1.27,1.27,0,0,0,.35.15,1.13,1.13,0,0,0,.9-.11A1.38,1.38,0,0,0,59.7,68.36Z" transform="translate(0 0)"/><path class="cls-2" d="M60.1,61.65c-.4-1.25-2.2-2.16-3.06-1.14A3.27,3.27,0,0,0,56.68,63a1.9,1.9,0,0,0,.6,1,2.73,2.73,0,0,0,.54.23,1.77,1.77,0,0,0,1.37-.18A2.1,2.1,0,0,0,60.1,61.65Z" transform="translate(0 0)"/><path class="cls-3" d="M60.1,61.65c-.4-1.25-2.2-2.16-3.06-1.14A3.27,3.27,0,0,0,56.68,63a1.9,1.9,0,0,0,.6,1,2.73,2.73,0,0,0,.54.23,1.77,1.77,0,0,0,1.37-.18A2.1,2.1,0,0,0,60.1,61.65Z" transform="translate(0 0)"/><path class="cls-2" d="M58.36,61.41c-.15-.47-.82-.8-1.14-.42a1.2,1.2,0,0,0-.13.91.63.63,0,0,0,.22.39.64.64,0,0,0,.2.08.61.61,0,0,0,.51-.06A.79.79,0,0,0,58.36,61.41Z" transform="translate(0 0)"/><path class="cls-2" d="M21.8,76.9c-.41-1.25-2.21-2.16-3.07-1.14a3.23,3.23,0,0,0-.35,2.46,2,2,0,0,0,.59,1,3,3,0,0,0,.54.23,1.8,1.8,0,0,0,1.38-.18A2.12,2.12,0,0,0,21.8,76.9Z" transform="translate(0 0)"/><path class="cls-3" d="M21.8,76.9c-.41-1.25-2.21-2.16-3.07-1.14a3.23,3.23,0,0,0-.35,2.46,2,2,0,0,0,.59,1,3,3,0,0,0,.54.23,1.8,1.8,0,0,0,1.38-.18A2.12,2.12,0,0,0,21.8,76.9Z" transform="translate(0 0)"/><path class="cls-2" d="M20.05,76.66c-.15-.47-.82-.8-1.14-.42a1.2,1.2,0,0,0-.13.91.63.63,0,0,0,.22.39.64.64,0,0,0,.2.08.61.61,0,0,0,.51-.06A.79.79,0,0,0,20.05,76.66Z" transform="translate(0 0)"/><path class="cls-2" d="M54,27.15c-.33-1-1.75-1.72-2.44-.91a2.57,2.57,0,0,0-.28,2,1.52,1.52,0,0,0,.47.83,2.48,2.48,0,0,0,.43.18,1.43,1.43,0,0,0,1.09-.14A1.69,1.69,0,0,0,54,27.15Z" transform="translate(0 0)"/><path class="cls-3" d="M54,27.15c-.33-1-1.75-1.72-2.44-.91a2.57,2.57,0,0,0-.28,2,1.52,1.52,0,0,0,.47.83,2.48,2.48,0,0,0,.43.18,1.43,1.43,0,0,0,1.09-.14A1.69,1.69,0,0,0,54,27.15Z" transform="translate(0 0)"/><path class="cls-2" d="M52.61,27c-.12-.37-.65-.64-.91-.34a1,1,0,0,0-.1.73.58.58,0,0,0,.17.31.71.71,0,0,0,.16.07.58.58,0,0,0,.41-.05A.63.63,0,0,0,52.61,27Z" transform="translate(0 0)"/></g></g></svg>