<?xml version="1.0" encoding="utf-8"?>
<!-- Generator: Adobe Illustrator 21.1.0, SVG Export Plug-In . SVG Version: 6.00 Build 0)  -->
<svg version="1.1" id="Object" xmlns="http://www.w3.org/2000/svg" xmlns:xlink="http://www.w3.org/1999/xlink" x="0px" y="0px"
	 viewBox="0 0 1122 1122" style="enable-background:new 0 0 1122 1122;" xml:space="preserve">
<style type="text/css">
	.st0{fill:#F6D738;}
	.st1{fill:#F3CC30;}
	.st2{fill:#EDBD31;}
	.st3{fill:#F7DB5E;}
	.st4{fill:#D49A34;}
</style>
<g>
	<g>
		<circle class="st0" cx="561" cy="499.5" r="317.5"/>
	</g>
	<g>
		<circle class="st1" cx="561" cy="499.5" r="269.5"/>
	</g>
	<g>
		<path class="st2" d="M702,269.5c26.8,41.9,42.4,91.7,42.4,145.1c0,148.8-120.6,269.5-269.5,269.5c-51.7,0-100-14.6-141-39.8
			c47.9,74.8,131.7,124.3,227.1,124.3c148.8,0,269.5-120.6,269.5-269.5C830.5,402,779.1,316.9,702,269.5z"/>
	</g>
	<g>
		<path class="st3" d="M338.7,524.2c0-131.4,106.5-237.9,237.9-237.9c76.8,0,145.1,36.4,188.6,92.9
			c-41.1-71.3-118.1-119.3-206.3-119.3C427.5,259.8,321,366.3,321,497.7c0,54.6,18.4,104.9,49.3,145
			C350.2,607.8,338.7,567.3,338.7,524.2z"/>
	</g>
	<path class="st4" d="M583.2,325.6v34.3c13.8,2.2,25,6.8,33.8,13.7c8.8,6.9,17.1,17.5,25,31.7l-34.2,19.1
		c-10.3-18.7-23.7-28-40.3-28c-10.3,0-18.8,3-25.6,9.1c-6.8,6.1-10.2,13.7-10.2,22.8c0,8.3,2.7,15.2,8.2,20.7
		c5.4,5.4,16.2,11.7,32.6,19.1c14.1,6.4,25.8,12.5,35,18.1c9.2,5.7,16.2,11.1,20.8,16.4c13.2,14.2,19.8,31.5,19.8,51.7
		c0,19.9-6,37.4-17.9,52.5c-11.8,15.1-27.6,25.2-47.3,30.5v36.3h-30.7v-35.2c-22.9-3.7-40.3-11.6-52.4-23.6
		c-12-12-20.9-30.6-26.6-55.7l38.5-8.1c5.3,17.8,11.7,30.4,19.3,38c7.9,7.2,18.5,10.9,31.7,10.9c12.8,0,23.6-4.1,32.2-12.4
		c8.5-8.2,12.8-18.7,12.8-31.7c0-11.6-3.6-20.8-10.7-27.8c-3.6-3.4-9-7.2-16-11.5c-7.1-4.3-16.1-8.9-27.1-13.9
		c-22.7-10.2-37.5-19.5-44.7-28c-11.3-12.7-17-28-17-45.7c0-8.4,1.3-16.2,4-23.5c2.7-7.2,6.6-13.8,11.6-19.7
		c5.1-5.9,11.4-11,18.8-15.3c7.5-4.3,15.9-7.7,25.4-10.2v-34.3H583.2z"/>
</g>
</svg>
