<svg id="圖層_1" data-name="圖層 1" xmlns="http://www.w3.org/2000/svg" viewBox="0 0 174 192.05"><defs><style>.cls-1{fill:#fff;}.cls-2{fill:#ecc200;}.cls-3{fill:#57c6ce;}.cls-4{fill:#90ecff;}.cls-5{fill:#0c161e;}</style></defs><title>questionTitle</title><g id="Alien_Shotgun" data-name="Alien Shotgun"><g id="Alien_Shotgun-2" data-name="Alien Shotgun"><rect class="cls-1" x="96.67" y="65.72" width="70.66" height="8.18"/><circle class="cls-1" cx="164.45" cy="69.67" r="9.54"/><rect class="cls-2" x="145.63" y="48.89" width="7.16" height="41.56" rx="3.23" ry="3.23"/><rect class="cls-2" x="133.86" y="48.89" width="7.16" height="41.56" rx="3.23" ry="3.23"/><rect class="cls-2" x="122.19" y="48.89" width="7.16" height="41.56" rx="3.23" ry="3.23"/><rect class="cls-2" x="110.49" y="48.89" width="7.16" height="41.56" rx="3.23" ry="3.23"/><circle class="cls-2" cx="13.55" cy="67.56" r="13.55"/><polygon class="cls-3" points="10.42 130.72 38.97 137.17 57.4 83.63 30.18 74.26 10.42 130.72"/><path class="cls-4" d="M6.48,134.9a3.24,3.24,0,0,0,3.23,3.23h30.9a3.24,3.24,0,0,0,3.23-3.23v-1.81a3.24,3.24,0,0,0-3.23-3.23H9.71a3.24,3.24,0,0,0-3.23,3.23Z"/><polygon class="cls-5" points="58.34 103.58 62.96 100.43 62.96 90.04 58.34 90.04 58.34 103.58"/><path class="cls-4" d="M13.55,90.06a3.24,3.24,0,0,0,3.23,3.23h89.74a2.29,2.29,0,0,0,2.32-3.1L96.35,47.91a4.6,4.6,0,0,0-4.15-3.1H16.78A3.24,3.24,0,0,0,13.55,48Z"/><polygon class="cls-3" points="18.86 38.09 28.09 38.09 37.33 44.81 18.86 44.81 18.86 38.09"/><rect class="cls-1" x="18.86" y="48.89" width="37.41" height="8.36"/></g><g id="Star"><path class="cls-1" d="M50.91,11.41A11.41,11.41,0,0,1,39.5,0,11.41,11.41,0,0,1,28.09,11.41,11.41,11.41,0,0,1,39.5,22.81,11.41,11.41,0,0,1,50.91,11.41Z"/><path class="cls-1" d="M89.08,185.35a6.7,6.7,0,0,1-6.7-6.7,6.7,6.7,0,0,1-6.7,6.7,6.7,6.7,0,0,1,6.7,6.7A6.7,6.7,0,0,1,89.08,185.35Z"/><path class="cls-1" d="M136,129.85a6.7,6.7,0,0,1-6.7-6.7,6.7,6.7,0,0,1-6.7,6.7,6.7,6.7,0,0,1,6.7,6.7A6.7,6.7,0,0,1,136,129.85Z"/><path class="cls-1" d="M147.72,22.81a6.7,6.7,0,0,1-6.7-6.7,6.7,6.7,0,0,1-6.7,6.7,6.7,6.7,0,0,1,6.7,6.7A6.7,6.7,0,0,1,147.72,22.81Z"/></g></g></svg>