<svg xmlns="http://www.w3.org/2000/svg" xmlns:xlink="http://www.w3.org/1999/xlink" viewBox="0 0 35.33 61.73"><defs><style>.cls-1{isolation:isolate;}.cls-2{fill:#939698;}.cls-3{fill:#575a5b;}.cls-4{fill:#626467;}.cls-5{fill:url(#linear-gradient);}.cls-6{fill:#3a3c3f;}.cls-7{fill:#b3b5b8;opacity:0.6;}.cls-10,.cls-19,.cls-29,.cls-32,.cls-36,.cls-38,.cls-7{mix-blend-mode:multiply;}.cls-8{fill:url(#linear-gradient-2);}.cls-10,.cls-9{fill:#9d9fa1;}.cls-10{opacity:0.5;}.cls-11{fill:#c2c4c6;}.cls-12{fill:#3e4042;}.cls-13{fill:#76797b;}.cls-14,.cls-28,.cls-30{fill:#fff;}.cls-14,.cls-21{opacity:0.4;}.cls-15{fill:#61626b;}.cls-16{fill:url(#linear-gradient-3);}.cls-17{fill:url(#linear-gradient-4);}.cls-18{fill:url(#linear-gradient-5);}.cls-19{fill:url(#linear-gradient-6);}.cls-20{fill:#aaacae;}.cls-21{fill:#efeff0;}.cls-21,.cls-30,.cls-34,.cls-35,.cls-39{mix-blend-mode:screen;}.cls-22{fill:url(#linear-gradient-7);}.cls-23{fill:url(#linear-gradient-8);}.cls-24{fill:#657483;}.cls-25{fill:url(#linear-gradient-9);}.cls-26{fill:url(#linear-gradient-10);}.cls-27{fill:url(#linear-gradient-11);}.cls-29{fill:url(#linear-gradient-12);}.cls-31{fill:url(#linear-gradient-13);}.cls-32{fill:url(#linear-gradient-14);}.cls-33{fill:url(#linear-gradient-15);}.cls-34{fill:url(#linear-gradient-16);}.cls-35{fill:url(#linear-gradient-17);}.cls-37{fill:#c2bfc0;}.cls-38{fill:#303134;}.cls-39{fill:#a9abae;}.cls-40{fill:url(#linear-gradient-18);}.cls-41{fill:#5a5b5d;}</style><linearGradient id="linear-gradient" x1="28.03" y1="58.47" x2="28.47" y2="62.06" gradientUnits="userSpaceOnUse"><stop offset="0.46" stop-color="#e5e0df"/><stop offset="1" stop-color="#8ca99c"/></linearGradient><linearGradient id="linear-gradient-2" x1="30.04" y1="58.47" x2="30.47" y2="62.06" xlink:href="#linear-gradient"/><linearGradient id="linear-gradient-3" x1="5.88" y1="58.47" x2="6.31" y2="62.06" xlink:href="#linear-gradient"/><linearGradient id="linear-gradient-4" x1="7.88" y1="58.47" x2="8.31" y2="62.06" xlink:href="#linear-gradient"/><linearGradient id="linear-gradient-5" x1="18.16" y1="7.75" x2="18.16" y2="32.46" gradientUnits="userSpaceOnUse"><stop offset="0.69" stop-color="#e5e0df"/><stop offset="1" stop-color="#727876"/></linearGradient><linearGradient id="linear-gradient-6" x1="16.01" y1="36.68" x2="26.07" y2="36.68" xlink:href="#linear-gradient-5"/><linearGradient id="linear-gradient-7" x1="19.8" y1="54.3" x2="20.93" y2="63.66" xlink:href="#linear-gradient"/><linearGradient id="linear-gradient-8" x1="20.21" y1="54.25" x2="21.34" y2="63.61" xlink:href="#linear-gradient"/><linearGradient id="linear-gradient-9" x1="13.9" y1="54.3" x2="15.02" y2="63.66" xlink:href="#linear-gradient"/><linearGradient id="linear-gradient-10" x1="14.31" y1="54.25" x2="15.44" y2="63.61" xlink:href="#linear-gradient"/><linearGradient id="linear-gradient-11" x1="-3.75" y1="27.05" x2="13.33" y2="52.31" gradientUnits="userSpaceOnUse"><stop offset="0.46" stop-color="#e5e0df"/><stop offset="1" stop-color="#454949"/></linearGradient><linearGradient id="linear-gradient-12" x1="5.14" y1="41.81" x2="19.84" y2="48.43" xlink:href="#linear-gradient-11"/><linearGradient id="linear-gradient-13" x1="945" y1="27.05" x2="962.08" y2="52.31" gradientTransform="matrix(-1, 0, 0, 1, 984.09, 0)" xlink:href="#linear-gradient-11"/><linearGradient id="linear-gradient-14" x1="953.9" y1="41.81" x2="968.59" y2="48.43" gradientTransform="matrix(-1, 0, 0, 1, 984.09, 0)" xlink:href="#linear-gradient-11"/><linearGradient id="linear-gradient-15" x1="11.3" y1="39.62" x2="25.43" y2="39.62" gradientUnits="userSpaceOnUse"><stop offset="0.69" stop-color="#e5e0df"/><stop offset="1" stop-color="#b2b8b4"/></linearGradient><linearGradient id="linear-gradient-16" x1="10.88" y1="41.76" x2="23.85" y2="47.61" xlink:href="#linear-gradient-11"/><linearGradient id="linear-gradient-17" x1="15.38" y1="24.27" x2="18.38" y2="25.62" xlink:href="#linear-gradient-11"/><linearGradient id="linear-gradient-18" x1="8.05" y1="50.6" x2="22.36" y2="50.6" xlink:href="#linear-gradient-11"/></defs><title>rocket</title><g class="cls-1"><g id="圖層_1" data-name="圖層 1"><polygon class="cls-2" points="27.11 54.39 25.86 53.55 25.86 42.73 27.11 42.17 27.11 54.39"/><polygon class="cls-3" points="26.27 42.52 26.27 53.8 27.11 54.39 27.11 42.17 26.27 42.52"/><polygon class="cls-2" points="31.77 54.39 32.62 53.96 32.62 48.37 31.77 48.09 31.77 54.39"/><polygon class="cls-3" points="32.34 48.27 32.34 54.09 31.77 54.39 31.77 48.09 32.34 48.27"/><polygon class="cls-2" points="31.99 47.04 32.62 46.84 32.62 44.33 31.99 44.2 31.99 47.04"/><polygon class="cls-3" points="32.41 44.28 32.41 46.9 31.99 47.04 31.99 44.2 32.41 44.28"/><path class="cls-4" d="M28.49,59.08h-.62a3.91,3.91,0,0,0-.54,2.13,2.37,2.37,0,0,0,.85.13,2.31,2.31,0,0,0,.85-.13A3.91,3.91,0,0,0,28.49,59.08Z"/><path class="cls-5" d="M28.77,59.67a3.07,3.07,0,0,0-.28-.59h-.62a3,3,0,0,0-.29.6A3.36,3.36,0,0,0,28.77,59.67Z"/><path class="cls-6" d="M27.33,61v.1a2.46,2.46,0,0,0,.79.11,3.67,3.67,0,0,0,.91-.12V61A3.24,3.24,0,0,1,27.33,61Z"/><path class="cls-6" d="M27.36,60.63a.34.34,0,0,0,0,.1,2.44,2.44,0,0,0,.77.1,3.53,3.53,0,0,0,.9-.11.31.31,0,0,1,0-.1A3.2,3.2,0,0,1,27.36,60.63Z"/><path class="cls-6" d="M28.9,60.08a.3.3,0,0,0,0-.1,3.21,3.21,0,0,1-1.4,0l0,.1a2.79,2.79,0,0,0,.67.07A3.89,3.89,0,0,0,28.9,60.08Z"/><path class="cls-6" d="M27.41,60.31a.36.36,0,0,0,0,.1,2.84,2.84,0,0,0,.73.09,4,4,0,0,0,.85-.1.3.3,0,0,0,0-.1A3.19,3.19,0,0,1,27.41,60.31Z"/><path class="cls-6" d="M28.81,59.76a.36.36,0,0,0,0-.09,3.36,3.36,0,0,1-1.19,0l0,.1a2.79,2.79,0,0,0,.57,0A3.66,3.66,0,0,0,28.81,59.76Z"/><path class="cls-7" d="M28.49,59.08h-.62a3.91,3.91,0,0,0-.54,2.13l.07,0a3.8,3.8,0,0,1,.11-.89c0-.19.12-.65.4-.63s.25,1.33.26,1.63h0a2.31,2.31,0,0,0,.85-.13A3.91,3.91,0,0,0,28.49,59.08Z"/><path class="cls-7" d="M28.49,59.08h-.32a5.83,5.83,0,0,1,.49,2.22,2.47,2.47,0,0,0,.37-.09A3.91,3.91,0,0,0,28.49,59.08Z"/><path class="cls-4" d="M30.49,59.08h-.62a3.91,3.91,0,0,0-.54,2.13,2.37,2.37,0,0,0,.85.13,2.31,2.31,0,0,0,.85-.13A3.91,3.91,0,0,0,30.49,59.08Z"/><path class="cls-8" d="M30.78,59.67a2.72,2.72,0,0,0-.29-.59h-.62a3.87,3.87,0,0,0-.29.6A3.42,3.42,0,0,0,30.78,59.67Z"/><path class="cls-6" d="M29.33,61v.1a2.46,2.46,0,0,0,.79.11,3.67,3.67,0,0,0,.91-.12V61A3.24,3.24,0,0,1,29.33,61Z"/><path class="cls-6" d="M29.36,60.63a.34.34,0,0,0,0,.1,2.44,2.44,0,0,0,.77.1,3.53,3.53,0,0,0,.9-.11.31.31,0,0,1,0-.1A3.2,3.2,0,0,1,29.36,60.63Z"/><path class="cls-6" d="M30.9,60.08a.3.3,0,0,0,0-.1,3.21,3.21,0,0,1-1.4,0,.44.44,0,0,0,0,.1,2.64,2.64,0,0,0,.66.07A3.89,3.89,0,0,0,30.9,60.08Z"/><path class="cls-6" d="M29.41,60.31a.36.36,0,0,0,0,.1,2.84,2.84,0,0,0,.73.09,4,4,0,0,0,.85-.1s0-.07,0-.1A3.23,3.23,0,0,1,29.41,60.31Z"/><path class="cls-6" d="M30.81,59.76l0-.09a3.42,3.42,0,0,1-1.2,0l0,.1a2.86,2.86,0,0,0,.57,0A3.66,3.66,0,0,0,30.81,59.76Z"/><path class="cls-7" d="M30.49,59.08h-.62a3.91,3.91,0,0,0-.54,2.13l.07,0a3.8,3.8,0,0,1,.11-.89c0-.19.12-.65.4-.63s.25,1.33.26,1.63h0a2.31,2.31,0,0,0,.85-.13A3.91,3.91,0,0,0,30.49,59.08Z"/><path class="cls-7" d="M30.49,59.08h-.32a5.65,5.65,0,0,1,.49,2.22,2.47,2.47,0,0,0,.37-.09A3.91,3.91,0,0,0,30.49,59.08Z"/><polygon class="cls-9" points="29.5 56.5 29.5 56.46 29.33 56.48 29.16 56.46 29.16 56.5 26.48 56.83 27.28 59.93 29.16 59.93 29.5 59.93 31.38 59.93 32.17 56.83 29.5 56.5"/><path class="cls-10" d="M30.4,56.61c-.16.9-.36,1.79-.49,2.7,0,.2-.05.41-.07.62h1.54l.79-3.1Z"/><path class="cls-10" d="M26.74,56.79l-.25,0,.79,3.1h.3C27.28,58.89,27,57.84,26.74,56.79Z"/><rect class="cls-11" x="26.49" y="26.31" width="5.69" height="30.51"/><rect class="cls-12" x="26.49" y="55.65" width="5.69" height="1.18"/><rect class="cls-12" x="26.49" y="32.58" width="5.69" height="0.48"/><rect class="cls-12" x="26.49" y="33.59" width="5.69" height="0.48"/><path class="cls-13" d="M29.7,19.46a.4.4,0,0,0-.37-.23c-.07,0-.23,0-.37.23s-2.35,5.13-2.47,6.91h5.68C32.05,24.59,29.89,19.75,29.7,19.46Z"/><path class="cls-14" d="M29.13,19.61a54,54,0,0,0-2.22,6.1s-.17.47.29.46h2.13s.73.1.69-.55S29.13,19.61,29.13,19.61Z"/><path class="cls-14" d="M29.76,26.58H27.27s-.4-.12-.39,1.05V54.17s0,1,.45,1.27l2.12.15s.61,0,.61-1.16v-27S30.06,26.57,29.76,26.58Z"/><path class="cls-11" d="M27.61,59.69a.11.11,0,0,1-.11.12.12.12,0,0,1-.12-.12.12.12,0,0,1,.12-.11A.11.11,0,0,1,27.61,59.69Z"/><path class="cls-11" d="M28.34,59.69a.11.11,0,1,1-.22,0,.11.11,0,1,1,.22,0Z"/><path class="cls-11" d="M29.08,59.69a.12.12,0,0,1-.12.12.11.11,0,0,1-.11-.12.11.11,0,0,1,.11-.11A.11.11,0,0,1,29.08,59.69Z"/><path class="cls-11" d="M29.81,59.69a.11.11,0,0,1-.11.12.12.12,0,0,1-.12-.12.11.11,0,0,1,.12-.11A.11.11,0,0,1,29.81,59.69Z"/><path class="cls-11" d="M30.54,59.69a.11.11,0,1,1-.22,0,.11.11,0,0,1,.22,0Z"/><path class="cls-11" d="M31.27,59.69a.11.11,0,1,1-.22,0,.11.11,0,0,1,.22,0Z"/><rect class="cls-6" x="30.46" y="43.81" width="1.3" height="0.78"/><rect class="cls-6" x="30.46" y="44.76" width="1.3" height="0.4"/><rect class="cls-6" x="30.46" y="48.89" width="1.3" height="0.44"/><rect class="cls-6" x="30.46" y="49.5" width="1.3" height="1.96"/><rect class="cls-6" x="30.46" y="51.64" width="1.3" height="1.24"/><rect class="cls-6" x="30.46" y="54.64" width="1.3" height="0.51"/><path class="cls-15" d="M26.78,28.35a.07.07,0,0,1-.07.07.07.07,0,1,1,0-.14A.07.07,0,0,1,26.78,28.35Z"/><path class="cls-15" d="M27.65,28.35a.07.07,0,1,1-.07-.07A.07.07,0,0,1,27.65,28.35Z"/><path class="cls-15" d="M28.53,28.35a.08.08,0,0,1-.08.07.07.07,0,1,1,0-.14A.08.08,0,0,1,28.53,28.35Z"/><path class="cls-15" d="M29.4,28.35a.07.07,0,1,1-.07-.07A.07.07,0,0,1,29.4,28.35Z"/><path class="cls-15" d="M30.28,28.35a.08.08,0,0,1-.08.07.07.07,0,1,1,0-.14A.08.08,0,0,1,30.28,28.35Z"/><path class="cls-15" d="M31.15,28.35a.07.07,0,1,1-.07-.07A.07.07,0,0,1,31.15,28.35Z"/><path class="cls-15" d="M32,28.35a.07.07,0,1,1-.07-.07A.07.07,0,0,1,32,28.35Z"/><path class="cls-15" d="M26.78,43.46a.07.07,0,0,1-.07.07.07.07,0,1,1,0-.14A.07.07,0,0,1,26.78,43.46Z"/><path class="cls-15" d="M27.65,43.46a.07.07,0,1,1-.07-.07A.07.07,0,0,1,27.65,43.46Z"/><path class="cls-15" d="M28.53,43.46a.08.08,0,0,1-.08.07.07.07,0,0,1,0-.14A.08.08,0,0,1,28.53,43.46Z"/><path class="cls-15" d="M29.4,43.46a.07.07,0,1,1-.07-.07A.07.07,0,0,1,29.4,43.46Z"/><path class="cls-15" d="M30.28,43.46a.08.08,0,0,1-.08.07.07.07,0,0,1,0-.14A.08.08,0,0,1,30.28,43.46Z"/><path class="cls-15" d="M31.15,43.46a.07.07,0,1,1-.07-.07A.07.07,0,0,1,31.15,43.46Z"/><path class="cls-15" d="M32,43.46a.07.07,0,1,1-.07-.07A.07.07,0,0,1,32,43.46Z"/><polygon class="cls-2" points="4.95 54.39 3.7 53.55 3.7 42.73 4.95 42.17 4.95 54.39"/><polygon class="cls-3" points="4.12 42.52 4.12 53.8 4.95 54.39 4.95 42.17 4.12 42.52"/><polygon class="cls-2" points="9.61 54.39 10.46 53.96 10.46 48.37 9.61 48.09 9.61 54.39"/><polygon class="cls-3" points="10.18 48.27 10.18 54.09 9.61 54.39 9.61 48.09 10.18 48.27"/><polygon class="cls-2" points="9.83 47.04 10.46 46.84 10.46 44.33 9.83 44.2 9.83 47.04"/><polygon class="cls-3" points="10.25 44.28 10.25 46.9 9.83 47.04 9.83 44.2 10.25 44.28"/><path class="cls-4" d="M6.33,59.08H5.71a3.91,3.91,0,0,0-.54,2.13,2.37,2.37,0,0,0,.85.13,2.31,2.31,0,0,0,.85-.13A3.81,3.81,0,0,0,6.33,59.08Z"/><path class="cls-16" d="M6.62,59.67a2.72,2.72,0,0,0-.29-.59H5.71a3.87,3.87,0,0,0-.29.6A3.42,3.42,0,0,0,6.62,59.67Z"/><path class="cls-6" d="M5.17,61v.1a2.46,2.46,0,0,0,.79.11,3.74,3.74,0,0,0,.92-.12.34.34,0,0,1,0-.1A3.24,3.24,0,0,1,5.17,61Z"/><path class="cls-6" d="M5.2,60.63a.34.34,0,0,0,0,.1,2.49,2.49,0,0,0,.77.1,3.53,3.53,0,0,0,.9-.11.31.31,0,0,1,0-.1A3.2,3.2,0,0,1,5.2,60.63Z"/><path class="cls-6" d="M6.75,60.08l0-.1a3.22,3.22,0,0,1-1.4,0s0,.07,0,.1a2.64,2.64,0,0,0,.66.07A4.05,4.05,0,0,0,6.75,60.08Z"/><path class="cls-6" d="M5.25,60.31s0,.07,0,.1A2.84,2.84,0,0,0,6,60.5a4,4,0,0,0,.85-.1s0-.07,0-.1A3.23,3.23,0,0,1,5.25,60.31Z"/><path class="cls-6" d="M6.65,59.76l0-.09a3.42,3.42,0,0,1-1.2,0l0,.1a2.94,2.94,0,0,0,.57,0A3.66,3.66,0,0,0,6.65,59.76Z"/><path class="cls-7" d="M6.33,59.08H5.71a3.91,3.91,0,0,0-.54,2.13l.07,0a3.8,3.8,0,0,1,.11-.89c0-.19.12-.65.41-.63S6,61,6,61.34H6a2.31,2.31,0,0,0,.85-.13A3.81,3.81,0,0,0,6.33,59.08Z"/><path class="cls-7" d="M6.33,59.08H6A5.82,5.82,0,0,1,6.5,61.3a2.47,2.47,0,0,0,.37-.09A3.81,3.81,0,0,0,6.33,59.08Z"/><path class="cls-4" d="M8.33,59.08H7.72a3.86,3.86,0,0,0-.55,2.13,2.37,2.37,0,0,0,.85.13,2.4,2.4,0,0,0,.86-.13A3.86,3.86,0,0,0,8.33,59.08Z"/><path class="cls-17" d="M8.62,59.67a2.72,2.72,0,0,0-.29-.59H7.72a3,3,0,0,0-.29.6A3.36,3.36,0,0,0,8.62,59.67Z"/><path class="cls-6" d="M7.17,61v.1a2.46,2.46,0,0,0,.79.11,3.69,3.69,0,0,0,.92-.12s0-.07,0-.1A3.24,3.24,0,0,1,7.17,61Z"/><path class="cls-6" d="M7.2,60.63a.34.34,0,0,0,0,.1,2.49,2.49,0,0,0,.77.1,3.53,3.53,0,0,0,.9-.11s0-.06,0-.1A3.2,3.2,0,0,1,7.2,60.63Z"/><path class="cls-6" d="M8.75,60.08l0-.1a3.22,3.22,0,0,1-1.4,0s0,.07,0,.1a2.64,2.64,0,0,0,.66.07A4.05,4.05,0,0,0,8.75,60.08Z"/><path class="cls-6" d="M7.25,60.31s0,.07,0,.1A2.84,2.84,0,0,0,8,60.5a4.21,4.21,0,0,0,.86-.1.44.44,0,0,1,0-.1A3.23,3.23,0,0,1,7.25,60.31Z"/><path class="cls-6" d="M8.65,59.76l0-.09a3.36,3.36,0,0,1-1.19,0,.3.3,0,0,0,0,.1,2.94,2.94,0,0,0,.57,0A3.66,3.66,0,0,0,8.65,59.76Z"/><path class="cls-7" d="M8.33,59.08H7.72a3.86,3.86,0,0,0-.55,2.13l.07,0a4.42,4.42,0,0,1,.11-.89c0-.19.12-.65.41-.63S8,61,8,61.34H8a2.4,2.4,0,0,0,.86-.13A3.86,3.86,0,0,0,8.33,59.08Z"/><path class="cls-7" d="M8.33,59.08H8A5.82,5.82,0,0,1,8.5,61.3a2.89,2.89,0,0,0,.38-.09A3.86,3.86,0,0,0,8.33,59.08Z"/><polygon class="cls-9" points="7.34 56.5 7.34 56.46 7.17 56.48 7 56.46 7 56.5 4.33 56.83 5.12 59.93 7 59.93 7.34 59.93 9.22 59.93 10.02 56.83 7.34 56.5"/><path class="cls-10" d="M8.24,56.61c-.15.9-.36,1.79-.49,2.7,0,.2,0,.41-.07.62H9.22l.8-3.1Z"/><path class="cls-10" d="M4.58,56.79l-.25,0,.79,3.1h.3C5.12,58.89,4.84,57.84,4.58,56.79Z"/><rect class="cls-11" x="4.33" y="26.31" width="5.69" height="30.51"/><rect class="cls-12" x="4.33" y="55.65" width="5.69" height="1.18"/><rect class="cls-12" x="4.33" y="32.58" width="5.69" height="0.48"/><rect class="cls-12" x="4.33" y="33.59" width="5.69" height="0.48"/><path class="cls-13" d="M7.54,19.46c-.14-.22-.3-.24-.37-.23a.4.4,0,0,0-.37.23c-.19.29-2.35,5.13-2.47,6.91H10C9.89,24.59,7.73,19.75,7.54,19.46Z"/><path class="cls-14" d="M7,19.61a54,54,0,0,0-2.22,6.1s-.17.47.3.46H7.17s.74.1.69-.55S7,19.61,7,19.61Z"/><path class="cls-14" d="M7.6,26.58H5.11s-.4-.12-.39,1.05V54.17s0,1,.45,1.27l2.12.15s.62,0,.62-1.16v-27S7.91,26.57,7.6,26.58Z"/><path class="cls-11" d="M5.45,59.69a.11.11,0,1,1-.22,0,.11.11,0,1,1,.22,0Z"/><path class="cls-11" d="M6.19,59.69a.12.12,0,0,1-.12.12A.11.11,0,0,1,6,59.69a.11.11,0,0,1,.11-.11A.11.11,0,0,1,6.19,59.69Z"/><path class="cls-11" d="M6.92,59.69a.11.11,0,0,1-.11.12.12.12,0,0,1-.12-.12.11.11,0,0,1,.12-.11A.11.11,0,0,1,6.92,59.69Z"/><path class="cls-11" d="M7.65,59.69a.11.11,0,0,1-.11.12.12.12,0,0,1-.12-.12.11.11,0,0,1,.12-.11A.11.11,0,0,1,7.65,59.69Z"/><path class="cls-11" d="M8.38,59.69a.11.11,0,1,1-.22,0,.11.11,0,0,1,.22,0Z"/><path class="cls-11" d="M9.12,59.69a.12.12,0,0,1-.12.12.11.11,0,0,1-.11-.12A.11.11,0,0,1,9,59.58.11.11,0,0,1,9.12,59.69Z"/><rect class="cls-6" x="8.3" y="43.81" width="1.3" height="0.78"/><rect class="cls-6" x="8.3" y="44.76" width="1.3" height="0.4"/><rect class="cls-6" x="8.3" y="48.89" width="1.3" height="0.44"/><rect class="cls-6" x="8.3" y="49.5" width="1.3" height="1.96"/><rect class="cls-6" x="8.3" y="51.64" width="1.3" height="1.24"/><rect class="cls-6" x="8.3" y="54.64" width="1.3" height="0.51"/><path class="cls-15" d="M4.62,28.35a.07.07,0,1,1-.07-.07A.07.07,0,0,1,4.62,28.35Z"/><path class="cls-15" d="M5.49,28.35a.07.07,0,1,1-.07-.07A.07.07,0,0,1,5.49,28.35Z"/><path class="cls-15" d="M6.37,28.35a.07.07,0,1,1-.07-.07A.07.07,0,0,1,6.37,28.35Z"/><path class="cls-15" d="M7.24,28.35a.07.07,0,1,1-.07-.07A.07.07,0,0,1,7.24,28.35Z"/><path class="cls-15" d="M8.12,28.35a.08.08,0,0,1-.07.07.07.07,0,1,1,0-.14A.08.08,0,0,1,8.12,28.35Z"/><path class="cls-15" d="M9,28.35a.07.07,0,1,1-.07-.07A.07.07,0,0,1,9,28.35Z"/><path class="cls-15" d="M9.87,28.35a.08.08,0,0,1-.08.07.07.07,0,0,1,0-.14A.08.08,0,0,1,9.87,28.35Z"/><path class="cls-15" d="M4.62,43.46a.07.07,0,1,1-.07-.07A.07.07,0,0,1,4.62,43.46Z"/><path class="cls-15" d="M5.49,43.46a.07.07,0,1,1-.07-.07A.07.07,0,0,1,5.49,43.46Z"/><circle class="cls-15" cx="6.3" cy="43.46" r="0.07"/><path class="cls-15" d="M7.24,43.46a.07.07,0,1,1-.07-.07A.07.07,0,0,1,7.24,43.46Z"/><circle class="cls-15" cx="8.05" cy="43.46" r="0.07"/><path class="cls-15" d="M9,43.46a.07.07,0,1,1-.07-.07A.07.07,0,0,1,9,43.46Z"/><path class="cls-15" d="M9.87,43.46a.08.08,0,0,1-.08.07.07.07,0,0,1,0-.14A.08.08,0,0,1,9.87,43.46Z"/><rect class="cls-18" x="10.9" y="18.09" width="14.52" height="37.18"/><rect class="cls-19" x="18.65" y="18.09" width="6.76" height="37.18"/><rect class="cls-12" x="10.9" y="20.44" width="14.52" height="1.08"/><path class="cls-20" d="M19.11.61a1,1,0,0,0-1.9,0c-.47.74-6,13.08-6.31,17.61H25.42C25.09,13.69,19.58,1.35,19.11.61Z"/><path class="cls-20" d="M19.11.61a1,1,0,0,0-1.9,0c-.47.74-6,13.08-6.31,17.61H25.42C25.09,13.69,19.58,1.35,19.11.61Z"/><path class="cls-13" d="M19.09,11.72c.18,2.16.36,4.33.49,6.5h5.84C25.09,13.69,19.58,1.35,19.11.61A1.13,1.13,0,0,0,18.3,0C18.75,3.9,18.76,7.82,19.09,11.72Z"/><path class="cls-21" d="M18.14,18.75H12.9s-1-.14-1,1.3V30.7a3.9,3.9,0,0,0,1-1.71c.32-.88.57-1.77.88-2.65a12.69,12.69,0,0,1,2.84-4.79,3.88,3.88,0,0,1,1.52-1.12Z"/><path class="cls-15" d="M10.93,18.26a.12.12,0,0,1-.12.13.13.13,0,0,1-.13-.13.12.12,0,0,1,.13-.12A.12.12,0,0,1,10.93,18.26Z"/><path class="cls-15" d="M12.47,18.26a.13.13,0,0,1-.13.13.12.12,0,0,1-.12-.13.12.12,0,0,1,.12-.12A.12.12,0,0,1,12.47,18.26Z"/><path class="cls-15" d="M14,18.26a.13.13,0,0,1-.13.13.12.12,0,0,1-.12-.13.12.12,0,0,1,.12-.12A.12.12,0,0,1,14,18.26Z"/><path class="cls-15" d="M15.54,18.26a.12.12,0,0,1-.12.13.13.13,0,0,1-.13-.13.12.12,0,0,1,.13-.12A.12.12,0,0,1,15.54,18.26Z"/><path class="cls-15" d="M17.08,18.26a.13.13,0,0,1-.13.13.12.12,0,0,1-.12-.13.12.12,0,0,1,.12-.12A.12.12,0,0,1,17.08,18.26Z"/><path class="cls-15" d="M18.61,18.26a.12.12,0,0,1-.12.13.13.13,0,0,1-.13-.13.12.12,0,0,1,.13-.12A.12.12,0,0,1,18.61,18.26Z"/><path class="cls-15" d="M20.15,18.26a.13.13,0,0,1-.13.13.13.13,0,0,1-.12-.13.12.12,0,0,1,.12-.12A.12.12,0,0,1,20.15,18.26Z"/><path class="cls-15" d="M21.71,18.26a.13.13,0,0,1-.13.13.12.12,0,0,1-.12-.13.12.12,0,0,1,.12-.12A.12.12,0,0,1,21.71,18.26Z"/><path class="cls-15" d="M23.24,18.26a.12.12,0,0,1-.12.13.13.13,0,0,1-.13-.13.12.12,0,0,1,.13-.12A.12.12,0,0,1,23.24,18.26Z"/><path class="cls-15" d="M24.78,18.26a.13.13,0,0,1-.12.13.13.13,0,0,1-.13-.13.12.12,0,0,1,.13-.12A.12.12,0,0,1,24.78,18.26Z"/><path class="cls-22" d="M21.4,55.83H19.79a10.21,10.21,0,0,0-1.41,5.54,6,6,0,0,0,2.22.36,6,6,0,0,0,2.21-.36A10.11,10.11,0,0,0,21.4,55.83Z"/><path class="cls-23" d="M22.14,57.36a7.8,7.8,0,0,0-.74-1.53H19.79A8.24,8.24,0,0,0,19,57.4,8.7,8.7,0,0,0,22.14,57.36Z"/><path class="cls-24" d="M18.38,60.73V61a7.18,7.18,0,0,0,2.05.27,10.29,10.29,0,0,0,2.39-.3c0-.09,0-.18,0-.27A8.31,8.31,0,0,1,18.38,60.73Z"/><path class="cls-24" d="M18.45,59.88c0,.09,0,.17,0,.27a7.24,7.24,0,0,0,2,.26,10.26,10.26,0,0,0,2.34-.29l0-.27A8.36,8.36,0,0,1,18.45,59.88Z"/><path class="cls-24" d="M22.48,58.44c0-.09-.05-.17-.07-.26a8.75,8.75,0,0,1-3.64,0c0,.08,0,.17-.07.26a7.87,7.87,0,0,0,1.73.18A10.25,10.25,0,0,0,22.48,58.44Z"/><path class="cls-24" d="M18.58,59a2.38,2.38,0,0,0,0,.26,7.17,7.17,0,0,0,1.9.23,9.67,9.67,0,0,0,2.23-.26c0-.09,0-.17-.05-.26A8.47,8.47,0,0,1,18.58,59Z"/><path class="cls-24" d="M22.23,57.61l-.09-.25a8.7,8.7,0,0,1-3.1,0l-.09.25a7.2,7.2,0,0,0,1.48.14A9.51,9.51,0,0,0,22.23,57.61Z"/><path class="cls-7" d="M21.4,55.83H19.79a10.21,10.21,0,0,0-1.41,5.54l.18.07a10.74,10.74,0,0,1,.28-2.32c.09-.5.32-1.68,1.06-1.63s.65,3.45.67,4.24h0a6,6,0,0,0,2.21-.36A10.11,10.11,0,0,0,21.4,55.83Z"/><path class="cls-7" d="M21.4,55.83h-.82a15.29,15.29,0,0,1,1.26,5.8,4.34,4.34,0,0,0,1-.26A10.11,10.11,0,0,0,21.4,55.83Z"/><path class="cls-25" d="M15.5,55.83H13.89a10.21,10.21,0,0,0-1.41,5.54,6,6,0,0,0,2.22.36,6,6,0,0,0,2.21-.36A10.21,10.21,0,0,0,15.5,55.83Z"/><path class="cls-26" d="M16.24,57.36a7.8,7.8,0,0,0-.74-1.53H13.89a8.24,8.24,0,0,0-.75,1.57A8.7,8.7,0,0,0,16.24,57.36Z"/><path class="cls-24" d="M12.48,60.73V61a7.16,7.16,0,0,0,2,.27,10.31,10.31,0,0,0,2.4-.3,2.44,2.44,0,0,1,0-.27A8.3,8.3,0,0,1,12.48,60.73Z"/><path class="cls-24" d="M12.55,59.88c0,.09,0,.17,0,.27a7.21,7.21,0,0,0,2,.26,10.34,10.34,0,0,0,2.35-.29l0-.27A8.36,8.36,0,0,1,12.55,59.88Z"/><path class="cls-24" d="M16.58,58.44c0-.09,0-.17-.07-.26a8.75,8.75,0,0,1-3.64,0c0,.08,0,.17-.07.26a7.84,7.84,0,0,0,1.72.18A10.27,10.27,0,0,0,16.58,58.44Z"/><path class="cls-24" d="M12.68,59a2.38,2.38,0,0,0,0,.26,7.14,7.14,0,0,0,1.89.23,9.69,9.69,0,0,0,2.24-.26c0-.09,0-.17-.05-.26A8.46,8.46,0,0,1,12.68,59Z"/><path class="cls-24" d="M16.33,57.61l-.09-.25a8.7,8.7,0,0,1-3.1,0l-.09.25a7.17,7.17,0,0,0,1.47.14A9.53,9.53,0,0,0,16.33,57.61Z"/><path class="cls-7" d="M15.5,55.83H13.89a10.21,10.21,0,0,0-1.41,5.54l.18.07a10.74,10.74,0,0,1,.28-2.32c.08-.5.32-1.68,1.06-1.63s.65,3.45.67,4.24h0a6,6,0,0,0,2.21-.36A10.21,10.21,0,0,0,15.5,55.83Z"/><path class="cls-7" d="M15.5,55.83h-.83a15.11,15.11,0,0,1,1.27,5.8,4.34,4.34,0,0,0,1-.26A10.21,10.21,0,0,0,15.5,55.83Z"/><path class="cls-27" d="M13.24,29.63a5.3,5.3,0,0,0-2.33,3.71c-.52,2.74-1.45,5-3.95,6.79A16.94,16.94,0,0,0,0,55s-.08.45.55.51S12,56.27,12,56.27h1.78Z"/><path class="cls-28" d="M13.33,33.54a4.4,4.4,0,0,0-1.93,3.07,8.12,8.12,0,0,1-3.27,5.63A14.09,14.09,0,0,0,2.38,54.57s-.06.38.46.43,9.46.61,9.46.61h1.48Z"/><path class="cls-29" d="M13.24,29.63a4.44,4.44,0,0,0-1.32,1.26c-.14,2.32-.94,15.85-1.16,19.35-.25,3.84-2.47,4-5.13,4.08S1.11,53.63,1,51.21s2.38-7.53,2.38-7.54A17,17,0,0,0,0,55s-.08.45.55.51S12,56.27,12,56.27h1.78Z"/><path class="cls-30" d="M11,33.54s-.49,3.64-2.61,5.65S3.65,42.24,2.5,45.86a9.42,9.42,0,0,1,3.71-4.57C9.14,39.34,10.94,37.7,11,33.54Z"/><path class="cls-31" d="M22.09,29.63a5.3,5.3,0,0,1,2.33,3.71,9.84,9.84,0,0,0,4,6.79A17,17,0,0,1,35.31,55s.08.45-.56.51-11.42.75-11.42.75H21.55Z"/><path class="cls-28" d="M22,33.54a4.4,4.4,0,0,1,1.93,3.07,8.14,8.14,0,0,0,3.28,5.63A14.06,14.06,0,0,1,33,54.57s.07.38-.46.43-9.46.61-9.46.61H21.55Z"/><path class="cls-32" d="M22.09,29.63a4.31,4.31,0,0,1,1.32,1.26c.14,2.32.95,15.85,1.17,19.35.24,3.84,2.46,4,5.12,4.08s4.53-.69,4.65-3.11S32,43.68,32,43.67A17.05,17.05,0,0,1,35.31,55s.08.45-.56.51-11.42.75-11.42.75H21.55Z"/><path class="cls-30" d="M24.31,33.54s.49,3.64,2.61,5.65,4.76,3.05,5.91,6.67a9.35,9.35,0,0,0-3.71-4.57C26.19,39.34,24.4,37.7,24.31,33.54Z"/><path class="cls-33" d="M22.9,32.85c-.48-5.91-2.66-9.71-4.15-11.18a1.54,1.54,0,0,0-1-.55h-.23a1.5,1.5,0,0,0-1,.55c-1.5,1.47-3.68,5.27-4.16,11.18s-.25,23.42-.25,23.42.1,1,2.27,1.51a14.58,14.58,0,0,0,6.44,0c2.17-.54,2.27-1.51,2.27-1.51S23.39,38.87,22.9,32.85Z"/><path class="cls-34" d="M16.39,30.82a4,4,0,0,0-3.11,3.47c-.21,2.87,0,21.12,0,21.12a1.51,1.51,0,0,0,1,1.57c1.12.41,3.72.69,3.61-1.69s0-22.42,0-22.42S18.06,30.5,16.39,30.82Z"/><path class="cls-35" d="M17.45,21.43s-.76.25-1.77,1.86-2.16,4.48-1.47,4.18a5.6,5.6,0,0,1,3.24-1.27s.35-.08.35-.65S18,21.27,17.45,21.43Z"/><g class="cls-36"><path class="cls-37" d="M22.9,32.85c-.48-5.91-2.66-9.71-4.15-11.18a1.54,1.54,0,0,0-1-.55h-.27c.24.07,1.17.45,1.88,2.3a13.13,13.13,0,0,1,.88,3s0,.6-.5.48A19.33,19.33,0,0,0,17,26.82l1.17,2.68a3.55,3.55,0,0,1,2.61,2C21.6,33.29,21.2,56,21.2,56a1.85,1.85,0,0,1-1.72,1.57c-1.64.27-5.91.45-6.76-1.76a11.11,11.11,0,0,1-.58-2.95c0,2.09,0,3.46,0,3.46s.1,1,2.27,1.51a14.58,14.58,0,0,0,6.44,0c2.17-.54,2.27-1.51,2.27-1.51S23.39,38.87,22.9,32.85Z"/></g><path class="cls-38" d="M21.47,29a2.75,2.75,0,0,0-1.37-1.62A3.94,3.94,0,0,0,18.9,27,6.82,6.82,0,0,0,16,27s-2,.45-2.36,2-.67,3.89-.45,3.86.13-1.11.57-1.63a4.43,4.43,0,0,1,2.48-1.62,6,6,0,0,1,3.27.19A4.42,4.42,0,0,1,21.12,31l.23.28c.44.52.36,1.6.57,1.63S21.86,30.57,21.47,29Z"/><path class="cls-38" d="M21.47,29a2.75,2.75,0,0,0-1.37-1.62A3.94,3.94,0,0,0,18.9,27a6.59,6.59,0,0,0-.76-.1c0,.21.37,1.86-.71,2a7.66,7.66,0,0,0-1.26.28,3.87,3.87,0,0,0-2.87,3.58c.11-.3.12-1.1.48-1.52a4.43,4.43,0,0,1,2.48-1.62,6,6,0,0,1,3.27.19A4.42,4.42,0,0,1,21.12,31l.23.28c.44.52.36,1.6.57,1.63S21.86,30.57,21.47,29Z"/><path class="cls-39" d="M14.73,27.92a3,3,0,0,1,1.15-.65,6.46,6.46,0,0,1,1.57-.33,3.87,3.87,0,0,0-3.17,1.18,2.64,2.64,0,0,0-.58,1.05A3.88,3.88,0,0,1,14.73,27.92Z"/><path class="cls-40" d="M12.12,48.32c0,1.43,0,2.76,0,3.91a18.9,18.9,0,0,0,11.05-.13c0-1.15,0-2.48,0-3.9A18.83,18.83,0,0,1,12.12,48.32Z"/><path class="cls-28" d="M18.84,46.15c-.12-.82-1.06-.73-1.06-.73h-.23s-.93-.09-1.05.73S17,58.2,17,58.2a.71.71,0,0,0,.53.81h.23a.71.71,0,0,0,.53-.81S19,47,18.84,46.15Z"/><path class="cls-41" d="M18.84,46.15c-.12-.82-1.06-.73-1.06-.73h-.23s-.93-.09-1.05.73S17,58.2,17,58.2a.71.71,0,0,0,.53.81h.23a.71.71,0,0,0,.53-.81S19,47,18.84,46.15Z"/><path class="cls-28" d="M17.79,46.4c0-.62-.4-.54-.4-.54h-.08s-.33,0-.35.56.32,12.06.32,12.06S18.13,57.79,17.79,46.4Z"/><path class="cls-41" d="M3.33,54.66a.18.18,0,1,1-.18-.18A.18.18,0,0,1,3.33,54.66Z"/><path class="cls-41" d="M5,54.84a.18.18,0,0,1-.17.18.18.18,0,0,1,0-.36A.18.18,0,0,1,5,54.84Z"/><path class="cls-41" d="M6.74,54.93a.17.17,0,0,1-.18.17.17.17,0,0,1-.17-.17.18.18,0,0,1,.17-.18A.18.18,0,0,1,6.74,54.93Z"/><path class="cls-41" d="M8.45,55.06a.18.18,0,1,1-.18-.18A.18.18,0,0,1,8.45,55.06Z"/><path class="cls-41" d="M10.15,55a.18.18,0,0,1-.18.17A.18.18,0,0,1,9.8,55a.18.18,0,0,1,.17-.18A.18.18,0,0,1,10.15,55Z"/><path class="cls-41" d="M11.86,55.21a.18.18,0,0,1-.36,0,.18.18,0,0,1,.36,0Z"/><path class="cls-41" d="M32.21,54.66a.18.18,0,0,0,.18.18.18.18,0,0,0,0-.36A.18.18,0,0,0,32.21,54.66Z"/><path class="cls-41" d="M30.51,54.84a.17.17,0,0,0,.17.18.18.18,0,1,0,0-.36A.17.17,0,0,0,30.51,54.84Z"/><path class="cls-41" d="M28.8,54.93a.17.17,0,0,0,.18.17.17.17,0,0,0,.17-.17.18.18,0,0,0-.17-.18A.18.18,0,0,0,28.8,54.93Z"/><path class="cls-41" d="M27.09,55.06a.18.18,0,1,0,.18-.18A.18.18,0,0,0,27.09,55.06Z"/><path class="cls-41" d="M25.39,55a.18.18,0,0,0,.17.17.18.18,0,0,0,.18-.17.18.18,0,0,0-.18-.18A.18.18,0,0,0,25.39,55Z"/><path class="cls-41" d="M23.68,55.21a.18.18,0,0,0,.18.18.17.17,0,0,0,.17-.18.17.17,0,0,0-.17-.17A.18.18,0,0,0,23.68,55.21Z"/></g></g></svg>