<svg id="OBJECTS" xmlns="http://www.w3.org/2000/svg" viewBox="0 0 102.63 197.32"><defs><style>.cls-1{fill:#476d78;}.cls-2{fill:#a6d2d5;}.cls-3{fill:#dbb244;}.cls-4{fill:#bf9d41;}.cls-5{fill:#83bcbf;}.cls-6{fill:#f2ca61;}.cls-7{fill:#fff;}.cls-8{fill:#383838;}.cls-9{fill:#6e6e6e;}.cls-10{fill:#ededed;}.cls-11{fill:#d0f0f2;}</style></defs><title>skull</title><path class="cls-1" d="M653,171.08S595,185.85,602.39,273c0,0,9.46-7.09,13.15,5.54,0,0,4.13-3.86,9.32-3.86,8,0,8.76,7.78,8.76,7.78s.74-7.09,8.9-7.09S653,280.73,653,280.73s2.36-5.38,10.53-5.38,8.9,7.09,8.9,7.09.71-7.78,8.76-7.78c5.2,0,9.32,3.86,9.32,3.86,3.7-12.63,13.15-5.54,13.15-5.54C711.14,185.85,653,171.08,653,171.08Z" transform="translate(-601.73 -100.32)"/><path class="cls-2" d="M690.55,244.14s-2.14,19-23.09,40.36c0,0,4.17,7.8,18.31,2.46a15.42,15.42,0,0,1,.67,10.68s-17.29-1.64-22.86-12.73c0,0,8.73-17.62-10.54-17.62h0c-19.27,0-10.54,17.62-10.54,17.62C637,296,619.67,297.64,619.67,297.64a15.42,15.42,0,0,1,.67-10.68c14.14,5.34,18.31-2.46,18.31-2.46-20.95-21.36-23.1-40.36-23.1-40.36Z" transform="translate(-601.73 -100.32)"/><path class="cls-1" d="M700.4,145c-18.42,25.39-46.61,12.12-46.61,12.12l-.09-.32s-28.19,13.27-46.61-12.12c0,0-.39,47.82,46.14,47.82l1,.32C700.79,192.83,700.4,145,700.4,145Z" transform="translate(-601.73 -100.32)"/><path class="cls-3" d="M653.06,267.3c16.69,0,39.89-10,37.3-28.15q-2.11-14.75-4.74-27.49c-8.87-43.19-21.84-64.05-32.56-64.05s-23.69,20.87-32.56,64.05q-2.61,12.72-4.74,27.49c-2.59,18.13,18.19,28.15,37.3,28.15Z" transform="translate(-601.73 -100.32)"/><path class="cls-4" d="M690.35,239.15c-.29-2-.59-4-.9-6a204.62,204.62,0,0,1-36.39,3.4,217.08,217.08,0,0,1-36.47-3c-.29,1.86-.57,3.73-.84,5.64a20.13,20.13,0,0,0,.09,6.49c5.66,10.81,21.94,16.64,37.21,16.64,13.57,0,31.24-6,37.2-17.21A18.51,18.51,0,0,0,690.35,239.15Z" transform="translate(-601.73 -100.32)"/><path class="cls-5" d="M690.14,237.69a186,186,0,0,1-37.07,3.86,195.61,195.61,0,0,1-37.15-3.45l-.15,1.05c-2.59,18.13,18.19,28.15,37.3,28.15,16.69,0,39.89-10,37.3-28.15C690.28,238.66,690.21,238.17,690.14,237.69Z" transform="translate(-601.73 -100.32)"/><path class="cls-2" d="M653.07,247.65a195.28,195.28,0,0,1-37.42-3.51c1.51,15,20.14,23.15,37.41,23.15,15.23,0,35.86-8.34,37.39-23.57A185.81,185.81,0,0,1,653.07,247.65Z" transform="translate(-601.73 -100.32)"/><path class="cls-6" d="M658.28,201.27s-4.32-1.58-6.43,1-4.49,5.57-4.49,5.57l-.31,4.49,1.61-1.88S654.29,202.26,658.28,201.27Z" transform="translate(-601.73 -100.32)"/><path class="cls-6" d="M645.92,207.55a6.37,6.37,0,0,1,2.6-4.8s-.77,3.9.82,5.28C649.34,208,646.28,212.72,645.92,207.55Z" transform="translate(-601.73 -100.32)"/><path class="cls-6" d="M646.44,208.43s2-7,7.18-6.12c0,0-5.41,5.4-5.18,9.12C648.43,211.43,644.65,212,646.44,208.43Z" transform="translate(-601.73 -100.32)"/><path class="cls-6" d="M647.28,201.27s4.32-1.58,6.43,1,4.49,5.57,4.49,5.57l.31,4.49-1.61-1.88S651.26,202.26,647.28,201.27Z" transform="translate(-601.73 -100.32)"/><path class="cls-6" d="M659.64,207.55a6.37,6.37,0,0,0-2.6-4.8s.77,3.9-.82,5.28C656.21,208,659.27,212.72,659.64,207.55Z" transform="translate(-601.73 -100.32)"/><path class="cls-6" d="M659.12,208.43s-2-7-7.18-6.12c0,0,5.41,5.4,5.18,9.12C657.12,211.43,660.9,212,659.12,208.43Z" transform="translate(-601.73 -100.32)"/><path class="cls-6" d="M629.66,169.51l-1.34,12.41s7.8,4.15,24.43,4.15,25.27-3.5,25.27-3.5l-3.85-16.65Z" transform="translate(-601.73 -100.32)"/><path class="cls-6" d="M645.64,208c-33.73-4.82-14.21-24.79-14.21-24.79,0-12.61-.29-16.53-.29-16.53s-14.51,12-21,24.27c-8.26,15.66,12.85,24.63,35.47,23.19,0,0,6.25-.16,3-6Z" transform="translate(-601.73 -100.32)"/><path class="cls-6" d="M659.92,208c33.73-4.82,12.06-23.71,12.06-23.71a20.59,20.59,0,0,0,2.19-18.32s14.76,12.72,21.22,25c8.26,15.66-12.85,24.63-35.47,23.19,0,0-6.25-.16-3-6Z" transform="translate(-601.73 -100.32)"/><path class="cls-6" d="M629.66,169.51l-1.34,12.41s7.8,4.15,24.43,4.15,25.27-3.5,25.27-3.5l-3.85-16.65Z" transform="translate(-601.73 -100.32)"/><path class="cls-3" d="M679.52,170.94c-3.52,1.48-11.85,4-26.82,4-15.15,0-22.61-3-25.6-4.74-1.33,1.25-2.9,2.77-4.57,4.5,2.46,2.06,10.47,7,30.1,7,18.91,0,28.32-4,31.61-5.85C682.57,174,681,172.36,679.52,170.94Z" transform="translate(-601.73 -100.32)"/><circle class="cls-4" cx="51.43" cy="77.95" r="5.89"/><path class="cls-6" d="M649.57,177.53l2.86-2.85A3.67,3.67,0,0,0,649.57,177.53Z" transform="translate(-601.73 -100.32)"/><path class="cls-6" d="M653.78,174.67l-4.23,4.2a3.65,3.65,0,0,0,.62,1.5l5.08-5.08A3.65,3.65,0,0,0,653.78,174.67Z" transform="translate(-601.73 -100.32)"/><path class="cls-6" d="M656.82,178.06,653,181.93l.21,0a3.67,3.67,0,0,0,3.67-3.67C656.83,178.21,656.82,178.14,656.82,178.06Z" transform="translate(-601.73 -100.32)"/><path class="cls-6" d="M656,175.91l-5.16,5.16a3.65,3.65,0,0,0,1.05.63l4.74-4.74A3.65,3.65,0,0,0,656,175.91Z" transform="translate(-601.73 -100.32)"/><circle class="cls-2" cx="51" cy="38.44" r="38.44"/><path class="cls-5" d="M652.73,150.5c-11.06,0-21,3.41-27.87,8.84,5.66,7.84,16,13.1,27.87,13.1s22.22-5.26,27.87-13.1C673.73,153.91,663.79,150.5,652.73,150.5Z" transform="translate(-601.73 -100.32)"/><path class="cls-7" d="M677.08,136.17a24,24,0,1,0-36.36,20.61l1.2,9.74,4,1.17,1-5,2,7.55h2l2-5.06,2,5.89h2.86l2-6.72,1,5,4-1.17,1.5-12.12A24,24,0,0,0,677.08,136.17Z" transform="translate(-601.73 -100.32)"/><path class="cls-8" d="M641.4,139.28a7.77,7.77,0,0,1,6.35,3.29,7.78,7.78,0,1,0-12.7,0A7.77,7.77,0,0,1,641.4,139.28Z" transform="translate(-601.73 -100.32)"/><path class="cls-9" d="M641.4,134.72a7.79,7.79,0,0,0-7.45,5.55,7.79,7.79,0,0,0,1.11,2.3,7.77,7.77,0,0,1,12.7,0,7.8,7.8,0,0,0,1.11-2.3A7.79,7.79,0,0,0,641.4,134.72Z" transform="translate(-601.73 -100.32)"/><path class="cls-8" d="M664.52,139.28a7.77,7.77,0,0,1,6.35,3.29,7.78,7.78,0,1,0-12.7,0A7.77,7.77,0,0,1,664.52,139.28Z" transform="translate(-601.73 -100.32)"/><path class="cls-9" d="M664.52,134.72a7.79,7.79,0,0,0-7.45,5.55,7.79,7.79,0,0,0,1.11,2.3,7.77,7.77,0,0,1,12.7,0,7.79,7.79,0,0,0,1.11-2.3A7.79,7.79,0,0,0,664.52,134.72Z" transform="translate(-601.73 -100.32)"/><path class="cls-8" d="M653.06,141.61s-5.93,7.84-4.95,9.41c1.77,2.84,4.95-1.87,4.95-1.87s1.38,4.2,3.68,3.54C659.82,151.81,653.06,141.61,653.06,141.61Z" transform="translate(-601.73 -100.32)"/><path class="cls-10" d="M653.06,112.14c-.45,0-.9,0-1.35,0,.23,4.58.75,7.78,1.35,7.78s1.12-3.2,1.35-7.78C654,112.16,653.51,112.14,653.06,112.14Z" transform="translate(-601.73 -100.32)"/><ellipse class="cls-10" cx="660.21" cy="121.47" rx="3.95" ry="1.17" transform="translate(-291.32 594.09) rotate(-69.02)"/><path class="cls-10" d="M668.14,117.47a11.23,11.23,0,0,0-1,2.08c-.78,2-.93,3.87-.32,4.1s1.72-1.23,2.5-3.27a12.46,12.46,0,0,0,.47-1.48Q669,118.15,668.14,117.47Z" transform="translate(-601.73 -100.32)"/><path class="cls-11" d="M655.26,102.57a39,39,0,0,0-7.33.69,2.83,2.83,0,1,0,1.06,5.55,33.4,33.4,0,0,1,6.26-.59,2.83,2.83,0,0,0,0-5.65Z" transform="translate(-601.73 -100.32)"/><path class="cls-11" d="M638.46,106.39a39.23,39.23,0,0,0-17.83,17.72,2.83,2.83,0,1,0,5.05,2.53,33.55,33.55,0,0,1,15.23-15.17,2.83,2.83,0,0,0-2.46-5.09Z" transform="translate(-601.73 -100.32)"/><path class="cls-11" d="M620.32,132.69a2.83,2.83,0,0,0-3.26,2.32c-.17,1-.31,2.09-.4,3.14a2.83,2.83,0,0,0,2.58,3.06h.24a2.83,2.83,0,0,0,2.81-2.59c.08-.89.19-1.79.34-2.67A2.83,2.83,0,0,0,620.32,132.69Z" transform="translate(-601.73 -100.32)"/></svg>