<svg id="圖層_1" data-name="圖層 1" xmlns="http://www.w3.org/2000/svg" viewBox="0 0 98 107.63"><defs><style>.cls-1{fill:#b39725;}.cls-2{fill:#f0ca31;}.cls-3{fill:#3f656c;}.cls-4{fill:#ece4c7;}</style></defs><title>testbook</title><path class="cls-1" d="M97.49,74.48a7.59,7.59,0,0,1-4.32,9.83l-38.64,15A7.59,7.59,0,0,1,44.7,95L18.26,27.11a7.59,7.59,0,0,1,4.32-9.83l38.64-15A7.59,7.59,0,0,1,71,6.56Z"/><rect class="cls-1" x="16.52" y="18.5" width="22.4" height="88.06" transform="translate(-20.8 14.31) rotate(-21.27)"/><path class="cls-2" d="M92,72.75a7.59,7.59,0,0,1-4.32,9.83L49,97.62A7.59,7.59,0,0,1,39.2,93.3L12.76,25.39a7.59,7.59,0,0,1,4.32-9.83L55.72.52a7.59,7.59,0,0,1,9.83,4.32Z"/><rect class="cls-3" x="15.36" y="15.96" width="17.9" height="88.06" transform="translate(-20.1 12.9) rotate(-21.27)"/><rect class="cls-4" x="32.06" y="20.1" width="34.15" height="20.7" transform="matrix(0.93, -0.36, 0.36, 0.93, -7.7, 19.9)"/><rect class="cls-3" x="33.55" y="24.07" width="27.21" height="2.58" transform="translate(-5.99 18.83) rotate(-21.27)"/><rect class="cls-3" x="35.53" y="29.16" width="27.21" height="2.58" transform="translate(-7.7 19.9) rotate(-21.27)"/><rect class="cls-3" x="37.51" y="34.25" width="27.21" height="2.58" transform="translate(-9.41 20.96) rotate(-21.27)"/></svg>