<?xml version="1.0" encoding="utf-8"?>
<!-- Generator: Adobe Illustrator 21.1.0, SVG Export Plug-In . SVG Version: 6.00 Build 0)  -->
<svg version="1.1" id="OBJECTS" xmlns="http://www.w3.org/2000/svg" xmlns:xlink="http://www.w3.org/1999/xlink" x="0px" y="0px"
	 viewBox="0 0 500 500" style="enable-background:new 0 0 500 500;" xml:space="preserve">
<style type="text/css">
	.st0{fill:#B39725;}
	.st1{fill:#F0CA31;}
	.st2{fill:#3F656C;}
	.st3{fill:#ECE4C7;}
	.st4{fill:none;}
</style>
<g>
	<g>
		<path class="st0" d="M-62.5,63.4c1.5,3.9-0.4,8.3-4.3,9.8l-38.6,15c-3.9,1.5-8.3-0.4-9.8-4.3L-141.7,16c-1.5-3.9,0.4-8.3,4.3-9.8
			l38.6-15c3.9-1.5,8.3,0.4,9.8,4.3L-62.5,63.4z"/>
		
			<rect x="-143.4" y="7.4" transform="matrix(0.9319 -0.3627 0.3627 0.9319 -27.6625 -44.4622)" class="st0" width="22.4" height="88.1"/>
	</g>
	<g>
		<path class="st1" d="M-68,61.7c1.5,3.9-0.4,8.3-4.3,9.8l-38.6,15c-3.9,1.5-8.3-0.4-9.8-4.3l-26.4-67.9c-1.5-3.9,0.4-8.3,4.3-9.8
			l38.6-15c3.9-1.5,8.3,0.4,9.8,4.3L-68,61.7z"/>
		
			<rect x="-144.6" y="4.9" transform="matrix(0.9319 -0.3627 0.3627 0.9319 -26.9699 -45.8653)" class="st2" width="17.9" height="88.1"/>
	</g>
	<g>
		
			<rect x="-127.9" y="9" transform="matrix(0.9319 -0.3627 0.3627 0.9319 -14.5642 -38.8765)" class="st3" width="34.1" height="20.7"/>
		<g>
			
				<rect x="-126.4" y="13" transform="matrix(0.9319 -0.3628 0.3628 0.9319 -12.8547 -39.9453)" class="st2" width="27.2" height="2.6"/>
			
				<rect x="-124.4" y="18.1" transform="matrix(0.9319 -0.3627 0.3627 0.9319 -14.5649 -38.8777)" class="st2" width="27.2" height="2.6"/>
			
				<rect x="-122.4" y="23.1" transform="matrix(0.9319 -0.3628 0.3628 0.9319 -16.2773 -37.8143)" class="st2" width="27.2" height="2.6"/>
		</g>
	</g>
</g>
<rect id="_x3C_切片_x3E_" x="-160" y="-12" class="st4" width="99" height="109"/>
</svg>
