<svg id="OBJECTS" xmlns="http://www.w3.org/2000/svg" viewBox="0 0 91.64 119.89"><defs><style>.cls-1{fill:#da6a92;}.cls-2{fill:#e5a3bd;}.cls-3{fill:#df86a7;}.cls-4{fill:#edc1d2;}.cls-5,.cls-6{fill:#3f656c;}.cls-6{opacity:0.6;}</style></defs><title>textpink</title><rect class="cls-1" x="-509.8" y="417.22" width="90.79" height="65.66" transform="translate(-246.88 -509.25) rotate(-72.92)"/><rect class="cls-2" x="-510.54" y="412.8" width="90.79" height="65.66" transform="translate(-243.18 -513.07) rotate(-72.92)"/><rect class="cls-3" x="-510.57" y="409.35" width="88.79" height="65.66" transform="translate(-240.61 -516.5) rotate(-72.92)"/><rect class="cls-4" x="-510.6" y="405.89" width="86.79" height="65.66" transform="translate(-238.02 -519.93) rotate(-72.92)"/><path class="cls-5" d="M-476.18,395.31a2.67,2.67,0,0,1-3.33,1.77h0a2.67,2.67,0,0,1-1.77-3.33l2.66-8.67a2.67,2.67,0,0,1,3.33-1.77h0a2.67,2.67,0,0,1,1.77,3.33Z" transform="translate(511.33 -383.19)"/><path class="cls-5" d="M-467,398.13a2.67,2.67,0,0,1-3.33,1.76h0a2.67,2.67,0,0,1-1.77-3.33l2.66-8.67a2.67,2.67,0,0,1,3.33-1.77h0a2.67,2.67,0,0,1,1.77,3.33Z" transform="translate(511.33 -383.19)"/><path class="cls-5" d="M-457.83,400.95a2.67,2.67,0,0,1-3.33,1.77h0a2.67,2.67,0,0,1-1.77-3.33l2.66-8.67a2.67,2.67,0,0,1,3.33-1.77h0a2.67,2.67,0,0,1,1.77,3.33Z" transform="translate(511.33 -383.19)"/><path class="cls-5" d="M-448.65,403.77a2.67,2.67,0,0,1-3.33,1.77h0a2.67,2.67,0,0,1-1.77-3.33l2.66-8.67a2.67,2.67,0,0,1,3.33-1.77h0A2.67,2.67,0,0,1-446,395.1Z" transform="translate(511.33 -383.19)"/><path class="cls-5" d="M-439.48,406.59a2.67,2.67,0,0,1-3.33,1.77h0a2.67,2.67,0,0,1-1.77-3.33l2.66-8.67a2.67,2.67,0,0,1,3.33-1.77h0a2.67,2.67,0,0,1,1.77,3.33Z" transform="translate(511.33 -383.19)"/><path class="cls-5" d="M-430.3,409.41a2.67,2.67,0,0,1-3.33,1.77h0a2.67,2.67,0,0,1-1.77-3.33l2.66-8.67a2.67,2.67,0,0,1,3.33-1.77h0a2.67,2.67,0,0,1,1.77,3.33Z" transform="translate(511.33 -383.19)"/><path class="cls-6" d="M-433.94,421.25a1.12,1.12,0,0,1-1.44.6l-48.68-15a1.11,1.11,0,0,1-.86-1.31h0a1.12,1.12,0,0,1,1.44-.6l48.68,15a1.12,1.12,0,0,1,.86,1.31Z" transform="translate(511.33 -383.19)"/><path class="cls-6" d="M-435.58,426.6a1.11,1.11,0,0,1-1.44.6l-48.69-15a1.12,1.12,0,0,1-.86-1.31h0a1.12,1.12,0,0,1,1.44-.6l48.68,15a1.11,1.11,0,0,1,.86,1.31Z" transform="translate(511.33 -383.19)"/><path class="cls-6" d="M-437.23,432a1.11,1.11,0,0,1-1.44.6l-48.68-15a1.12,1.12,0,0,1-.86-1.31h0a1.11,1.11,0,0,1,1.44-.6l48.68,15a1.11,1.11,0,0,1,.85,1.31Z" transform="translate(511.33 -383.19)"/><path class="cls-6" d="M-438.87,437.31a1.11,1.11,0,0,1-1.44.6L-489,423a1.11,1.11,0,0,1-.86-1.31h0a1.12,1.12,0,0,1,1.44-.6l48.68,15a1.11,1.11,0,0,1,.85,1.31Z" transform="translate(511.33 -383.19)"/><path class="cls-6" d="M-440.52,442.66a1.12,1.12,0,0,1-1.44.6l-48.68-15a1.12,1.12,0,0,1-.86-1.31h0a1.12,1.12,0,0,1,1.44-.6l48.68,15a1.12,1.12,0,0,1,.86,1.31Z" transform="translate(511.33 -383.19)"/><path class="cls-6" d="M-442.16,448a1.12,1.12,0,0,1-1.44.6l-48.68-15a1.12,1.12,0,0,1-.86-1.31h0a1.11,1.11,0,0,1,1.44-.6l48.68,15a1.12,1.12,0,0,1,.86,1.31Z" transform="translate(511.33 -383.19)"/><path class="cls-6" d="M-445.28,458.15a1.11,1.11,0,0,1-1.44.6l-48.68-15a1.12,1.12,0,0,1-.86-1.31h0a1.11,1.11,0,0,1,1.44-.6l48.68,15a1.12,1.12,0,0,1,.86,1.31Z" transform="translate(511.33 -383.19)"/><path class="cls-6" d="M-446.92,463.5a1.11,1.11,0,0,1-1.44.6l-48.68-15a1.12,1.12,0,0,1-.86-1.31h0a1.11,1.11,0,0,1,1.44-.6l48.68,15a1.12,1.12,0,0,1,.86,1.31Z" transform="translate(511.33 -383.19)"/><path class="cls-6" d="M-448.56,468.85a1.12,1.12,0,0,1-1.44.6l-48.68-15a1.12,1.12,0,0,1-.86-1.31h0a1.12,1.12,0,0,1,1.44-.6l48.68,15a1.12,1.12,0,0,1,.86,1.31Z" transform="translate(511.33 -383.19)"/><path class="cls-6" d="M-450.21,474.21a1.12,1.12,0,0,1-1.44.6l-48.68-15a1.12,1.12,0,0,1-.86-1.31h0a1.12,1.12,0,0,1,1.44-.6l48.68,15a1.11,1.11,0,0,1,.86,1.31Z" transform="translate(511.33 -383.19)"/><path class="cls-6" d="M-451.86,479.56a1.11,1.11,0,0,1-1.44.6l-48.68-15a1.12,1.12,0,0,1-.86-1.31h0a1.11,1.11,0,0,1,1.44-.6l48.69,15a1.11,1.11,0,0,1,.85,1.31Z" transform="translate(511.33 -383.19)"/></svg>