<svg xmlns="http://www.w3.org/2000/svg" xmlns:xlink="http://www.w3.org/1999/xlink" viewBox="0 0 133.96 73.88"><defs><style>.cls-1,.cls-3,.cls-4,.cls-5,.cls-7{fill:none;}.cls-2{isolation:isolate;}.cls-3{stroke:#ffcba1;}.cls-3,.cls-4{stroke-width:0.78px;}.cls-100,.cls-101,.cls-102,.cls-103,.cls-104,.cls-105,.cls-106,.cls-107,.cls-108,.cls-109,.cls-110,.cls-111,.cls-112,.cls-113,.cls-114,.cls-115,.cls-116,.cls-117,.cls-118,.cls-119,.cls-120,.cls-121,.cls-122,.cls-123,.cls-124,.cls-125,.cls-126,.cls-127,.cls-128,.cls-129,.cls-130,.cls-131,.cls-132,.cls-133,.cls-134,.cls-135,.cls-136,.cls-137,.cls-140,.cls-142,.cls-18,.cls-19,.cls-20,.cls-21,.cls-22,.cls-23,.cls-24,.cls-25,.cls-26,.cls-27,.cls-28,.cls-29,.cls-3,.cls-30,.cls-31,.cls-32,.cls-33,.cls-34,.cls-35,.cls-36,.cls-37,.cls-38,.cls-39,.cls-40,.cls-41,.cls-42,.cls-43,.cls-44,.cls-45,.cls-46,.cls-47,.cls-48,.cls-49,.cls-50,.cls-51,.cls-52,.cls-53,.cls-54,.cls-55,.cls-56,.cls-57,.cls-58,.cls-59,.cls-60,.cls-61,.cls-62,.cls-63,.cls-64,.cls-65,.cls-66,.cls-67,.cls-68,.cls-69,.cls-70,.cls-71,.cls-72,.cls-73,.cls-74,.cls-75,.cls-76,.cls-77,.cls-78,.cls-79,.cls-80,.cls-81,.cls-82,.cls-83,.cls-84,.cls-85,.cls-86,.cls-87,.cls-88,.cls-89,.cls-90,.cls-91,.cls-92,.cls-93,.cls-94,.cls-95,.cls-96,.cls-97,.cls-98,.cls-99{mix-blend-mode:multiply;}.cls-4{stroke:#562a09;}.cls-4,.cls-5{stroke-linecap:round;stroke-linejoin:round;}.cls-5{stroke:#9b592c;stroke-width:0.39px;}.cls-6,.cls-7{stroke:#331a04;}.cls-10,.cls-11,.cls-12,.cls-13,.cls-14,.cls-15,.cls-16,.cls-17,.cls-6,.cls-7,.cls-9{stroke-width:0.1px;}.cls-6{fill:url(#linear-gradient);}.cls-8{clip-path:url(#clip-path);}.cls-10,.cls-11,.cls-12,.cls-13,.cls-14,.cls-15,.cls-16,.cls-17,.cls-9{stroke:#512f0b;}.cls-24,.cls-9{fill:url(#linear-gradient-2);}.cls-10,.cls-23{fill:url(#linear-gradient-3);}.cls-11,.cls-22{fill:url(#linear-gradient-4);}.cls-12,.cls-26{fill:url(#linear-gradient-5);}.cls-13,.cls-25{fill:url(#linear-gradient-6);}.cls-14,.cls-20{fill:url(#linear-gradient-7);}.cls-15,.cls-21{fill:url(#linear-gradient-8);}.cls-16,.cls-18{fill:url(#linear-gradient-9);}.cls-17,.cls-19{fill:url(#linear-gradient-10);}.cls-18,.cls-19,.cls-20,.cls-21,.cls-22,.cls-23,.cls-24,.cls-25,.cls-26{opacity:0.3;}.cls-100,.cls-101,.cls-102,.cls-103,.cls-104,.cls-105,.cls-106,.cls-107,.cls-108,.cls-109,.cls-110,.cls-111,.cls-112,.cls-113,.cls-114,.cls-115,.cls-116,.cls-117,.cls-118,.cls-119,.cls-120,.cls-121,.cls-122,.cls-123,.cls-124,.cls-125,.cls-126,.cls-127,.cls-128,.cls-129,.cls-130,.cls-131,.cls-132,.cls-133,.cls-134,.cls-135,.cls-136,.cls-27,.cls-28,.cls-29,.cls-30,.cls-31,.cls-32,.cls-33,.cls-34,.cls-35,.cls-36,.cls-37,.cls-38,.cls-39,.cls-40,.cls-41,.cls-42,.cls-43,.cls-44,.cls-45,.cls-46,.cls-47,.cls-48,.cls-49,.cls-50,.cls-51,.cls-52,.cls-53,.cls-54,.cls-55,.cls-56,.cls-57,.cls-58,.cls-59,.cls-60,.cls-61,.cls-62,.cls-63,.cls-64,.cls-65,.cls-66,.cls-67,.cls-68,.cls-69,.cls-70,.cls-71,.cls-72,.cls-73,.cls-74,.cls-75,.cls-76,.cls-77,.cls-78,.cls-79,.cls-80,.cls-81,.cls-82,.cls-83,.cls-84,.cls-85,.cls-86,.cls-87,.cls-88,.cls-89,.cls-90,.cls-91,.cls-92,.cls-93,.cls-94,.cls-95,.cls-96,.cls-97,.cls-98,.cls-99{opacity:0.5;}.cls-27{fill:url(#linear-gradient-20);}.cls-28{fill:url(#linear-gradient-21);}.cls-29{fill:url(#linear-gradient-22);}.cls-30{fill:url(#linear-gradient-23);}.cls-31{fill:url(#linear-gradient-24);}.cls-32{fill:url(#linear-gradient-25);}.cls-33{fill:url(#linear-gradient-26);}.cls-34{fill:url(#linear-gradient-27);}.cls-35{fill:url(#linear-gradient-28);}.cls-36{fill:url(#linear-gradient-29);}.cls-37{fill:url(#linear-gradient-30);}.cls-38{fill:url(#linear-gradient-31);}.cls-39{fill:url(#linear-gradient-32);}.cls-40{fill:url(#linear-gradient-33);}.cls-41{fill:url(#linear-gradient-34);}.cls-42{fill:url(#linear-gradient-35);}.cls-43{fill:url(#linear-gradient-36);}.cls-44{fill:url(#linear-gradient-37);}.cls-45{fill:url(#linear-gradient-38);}.cls-46{fill:url(#linear-gradient-39);}.cls-47{fill:url(#linear-gradient-40);}.cls-48{fill:url(#linear-gradient-41);}.cls-49{fill:url(#linear-gradient-42);}.cls-50{fill:url(#linear-gradient-43);}.cls-51{fill:url(#linear-gradient-44);}.cls-52{fill:url(#linear-gradient-45);}.cls-53{fill:url(#linear-gradient-46);}.cls-54{fill:url(#linear-gradient-47);}.cls-55{fill:url(#linear-gradient-48);}.cls-56{fill:url(#linear-gradient-49);}.cls-57{fill:url(#linear-gradient-50);}.cls-58{fill:url(#linear-gradient-51);}.cls-59{fill:url(#linear-gradient-52);}.cls-60{fill:url(#linear-gradient-53);}.cls-61{fill:url(#linear-gradient-54);}.cls-62{fill:url(#linear-gradient-55);}.cls-63{fill:url(#linear-gradient-56);}.cls-64{fill:url(#linear-gradient-57);}.cls-65{fill:url(#linear-gradient-58);}.cls-66{fill:url(#linear-gradient-59);}.cls-67{fill:url(#linear-gradient-60);}.cls-68{fill:url(#linear-gradient-61);}.cls-69{fill:url(#linear-gradient-62);}.cls-70{fill:url(#linear-gradient-63);}.cls-71{fill:url(#linear-gradient-64);}.cls-72{fill:url(#linear-gradient-65);}.cls-73{fill:url(#linear-gradient-66);}.cls-74{fill:url(#linear-gradient-67);}.cls-75{fill:url(#linear-gradient-68);}.cls-76{fill:url(#linear-gradient-69);}.cls-77{fill:url(#linear-gradient-70);}.cls-78{fill:url(#linear-gradient-71);}.cls-79{fill:url(#linear-gradient-72);}.cls-80{fill:url(#linear-gradient-73);}.cls-81{fill:url(#linear-gradient-74);}.cls-82{fill:url(#linear-gradient-75);}.cls-83{fill:url(#linear-gradient-76);}.cls-84{fill:url(#linear-gradient-77);}.cls-85{fill:url(#linear-gradient-78);}.cls-86{fill:url(#linear-gradient-79);}.cls-87{fill:url(#linear-gradient-80);}.cls-88{fill:url(#linear-gradient-81);}.cls-89{fill:url(#linear-gradient-82);}.cls-90{fill:url(#linear-gradient-83);}.cls-91{fill:url(#linear-gradient-84);}.cls-92{fill:url(#linear-gradient-85);}.cls-93{fill:url(#linear-gradient-86);}.cls-94{fill:url(#linear-gradient-87);}.cls-95{fill:url(#linear-gradient-88);}.cls-96{fill:url(#linear-gradient-89);}.cls-97{fill:url(#linear-gradient-90);}.cls-98{fill:url(#linear-gradient-91);}.cls-99{fill:url(#linear-gradient-92);}.cls-100{fill:url(#linear-gradient-93);}.cls-101{fill:url(#linear-gradient-94);}.cls-102{fill:url(#linear-gradient-95);}.cls-103{fill:url(#linear-gradient-96);}.cls-104{fill:url(#linear-gradient-97);}.cls-105{fill:url(#linear-gradient-98);}.cls-106{fill:url(#linear-gradient-99);}.cls-107{fill:url(#linear-gradient-100);}.cls-108{fill:url(#linear-gradient-101);}.cls-109{fill:url(#linear-gradient-102);}.cls-110{fill:url(#linear-gradient-103);}.cls-111{fill:url(#linear-gradient-104);}.cls-112{fill:url(#linear-gradient-105);}.cls-113{fill:url(#linear-gradient-106);}.cls-114{fill:url(#linear-gradient-107);}.cls-115{fill:url(#linear-gradient-108);}.cls-116{fill:url(#linear-gradient-109);}.cls-117{fill:url(#linear-gradient-110);}.cls-118{fill:url(#linear-gradient-111);}.cls-119{fill:url(#linear-gradient-112);}.cls-120{fill:url(#linear-gradient-113);}.cls-121{fill:url(#linear-gradient-114);}.cls-122{fill:url(#linear-gradient-115);}.cls-123{fill:url(#linear-gradient-116);}.cls-124{fill:url(#linear-gradient-117);}.cls-125{fill:url(#linear-gradient-118);}.cls-126{fill:url(#linear-gradient-119);}.cls-127{fill:url(#linear-gradient-120);}.cls-128{fill:url(#linear-gradient-121);}.cls-129{fill:url(#linear-gradient-122);}.cls-130{fill:url(#linear-gradient-123);}.cls-131{fill:url(#linear-gradient-124);}.cls-132{fill:url(#linear-gradient-125);}.cls-133{fill:url(#linear-gradient-126);}.cls-134{fill:url(#linear-gradient-127);}.cls-135{fill:url(#linear-gradient-128);}.cls-136{fill:url(#linear-gradient-129);}.cls-137{opacity:0.7;fill:url(#linear-gradient-130);}.cls-138,.cls-139{stroke:#3f1d0a;stroke-width:0.2px;}.cls-138{fill:url(#linear-gradient-131);}.cls-139{fill:url(#linear-gradient-132);}.cls-140,.cls-144{fill:#989a9d;}.cls-140{opacity:0.62;}.cls-141{fill:#4e4f51;}.cls-142{fill:#292929;opacity:0.28;}.cls-143{fill:#4d4d4d;}.cls-145{fill:#7e8081;}.cls-146{fill:#b2b4b7;opacity:0.74;}</style><linearGradient id="linear-gradient" x1="71.3" y1="112.54" x2="71.3" y2="-209.33" gradientUnits="userSpaceOnUse"><stop offset="0" stop-color="#582300"/><stop offset="1" stop-color="#b16a0f"/></linearGradient><clipPath id="clip-path" transform="translate(187.71 143.15)"><rect class="cls-1" x="-178.86" y="-105.63" width="123.32" height="34.91"/></clipPath><linearGradient id="linear-gradient-2" x1="67.6" y1="73.94" x2="67.6" y2="11.1" gradientUnits="userSpaceOnUse"><stop offset="0" stop-color="#9f5500"/><stop offset="1" stop-color="#d08a51"/></linearGradient><linearGradient id="linear-gradient-3" x1="67.6" y1="73.94" x2="67.6" y2="11.1" xlink:href="#linear-gradient-2"/><linearGradient id="linear-gradient-4" x1="67.6" y1="73.94" x2="67.6" y2="11.1" xlink:href="#linear-gradient-2"/><linearGradient id="linear-gradient-5" x1="67.6" y1="73.94" x2="67.6" y2="11.11" xlink:href="#linear-gradient-2"/><linearGradient id="linear-gradient-6" x1="67.6" y1="73.94" x2="67.6" y2="11.1" xlink:href="#linear-gradient-2"/><linearGradient id="linear-gradient-7" x1="67.6" y1="73.94" x2="67.6" y2="11.1" xlink:href="#linear-gradient-2"/><linearGradient id="linear-gradient-8" x1="67.6" y1="73.94" x2="67.6" y2="11.1" xlink:href="#linear-gradient-2"/><linearGradient id="linear-gradient-9" x1="67.6" y1="73.93" x2="67.6" y2="11.1" xlink:href="#linear-gradient-2"/><linearGradient id="linear-gradient-10" x1="67.6" y1="73.94" x2="67.6" y2="11.1" xlink:href="#linear-gradient-2"/><linearGradient id="linear-gradient-20" x1="-163.48" y1="-130.46" x2="-163.48" y2="-133.61" xlink:href="#linear-gradient-2"/><linearGradient id="linear-gradient-21" x1="-106.34" y1="-130.05" x2="-106.34" y2="-134.82" xlink:href="#linear-gradient-2"/><linearGradient id="linear-gradient-22" x1="-159.39" y1="-122.19" x2="-159.39" y2="-126.39" xlink:href="#linear-gradient-2"/><linearGradient id="linear-gradient-23" x1="-115.45" y1="-128.07" x2="-115.45" y2="-129.5" xlink:href="#linear-gradient-2"/><linearGradient id="linear-gradient-24" x1="-85.01" y1="-123.94" x2="-85.01" y2="-125.37" xlink:href="#linear-gradient-2"/><linearGradient id="linear-gradient-25" x1="-160.77" y1="-119.92" x2="-160.77" y2="-121.35" xlink:href="#linear-gradient-2"/><linearGradient id="linear-gradient-26" x1="-160.51" y1="-123.74" x2="-160.51" y2="-125.17" xlink:href="#linear-gradient-2"/><linearGradient id="linear-gradient-27" x1="-100.96" y1="-122.84" x2="-100.96" y2="-124.26" xlink:href="#linear-gradient-2"/><linearGradient id="linear-gradient-28" x1="-159.18" y1="-125.76" x2="-159.18" y2="-127.18" xlink:href="#linear-gradient-2"/><linearGradient id="linear-gradient-29" x1="-70.57" y1="-129.16" x2="-70.57" y2="-133.45" xlink:href="#linear-gradient-2"/><linearGradient id="linear-gradient-30" x1="-64.59" y1="-121.91" x2="-64.59" y2="-126.2" xlink:href="#linear-gradient-2"/><linearGradient id="linear-gradient-31" x1="-170.24" y1="-127.54" x2="-170.24" y2="-134.72" xlink:href="#linear-gradient-2"/><linearGradient id="linear-gradient-32" x1="-76.95" y1="-126.61" x2="-76.95" y2="-129.92" xlink:href="#linear-gradient-2"/><linearGradient id="linear-gradient-33" x1="-81.07" y1="-119.26" x2="-81.07" y2="-122.57" xlink:href="#linear-gradient-2"/><linearGradient id="linear-gradient-34" x1="-125.2" y1="-124.09" x2="-125.2" y2="-127.4" xlink:href="#linear-gradient-2"/><linearGradient id="linear-gradient-35" x1="-92.48" y1="-122.05" x2="-92.48" y2="-127.17" xlink:href="#linear-gradient-2"/><linearGradient id="linear-gradient-36" x1="-113.68" y1="-120.74" x2="-113.68" y2="-124.78" xlink:href="#linear-gradient-2"/><linearGradient id="linear-gradient-37" x1="-65.92" y1="-120.59" x2="-65.92" y2="-122.48" xlink:href="#linear-gradient-2"/><linearGradient id="linear-gradient-38" x1="-148.65" y1="-129.06" x2="-148.65" y2="-133.4" xlink:href="#linear-gradient-2"/><linearGradient id="linear-gradient-39" x1="-102.1" y1="-129" x2="-102.1" y2="-131.74" xlink:href="#linear-gradient-2"/><linearGradient id="linear-gradient-40" x1="-169.09" y1="-129" x2="-169.09" y2="-131.74" xlink:href="#linear-gradient-2"/><linearGradient id="linear-gradient-41" x1="-172.81" y1="-120.54" x2="-172.81" y2="-123.29" xlink:href="#linear-gradient-2"/><linearGradient id="linear-gradient-42" x1="-174.48" y1="-121.64" x2="-174.48" y2="-124.39" xlink:href="#linear-gradient-2"/><linearGradient id="linear-gradient-43" x1="-74.25" y1="-119.83" x2="-74.25" y2="-122.59" xlink:href="#linear-gradient-2"/><linearGradient id="linear-gradient-44" x1="-134.88" y1="-126.77" x2="-134.88" y2="-129.41" xlink:href="#linear-gradient-2"/><linearGradient id="linear-gradient-45" x1="-163.48" y1="-116.86" x2="-163.48" y2="-120.01" xlink:href="#linear-gradient-2"/><linearGradient id="linear-gradient-46" x1="-106.34" y1="-116.46" x2="-106.34" y2="-121.23" xlink:href="#linear-gradient-2"/><linearGradient id="linear-gradient-47" x1="-159.39" y1="-108.59" x2="-159.39" y2="-112.8" xlink:href="#linear-gradient-2"/><linearGradient id="linear-gradient-48" x1="-115.45" y1="-114.48" x2="-115.45" y2="-115.91" xlink:href="#linear-gradient-2"/><linearGradient id="linear-gradient-49" x1="-85.01" y1="-110.35" x2="-85.01" y2="-111.78" xlink:href="#linear-gradient-2"/><linearGradient id="linear-gradient-50" x1="-160.77" y1="-106.32" x2="-160.77" y2="-107.74" xlink:href="#linear-gradient-2"/><linearGradient id="linear-gradient-51" x1="-160.51" y1="-110.15" x2="-160.51" y2="-111.58" xlink:href="#linear-gradient-2"/><linearGradient id="linear-gradient-52" x1="-100.96" y1="-109.24" x2="-100.96" y2="-110.67" xlink:href="#linear-gradient-2"/><linearGradient id="linear-gradient-53" x1="-159.18" y1="-112.16" x2="-159.18" y2="-113.59" xlink:href="#linear-gradient-2"/><linearGradient id="linear-gradient-54" x1="-70.57" y1="-115.56" x2="-70.57" y2="-119.85" xlink:href="#linear-gradient-2"/><linearGradient id="linear-gradient-55" x1="-64.59" y1="-108.31" x2="-64.59" y2="-112.6" xlink:href="#linear-gradient-2"/><linearGradient id="linear-gradient-56" x1="-170.24" y1="-113.94" x2="-170.24" y2="-121.13" xlink:href="#linear-gradient-2"/><linearGradient id="linear-gradient-57" x1="-76.95" y1="-113.01" x2="-76.95" y2="-116.33" xlink:href="#linear-gradient-2"/><linearGradient id="linear-gradient-58" x1="-81.07" y1="-105.66" x2="-81.07" y2="-108.98" xlink:href="#linear-gradient-2"/><linearGradient id="linear-gradient-59" x1="-125.2" y1="-110.5" x2="-125.2" y2="-113.81" xlink:href="#linear-gradient-2"/><linearGradient id="linear-gradient-60" x1="-92.48" y1="-108.46" x2="-92.48" y2="-113.58" xlink:href="#linear-gradient-2"/><linearGradient id="linear-gradient-61" x1="-113.68" y1="-107.15" x2="-113.68" y2="-111.18" xlink:href="#linear-gradient-2"/><linearGradient id="linear-gradient-62" x1="-65.92" y1="-106.99" x2="-65.92" y2="-108.88" xlink:href="#linear-gradient-2"/><linearGradient id="linear-gradient-63" x1="-148.65" y1="-115.46" x2="-148.65" y2="-119.8" xlink:href="#linear-gradient-2"/><linearGradient id="linear-gradient-64" x1="-102.1" y1="-115.4" x2="-102.1" y2="-118.16" xlink:href="#linear-gradient-2"/><linearGradient id="linear-gradient-65" x1="-169.09" y1="-115.4" x2="-169.09" y2="-118.16" xlink:href="#linear-gradient-2"/><linearGradient id="linear-gradient-66" x1="-172.81" y1="-106.94" x2="-172.81" y2="-109.7" xlink:href="#linear-gradient-2"/><linearGradient id="linear-gradient-67" x1="-174.48" y1="-108.05" x2="-174.48" y2="-110.8" xlink:href="#linear-gradient-2"/><linearGradient id="linear-gradient-68" x1="-74.25" y1="-106.24" x2="-74.25" y2="-109" xlink:href="#linear-gradient-2"/><linearGradient id="linear-gradient-69" x1="-134.88" y1="-113.18" x2="-134.88" y2="-115.81" xlink:href="#linear-gradient-2"/><linearGradient id="linear-gradient-70" x1="-163.48" y1="-103.57" x2="-163.48" y2="-106.71" xlink:href="#linear-gradient-2"/><linearGradient id="linear-gradient-71" x1="-106.34" y1="-103.17" x2="-106.34" y2="-107.93" xlink:href="#linear-gradient-2"/><linearGradient id="linear-gradient-72" x1="-159.39" y1="-95.3" x2="-159.39" y2="-99.5" xlink:href="#linear-gradient-2"/><linearGradient id="linear-gradient-73" x1="-115.45" y1="-101.19" x2="-115.45" y2="-102.61" xlink:href="#linear-gradient-2"/><linearGradient id="linear-gradient-74" x1="-85.01" y1="-97.06" x2="-85.01" y2="-98.49" xlink:href="#linear-gradient-2"/><linearGradient id="linear-gradient-75" x1="-160.77" y1="-93.03" x2="-160.77" y2="-94.46" xlink:href="#linear-gradient-2"/><linearGradient id="linear-gradient-76" x1="-160.51" y1="-96.85" x2="-160.51" y2="-98.29" xlink:href="#linear-gradient-2"/><linearGradient id="linear-gradient-77" x1="-100.96" y1="-95.95" x2="-100.96" y2="-97.38" xlink:href="#linear-gradient-2"/><linearGradient id="linear-gradient-78" x1="-159.18" y1="-98.87" x2="-159.18" y2="-100.3" xlink:href="#linear-gradient-2"/><linearGradient id="linear-gradient-79" x1="-70.57" y1="-102.27" x2="-70.57" y2="-106.56" xlink:href="#linear-gradient-2"/><linearGradient id="linear-gradient-80" x1="-64.59" y1="-95.02" x2="-64.59" y2="-99.31" xlink:href="#linear-gradient-2"/><linearGradient id="linear-gradient-81" x1="-170.24" y1="-100.65" x2="-170.24" y2="-107.83" xlink:href="#linear-gradient-2"/><linearGradient id="linear-gradient-82" x1="-76.95" y1="-99.72" x2="-76.95" y2="-103.03" xlink:href="#linear-gradient-2"/><linearGradient id="linear-gradient-83" x1="-81.07" y1="-92.37" x2="-81.07" y2="-95.68" xlink:href="#linear-gradient-2"/><linearGradient id="linear-gradient-84" x1="-125.2" y1="-97.2" x2="-125.2" y2="-100.52" xlink:href="#linear-gradient-2"/><linearGradient id="linear-gradient-85" x1="-92.48" y1="-95.17" x2="-92.48" y2="-100.28" xlink:href="#linear-gradient-2"/><linearGradient id="linear-gradient-86" x1="-113.68" y1="-93.85" x2="-113.68" y2="-97.89" xlink:href="#linear-gradient-2"/><linearGradient id="linear-gradient-87" x1="-65.92" y1="-93.7" x2="-65.92" y2="-95.59" xlink:href="#linear-gradient-2"/><linearGradient id="linear-gradient-88" x1="-148.65" y1="-102.17" x2="-148.65" y2="-106.51" xlink:href="#linear-gradient-2"/><linearGradient id="linear-gradient-89" x1="-102.1" y1="-102.11" x2="-102.1" y2="-104.87" xlink:href="#linear-gradient-2"/><linearGradient id="linear-gradient-90" x1="-169.09" y1="-102.11" x2="-169.09" y2="-104.87" xlink:href="#linear-gradient-2"/><linearGradient id="linear-gradient-91" x1="-172.81" y1="-93.65" x2="-172.81" y2="-96.4" xlink:href="#linear-gradient-2"/><linearGradient id="linear-gradient-92" x1="-174.48" y1="-94.76" x2="-174.48" y2="-97.5" xlink:href="#linear-gradient-2"/><linearGradient id="linear-gradient-93" x1="-74.25" y1="-92.94" x2="-74.25" y2="-95.7" xlink:href="#linear-gradient-2"/><linearGradient id="linear-gradient-94" x1="-134.88" y1="-99.89" x2="-134.88" y2="-102.52" xlink:href="#linear-gradient-2"/><linearGradient id="linear-gradient-95" x1="-163.48" y1="-88.46" x2="-163.48" y2="-91.61" xlink:href="#linear-gradient-2"/><linearGradient id="linear-gradient-96" x1="-106.34" y1="-88.06" x2="-106.34" y2="-92.83" xlink:href="#linear-gradient-2"/><linearGradient id="linear-gradient-97" x1="-159.39" y1="-80.19" x2="-159.39" y2="-84.39" xlink:href="#linear-gradient-2"/><linearGradient id="linear-gradient-98" x1="-115.45" y1="-86.08" x2="-115.45" y2="-87.51" xlink:href="#linear-gradient-2"/><linearGradient id="linear-gradient-99" x1="-85.01" y1="-81.95" x2="-85.01" y2="-83.38" xlink:href="#linear-gradient-2"/><linearGradient id="linear-gradient-100" x1="-160.77" y1="-77.92" x2="-160.77" y2="-79.35" xlink:href="#linear-gradient-2"/><linearGradient id="linear-gradient-101" x1="-160.51" y1="-81.75" x2="-160.51" y2="-83.18" xlink:href="#linear-gradient-2"/><linearGradient id="linear-gradient-102" x1="-100.96" y1="-80.84" x2="-100.96" y2="-82.27" xlink:href="#linear-gradient-2"/><linearGradient id="linear-gradient-103" x1="-159.18" y1="-83.76" x2="-159.18" y2="-85.19" xlink:href="#linear-gradient-2"/><linearGradient id="linear-gradient-104" x1="-70.57" y1="-87.16" x2="-70.57" y2="-91.46" xlink:href="#linear-gradient-2"/><linearGradient id="linear-gradient-105" x1="-64.59" y1="-79.91" x2="-64.59" y2="-84.2" xlink:href="#linear-gradient-2"/><linearGradient id="linear-gradient-106" x1="-170.24" y1="-85.54" x2="-170.24" y2="-92.72" xlink:href="#linear-gradient-2"/><linearGradient id="linear-gradient-107" x1="-76.95" y1="-84.62" x2="-76.95" y2="-87.93" xlink:href="#linear-gradient-2"/><linearGradient id="linear-gradient-108" x1="-81.07" y1="-77.26" x2="-81.07" y2="-80.58" xlink:href="#linear-gradient-2"/><linearGradient id="linear-gradient-109" x1="-125.2" y1="-82.1" x2="-125.2" y2="-85.41" xlink:href="#linear-gradient-2"/><linearGradient id="linear-gradient-110" x1="-92.48" y1="-80.06" x2="-92.48" y2="-85.17" xlink:href="#linear-gradient-2"/><linearGradient id="linear-gradient-111" x1="-113.68" y1="-78.75" x2="-113.68" y2="-82.78" xlink:href="#linear-gradient-2"/><linearGradient id="linear-gradient-112" x1="-65.92" y1="-78.59" x2="-65.92" y2="-80.49" xlink:href="#linear-gradient-2"/><linearGradient id="linear-gradient-113" x1="-148.65" y1="-87.06" x2="-148.65" y2="-91.4" xlink:href="#linear-gradient-2"/><linearGradient id="linear-gradient-114" x1="-102.1" y1="-87" x2="-102.1" y2="-89.76" xlink:href="#linear-gradient-2"/><linearGradient id="linear-gradient-115" x1="-169.09" y1="-87" x2="-169.09" y2="-89.76" xlink:href="#linear-gradient-2"/><linearGradient id="linear-gradient-116" x1="-172.81" y1="-78.54" x2="-172.81" y2="-81.3" xlink:href="#linear-gradient-2"/><linearGradient id="linear-gradient-117" x1="-174.48" y1="-79.65" x2="-174.48" y2="-82.41" xlink:href="#linear-gradient-2"/><linearGradient id="linear-gradient-118" x1="-74.25" y1="-77.84" x2="-74.25" y2="-80.6" xlink:href="#linear-gradient-2"/><linearGradient id="linear-gradient-119" x1="-134.88" y1="-84.78" x2="-134.88" y2="-87.41" xlink:href="#linear-gradient-2"/><linearGradient id="linear-gradient-120" x1="-163.48" y1="-75.27" x2="-163.48" y2="-78.42" xlink:href="#linear-gradient-2"/><linearGradient id="linear-gradient-121" x1="-106.34" y1="-74.87" x2="-106.34" y2="-79.64" xlink:href="#linear-gradient-2"/><linearGradient id="linear-gradient-122" x1="-115.45" y1="-72.89" x2="-115.45" y2="-74.31" xlink:href="#linear-gradient-2"/><linearGradient id="linear-gradient-123" x1="-159.18" y1="-70.57" x2="-159.18" y2="-72" xlink:href="#linear-gradient-2"/><linearGradient id="linear-gradient-124" x1="-70.57" y1="-73.97" x2="-70.57" y2="-78.26" xlink:href="#linear-gradient-2"/><linearGradient id="linear-gradient-125" x1="-170.24" y1="-72.35" x2="-170.24" y2="-79.54" xlink:href="#linear-gradient-2"/><linearGradient id="linear-gradient-126" x1="-76.95" y1="-71.42" x2="-76.95" y2="-74.74" xlink:href="#linear-gradient-2"/><linearGradient id="linear-gradient-127" x1="-148.65" y1="-73.87" x2="-148.65" y2="-78.21" xlink:href="#linear-gradient-2"/><linearGradient id="linear-gradient-128" x1="-102.1" y1="-73.81" x2="-102.1" y2="-76.56" xlink:href="#linear-gradient-2"/><linearGradient id="linear-gradient-129" x1="-169.09" y1="-73.81" x2="-169.09" y2="-76.56" xlink:href="#linear-gradient-2"/><linearGradient id="linear-gradient-130" x1="-134.88" y1="-71.59" x2="-134.88" y2="-74.22" xlink:href="#linear-gradient-2"/><linearGradient id="linear-gradient-131" x1="10.35" y1="40.2" x2="13.77" y2="40.2" gradientUnits="userSpaceOnUse"><stop offset="0" stop-color="#fed1a7"/><stop offset="1" stop-color="#fbb997"/></linearGradient><linearGradient id="linear-gradient-132" x1="126.87" y1="40.4" x2="130.29" y2="40.4" xlink:href="#linear-gradient-131"/></defs><title>woodenBoard</title><g class="cls-2"><g id="Layer_1" data-name="Layer 1"><path class="cls-3" d="M-176.33-101.53s53.91-36.93,61.3-36.93,57.27,37.41,57.27,37.41" transform="translate(187.71 143.15)"/><path class="cls-4" d="M-176.72-102.31s53.91-36.93,61.3-36.93,57.27,37.41,57.27,37.41" transform="translate(187.71 143.15)"/><path class="cls-5" d="M-176.72-102.31s53.91-36.93,61.3-36.93,57.27,37.41,57.27,37.41" transform="translate(187.71 143.15)"/><polygon class="cls-6" points="132.09 37.5 8.87 37.52 8.87 46.33 8.87 53.13 8.87 60.23 8.87 72.39 10.38 73.82 133.73 73.82 133.73 67.31 133.73 60.52 133.73 53.42 133.73 46.62 133.73 39.33 132.09 37.5"/><line class="cls-7" x1="132.18" y1="72.45" x2="133.74" y2="73.84"/><g class="cls-8"><polygon class="cls-9" points="2.8 59.29 132.4 59.58 132.4 52.48 2.8 52.19 2.8 59.29"/><polygon class="cls-10" points="2.8 52.19 132.4 52.48 132.4 45.68 2.8 45.39 2.8 52.19"/><polygon class="cls-11" points="2.8 45.39 132.4 45.68 132.4 38.13 2.8 37.84 2.8 45.39"/><polygon class="cls-12" points="2.8 72.88 132.4 72.88 132.4 66.38 2.8 66.09 2.8 72.88"/><polygon class="cls-13" points="2.8 66.09 132.4 66.38 132.4 59.58 2.8 59.29 2.8 66.09"/><polygon class="cls-14" points="132.4 24.84 2.8 24.55 2.8 31.04 132.4 31.34 132.4 24.84"/><polygon class="cls-15" points="2.8 31.04 2.8 37.84 132.4 38.13 132.4 31.34 2.8 31.04"/><polygon class="cls-16" points="132.4 11.59 2.8 11.59 2.8 17.75 132.4 18.04 132.4 11.59"/><polygon class="cls-17" points="132.4 18.04 2.8 17.75 2.8 24.55 132.4 24.84 132.4 18.04"/><path class="cls-18" d="M-184.91-131.56v6.16l129.6.29v-6.45Zm63.62,5.24c-49.29,0-59.86-1.21-59.86-2.72,0-2.32,37.06-2.12,59.86-2.12S-57-131.05-57-129-72-126.32-121.29-126.32Z" transform="translate(187.71 143.15)"/><path class="cls-19" d="M-184.91-125.4v6.8l129.6.29v-6.8Zm63.62,6c-49.29,0-59.86-1.21-59.86-2.72,0-2.32,37.06-2.11,59.86-2.11s64.32.1,64.32,2.11S-72-119.37-121.29-119.37Z" transform="translate(187.71 143.15)"/><path class="cls-20" d="M-184.91-118.6v6.5l129.6.29v-6.5Zm63.62,6.08c-49.29,0-59.86-1.21-59.86-2.72,0-2.32,37.06-2.12,59.86-2.12s64.32.1,64.32,2.12S-72-112.52-121.29-112.52Z" transform="translate(187.71 143.15)"/><path class="cls-21" d="M-184.91-112.1v6.8l129.6.29v-6.8Zm63.62,6.53c-49.29,0-59.86-1.21-59.86-2.72,0-2.32,37.06-2.11,59.86-2.11s64.32.1,64.32,2.11S-72-105.57-121.29-105.57Z" transform="translate(187.71 143.15)"/><path class="cls-22" d="M-184.91-105.31v7.55l129.6.29V-105Zm63.62,6.58c-49.29,0-59.86-1.21-59.86-2.72,0-2.32,37.06-2.12,59.86-2.12s64.32.1,64.32,2.12S-72-98.73-121.29-98.73Z" transform="translate(187.71 143.15)"/><path class="cls-23" d="M-184.91-97.75V-91l129.6.29v-6.8Zm63.62,6c-49.29,0-59.86-1.21-59.86-2.72,0-2.32,37.06-2.11,59.86-2.11S-57-96.51-57-94.5-72-91.78-121.29-91.78Z" transform="translate(187.71 143.15)"/><path class="cls-24" d="M-184.91-91v7.1l129.6.29v-7.1Zm63.62,6.53c-49.29,0-59.86-1.28-59.86-2.89,0-2.46,37.06-2.25,59.86-2.25S-57-89.46-57-87.31-72-84.43-121.29-84.43Z" transform="translate(187.71 143.15)"/><path class="cls-25" d="M-184.91-83.86v6.8l129.6.29v-6.8Zm63.62,6.28c-49.29,0-59.86-1.28-59.86-2.89,0-2.46,37.06-2.25,59.86-2.25S-57-82.61-57-80.47-72-77.58-121.29-77.58Z" transform="translate(187.71 143.15)"/><path class="cls-26" d="M-184.91-77.06v6.79h129.6v-6.5Zm63.62,5.93c-49.29,0-59.86-1.28-59.86-2.89,0-2.46,37.06-2.25,59.86-2.25S-57-76.16-57-74-72-71.13-121.29-71.13Z" transform="translate(187.71 143.15)"/><path class="cls-27" d="M-182.72-130.65s31.37-.2,37.62-.2S-168.23-130.25-182.72-130.65Z" transform="translate(187.71 143.15)"/><path class="cls-28" d="M-137.93-130.25s47.19-.4,61-.4S-119.58-129.84-137.93-130.25Z" transform="translate(187.71 143.15)"/><path class="cls-29" d="M-176.87-122.59c-1.85-.19,17-.1,31.77-.1S-168.9-121.79-176.87-122.59Z" transform="translate(187.71 143.15)"/><path class="cls-30" d="M-141.25-128.23c-4.13,0,40.41,0,50.11,0S-113.73-127.93-141.25-128.23Z" transform="translate(187.71 143.15)"/><path class="cls-31" d="M-110.81-124.1c-4.13,0,40.41,0,50.11,0S-83.29-123.8-110.81-124.1Z" transform="translate(187.71 143.15)"/><path class="cls-32" d="M-186.58-120.07c-4.13,0,40.41,0,50.11,0S-159.06-119.77-186.58-120.07Z" transform="translate(187.71 143.15)"/><path class="cls-33" d="M-186.31-123.9c-4.13,0,40.41,0,50.11,0S-158.8-123.6-186.31-123.9Z" transform="translate(187.71 143.15)"/><path class="cls-34" d="M-126.76-123c-4.13,0,40.41,0,50.11,0S-99.25-122.69-126.76-123Z" transform="translate(187.71 143.15)"/><path class="cls-35" d="M-185-125.92c-4.13,0,40.41,0,50.11,0S-157.47-125.61-185-125.92Z" transform="translate(187.71 143.15)"/><path class="cls-36" d="M-79.84-129.24c-7.59.11,14.49-.81,19-.3S-66.28-129.44-79.84-129.24Z" transform="translate(187.71 143.15)"/><path class="cls-37" d="M-73.86-122c-7.59.11,14.49-.81,19-.3S-60.3-122.19-73.86-122Z" transform="translate(187.71 143.15)"/><path class="cls-38" d="M-184.72-128.43s23.53.71,28.31.71S-175-127.33-184.72-128.43Z" transform="translate(187.71 143.15)"/><path class="cls-39" d="M-93.4-127h31.24C-53.25-127-82.76-126.22-93.4-127Z" transform="translate(187.71 143.15)"/><path class="cls-40" d="M-97.52-119.67h31.24C-57.37-119.67-86.88-118.87-97.52-119.67Z" transform="translate(187.71 143.15)"/><path class="cls-41" d="M-141.65-124.51h31.24C-101.51-124.51-131-123.7-141.65-124.51Z" transform="translate(187.71 143.15)"/><path class="cls-42" d="M-112.94-122.39s35.09-.3,40.28-.3S-95.52-121.69-112.94-122.39Z" transform="translate(187.71 143.15)"/><path class="cls-43" d="M-136.1-121.25s33.67.06,43.24.06S-119-120.3-136.1-121.25Z" transform="translate(187.71 143.15)"/><path class="cls-44" d="M-73.72-120.78s12.63-.1,15.15,0S-64.69-120.48-73.72-120.78Z" transform="translate(187.71 143.15)"/><path class="cls-45" d="M-163.85-129.44c.76-.18,23.79-.2,29.91-.1S-166.9-128.74-163.85-129.44Z" transform="translate(187.71 143.15)"/><path class="cls-46" d="M-115.33-129.14s21.93-.2,25.52-.2S-92.47-128.84-115.33-129.14Z" transform="translate(187.71 143.15)"/><path class="cls-47" d="M-182.32-129.14s21.93-.2,25.52-.2S-159.46-128.84-182.32-129.14Z" transform="translate(187.71 143.15)"/><path class="cls-48" d="M-186-120.68s21.93-.2,25.52-.2S-163.18-120.38-186-120.68Z" transform="translate(187.71 143.15)"/><path class="cls-49" d="M-187.71-121.79s21.93-.2,25.52-.2S-164.85-121.49-187.71-121.79Z" transform="translate(187.71 143.15)"/><path class="cls-50" d="M-87.49-120s21.93-.2,25.52-.2S-64.62-119.67-87.49-120Z" transform="translate(187.71 143.15)"/><path class="cls-51" d="M-151.88-126.92s21.67-.4,33.23,0C-111.83-126.68-151.88-126.92-151.88-126.92Z" transform="translate(187.71 143.15)"/><path class="cls-52" d="M-182.72-117.05s31.37-.2,37.62-.2S-168.23-116.65-182.72-117.05Z" transform="translate(187.71 143.15)"/><path class="cls-53" d="M-137.93-116.65s47.19-.4,61-.4S-119.58-116.25-137.93-116.65Z" transform="translate(187.71 143.15)"/><path class="cls-54" d="M-176.87-109c-1.85-.19,17-.1,31.77-.1S-168.9-108.19-176.87-109Z" transform="translate(187.71 143.15)"/><path class="cls-55" d="M-141.25-114.64c-4.13,0,40.41,0,50.11,0S-113.73-114.33-141.25-114.64Z" transform="translate(187.71 143.15)"/><path class="cls-56" d="M-110.81-110.51c-4.13,0,40.41,0,50.11,0S-83.29-110.21-110.81-110.51Z" transform="translate(187.71 143.15)"/><path class="cls-57" d="M-186.58-106.48c-4.13,0,40.41,0,50.11,0S-159.06-106.18-186.58-106.48Z" transform="translate(187.71 143.15)"/><path class="cls-58" d="M-186.31-110.31c-4.13,0,40.41,0,50.11,0S-158.8-110-186.31-110.31Z" transform="translate(187.71 143.15)"/><path class="cls-59" d="M-126.76-109.4c-4.13,0,40.41,0,50.11,0S-99.25-109.1-126.76-109.4Z" transform="translate(187.71 143.15)"/><path class="cls-60" d="M-185-112.32c-4.13,0,40.41,0,50.11,0S-157.47-112-185-112.32Z" transform="translate(187.71 143.15)"/><path class="cls-61" d="M-79.84-115.64c-7.59.11,14.49-.81,19-.3S-66.28-115.85-79.84-115.64Z" transform="translate(187.71 143.15)"/><path class="cls-62" d="M-73.86-108.39c-7.59.11,14.49-.81,19-.3S-60.3-108.59-73.86-108.39Z" transform="translate(187.71 143.15)"/><path class="cls-63" d="M-184.72-114.84s23.53.71,28.31.71S-175-113.73-184.72-114.84Z" transform="translate(187.71 143.15)"/><path class="cls-64" d="M-93.4-113.43h31.24C-53.25-113.43-82.76-112.62-93.4-113.43Z" transform="translate(187.71 143.15)"/><path class="cls-65" d="M-97.52-106.08h31.24C-57.37-106.08-86.88-105.27-97.52-106.08Z" transform="translate(187.71 143.15)"/><path class="cls-66" d="M-141.65-110.91h31.24C-101.51-110.91-131-110.1-141.65-110.91Z" transform="translate(187.71 143.15)"/><path class="cls-67" d="M-112.94-108.8s35.09-.3,40.28-.3S-95.52-108.09-112.94-108.8Z" transform="translate(187.71 143.15)"/><path class="cls-68" d="M-136.1-107.65s33.67.06,43.24.06S-119-106.71-136.1-107.65Z" transform="translate(187.71 143.15)"/><path class="cls-69" d="M-73.72-107.18s12.63-.1,15.15,0S-64.69-106.88-73.72-107.18Z" transform="translate(187.71 143.15)"/><path class="cls-70" d="M-163.85-115.85c.76-.18,23.79-.2,29.91-.1S-166.9-115.14-163.85-115.85Z" transform="translate(187.71 143.15)"/><path class="cls-71" d="M-115.33-115.54s21.93-.2,25.52-.2S-92.47-115.24-115.33-115.54Z" transform="translate(187.71 143.15)"/><path class="cls-72" d="M-182.32-115.54s21.93-.2,25.52-.2S-159.46-115.24-182.32-115.54Z" transform="translate(187.71 143.15)"/><path class="cls-73" d="M-186-107.08s21.93-.2,25.52-.2S-163.18-106.78-186-107.08Z" transform="translate(187.71 143.15)"/><path class="cls-74" d="M-187.71-108.19s21.93-.2,25.52-.2S-164.85-107.89-187.71-108.19Z" transform="translate(187.71 143.15)"/><path class="cls-75" d="M-87.49-106.38s21.93-.2,25.52-.2S-64.62-106.08-87.49-106.38Z" transform="translate(187.71 143.15)"/><path class="cls-76" d="M-151.88-113.33s21.67-.4,33.23,0C-111.83-113.09-151.88-113.33-151.88-113.33Z" transform="translate(187.71 143.15)"/><path class="cls-77" d="M-182.72-103.76s31.37-.2,37.62-.2S-168.23-103.36-182.72-103.76Z" transform="translate(187.71 143.15)"/><path class="cls-78" d="M-137.93-103.36s47.19-.4,61-.4S-119.58-103-137.93-103.36Z" transform="translate(187.71 143.15)"/><path class="cls-79" d="M-176.87-95.7c-1.85-.19,17-.1,31.77-.1S-168.9-94.9-176.87-95.7Z" transform="translate(187.71 143.15)"/><path class="cls-80" d="M-141.25-101.34c-4.13,0,40.41,0,50.11,0S-113.73-101-141.25-101.34Z" transform="translate(187.71 143.15)"/><path class="cls-81" d="M-110.81-97.22c-4.13,0,40.41,0,50.11,0S-83.29-96.91-110.81-97.22Z" transform="translate(187.71 143.15)"/><path class="cls-82" d="M-186.58-93.19c-4.13,0,40.41,0,50.11,0S-159.06-92.88-186.58-93.19Z" transform="translate(187.71 143.15)"/><path class="cls-83" d="M-186.31-97c-4.13,0,40.41,0,50.11,0S-158.8-96.71-186.31-97Z" transform="translate(187.71 143.15)"/><path class="cls-84" d="M-126.76-96.11c-4.13,0,40.41,0,50.11,0S-99.25-95.81-126.76-96.11Z" transform="translate(187.71 143.15)"/><path class="cls-85" d="M-185-99c-4.13,0,40.41,0,50.11,0S-157.47-98.73-185-99Z" transform="translate(187.71 143.15)"/><path class="cls-86" d="M-79.84-102.35c-7.59.11,14.49-.81,19-.3S-66.28-102.55-79.84-102.35Z" transform="translate(187.71 143.15)"/><path class="cls-87" d="M-73.86-95.1c-7.59.11,14.49-.81,19-.3S-60.3-95.3-73.86-95.1Z" transform="translate(187.71 143.15)"/><path class="cls-88" d="M-184.72-101.55s23.53.7,28.31.7S-175-100.44-184.72-101.55Z" transform="translate(187.71 143.15)"/><path class="cls-89" d="M-93.4-100.14h31.24C-53.25-100.14-82.76-99.33-93.4-100.14Z" transform="translate(187.71 143.15)"/><path class="cls-90" d="M-97.52-92.78h31.24C-57.37-92.78-86.88-92-97.52-92.78Z" transform="translate(187.71 143.15)"/><path class="cls-91" d="M-141.65-97.62h31.24C-101.51-97.62-131-96.81-141.65-97.62Z" transform="translate(187.71 143.15)"/><path class="cls-92" d="M-112.94-95.5s35.09-.3,40.28-.3S-95.52-94.8-112.94-95.5Z" transform="translate(187.71 143.15)"/><path class="cls-93" d="M-136.1-94.36s33.67.06,43.24.06S-119-93.42-136.1-94.36Z" transform="translate(187.71 143.15)"/><path class="cls-94" d="M-73.72-93.89s12.63-.1,15.15,0S-64.69-93.59-73.72-93.89Z" transform="translate(187.71 143.15)"/><path class="cls-95" d="M-163.85-102.55c.76-.18,23.79-.2,29.91-.1S-166.9-101.85-163.85-102.55Z" transform="translate(187.71 143.15)"/><path class="cls-96" d="M-115.33-102.25s21.93-.2,25.52-.2S-92.47-101.95-115.33-102.25Z" transform="translate(187.71 143.15)"/><path class="cls-97" d="M-182.32-102.25s21.93-.2,25.52-.2S-159.46-101.95-182.32-102.25Z" transform="translate(187.71 143.15)"/><path class="cls-98" d="M-186-93.79s21.93-.2,25.52-.2S-163.18-93.49-186-93.79Z" transform="translate(187.71 143.15)"/><path class="cls-99" d="M-187.71-94.9s21.93-.2,25.52-.2S-164.85-94.6-187.71-94.9Z" transform="translate(187.71 143.15)"/><path class="cls-100" d="M-87.49-93.09s21.93-.2,25.52-.2S-64.62-92.78-87.49-93.09Z" transform="translate(187.71 143.15)"/><path class="cls-101" d="M-151.88-100s21.67-.4,33.23,0C-111.83-99.8-151.88-100-151.88-100Z" transform="translate(187.71 143.15)"/><path class="cls-102" d="M-182.72-88.66s31.37-.2,37.62-.2S-168.23-88.25-182.72-88.66Z" transform="translate(187.71 143.15)"/><path class="cls-103" d="M-137.93-88.25s47.19-.4,61-.4S-119.58-87.85-137.93-88.25Z" transform="translate(187.71 143.15)"/><path class="cls-104" d="M-176.87-80.6c-1.85-.19,17-.1,31.77-.1S-168.9-79.79-176.87-80.6Z" transform="translate(187.71 143.15)"/><path class="cls-105" d="M-141.25-86.24c-4.13,0,40.41,0,50.11,0S-113.73-85.94-141.25-86.24Z" transform="translate(187.71 143.15)"/><path class="cls-106" d="M-110.81-82.11c-4.13,0,40.41,0,50.11,0S-83.29-81.81-110.81-82.11Z" transform="translate(187.71 143.15)"/><path class="cls-107" d="M-186.58-78.08c-4.13,0,40.41,0,50.11,0S-159.06-77.78-186.58-78.08Z" transform="translate(187.71 143.15)"/><path class="cls-108" d="M-186.31-81.91c-4.13,0,40.41,0,50.11,0S-158.8-81.61-186.31-81.91Z" transform="translate(187.71 143.15)"/><path class="cls-109" d="M-126.76-81c-4.13,0,40.41,0,50.11,0S-99.25-80.7-126.76-81Z" transform="translate(187.71 143.15)"/><path class="cls-110" d="M-185-83.92c-4.13,0,40.41,0,50.11,0S-157.47-83.62-185-83.92Z" transform="translate(187.71 143.15)"/><path class="cls-111" d="M-79.84-87.24c-7.59.11,14.49-.81,19-.3S-66.28-87.45-79.84-87.24Z" transform="translate(187.71 143.15)"/><path class="cls-112" d="M-73.86-80c-7.59.11,14.49-.81,19-.3S-60.3-80.2-73.86-80Z" transform="translate(187.71 143.15)"/><path class="cls-113" d="M-184.72-86.44s23.53.7,28.31.7S-175-85.33-184.72-86.44Z" transform="translate(187.71 143.15)"/><path class="cls-114" d="M-93.4-85h31.24C-53.25-85-82.76-84.22-93.4-85Z" transform="translate(187.71 143.15)"/><path class="cls-115" d="M-97.52-77.68h31.24C-57.37-77.68-86.88-76.87-97.52-77.68Z" transform="translate(187.71 143.15)"/><path class="cls-116" d="M-141.65-82.51h31.24C-101.51-82.51-131-81.71-141.65-82.51Z" transform="translate(187.71 143.15)"/><path class="cls-117" d="M-112.94-80.4s35.09-.3,40.28-.3S-95.52-79.69-112.94-80.4Z" transform="translate(187.71 143.15)"/><path class="cls-118" d="M-136.1-79.25s33.67.06,43.24.06S-119-78.31-136.1-79.25Z" transform="translate(187.71 143.15)"/><path class="cls-119" d="M-73.72-78.79s12.63-.1,15.15,0S-64.69-78.48-73.72-78.79Z" transform="translate(187.71 143.15)"/><path class="cls-120" d="M-163.85-87.45c.76-.18,23.79-.2,29.91-.1S-166.9-86.74-163.85-87.45Z" transform="translate(187.71 143.15)"/><path class="cls-121" d="M-115.33-87.15s21.93-.2,25.52-.2S-92.47-86.84-115.33-87.15Z" transform="translate(187.71 143.15)"/><path class="cls-122" d="M-182.32-87.15s21.93-.2,25.52-.2S-159.46-86.84-182.32-87.15Z" transform="translate(187.71 143.15)"/><path class="cls-123" d="M-186-78.69s21.93-.2,25.52-.2S-163.18-78.38-186-78.69Z" transform="translate(187.71 143.15)"/><path class="cls-124" d="M-187.71-79.79s21.93-.2,25.52-.2S-164.85-79.49-187.71-79.79Z" transform="translate(187.71 143.15)"/><path class="cls-125" d="M-87.49-78s21.93-.2,25.52-.2S-64.62-77.68-87.49-78Z" transform="translate(187.71 143.15)"/><path class="cls-126" d="M-151.88-84.93s21.67-.4,33.23,0C-111.83-84.69-151.88-84.93-151.88-84.93Z" transform="translate(187.71 143.15)"/><path class="cls-127" d="M-182.72-75.46s31.37-.2,37.62-.2S-168.23-75.06-182.72-75.46Z" transform="translate(187.71 143.15)"/><path class="cls-128" d="M-137.93-75.06s47.19-.4,61-.4S-119.58-74.66-137.93-75.06Z" transform="translate(187.71 143.15)"/><path class="cls-129" d="M-141.25-73c-4.13,0,40.41,0,50.11,0S-113.73-72.74-141.25-73Z" transform="translate(187.71 143.15)"/><path class="cls-130" d="M-185-70.73c-4.13,0,40.41,0,50.11,0S-157.47-70.43-185-70.73Z" transform="translate(187.71 143.15)"/><path class="cls-131" d="M-79.84-74.05c-7.59.11,14.49-.81,19-.3S-66.28-74.25-79.84-74.05Z" transform="translate(187.71 143.15)"/><path class="cls-132" d="M-184.72-73.25s23.53.71,28.31.71S-175-72.14-184.72-73.25Z" transform="translate(187.71 143.15)"/><path class="cls-133" d="M-93.4-71.84h31.24C-53.25-71.84-82.76-71-93.4-71.84Z" transform="translate(187.71 143.15)"/><path class="cls-134" d="M-163.85-74.25c.76-.18,23.79-.2,29.91-.1S-166.9-73.55-163.85-74.25Z" transform="translate(187.71 143.15)"/><path class="cls-135" d="M-115.33-74s21.93-.2,25.52-.2S-92.47-73.65-115.33-74Z" transform="translate(187.71 143.15)"/><path class="cls-136" d="M-182.32-74s21.93-.2,25.52-.2S-159.46-73.65-182.32-74Z" transform="translate(187.71 143.15)"/><path class="cls-137" d="M-151.88-71.74s21.67-.4,33.23,0C-111.83-71.5-151.88-71.74-151.88-71.74Z" transform="translate(187.71 143.15)"/></g><circle class="cls-138" cx="12.06" cy="40.2" r="1.71"/><circle class="cls-139" cx="128.58" cy="40.4" r="1.71"/><path class="cls-140" d="M-110.31-140.75c-.46.68-2.16,1-4.11.77s-3.51-1-3.7-1.82c0,.83,1.58,1.7,3.67,2S-110.58-140-110.31-140.75Z" transform="translate(187.71 143.15)"/><path class="cls-141" d="M-114.94-140.8l-1.15,4.24s.85.79,1.27-.21c.57-1.2,1.71-3.78,1.71-3.78Z" transform="translate(187.71 143.15)"/><path class="cls-142" d="M-114.82-136.76c.57-1.2,1.71-3.78,1.71-3.78l-1.83-.26-.3,1.09a6.35,6.35,0,0,0,1,.31c0,.25-.55,2.61-1.67,3A.68.68,0,0,0-114.82-136.76Z" transform="translate(187.71 143.15)"/><path class="cls-143" d="M-110.28-140.76c-.14.89-2,1.38-4.18,1.1s-3.8-1.24-3.66-2.13,2-1.38,4.18-1.1S-110.14-141.65-110.28-140.76Z" transform="translate(187.71 143.15)"/><path class="cls-144" d="M-110.27-140.86c-.14.85-2,1.32-4.17,1s-3.81-1.21-3.67-2.06,2-1.31,4.17-1S-110.14-141.72-110.27-140.86Z" transform="translate(187.71 143.15)"/><path class="cls-145" d="M-114.46-139.7c-2.1-.29-3.77-1.11-3.81-2.1h0a.63.63,0,0,1,0-.12h0c.17-.83,1.46-1.22,3.06-1.23h0a9.73,9.73,0,0,1,1.28.08h0c2.1.29,3.77,1.11,3.81,2.1h0a1,1,0,0,1,0,.12h0l-.15,0,.15,0c-.17.83-1.46,1.22-3.07,1.23h0a9.83,9.83,0,0,1-1.27-.08Zm-3.5-2.17a.34.34,0,0,0,0,.07h0c0,.67,1.49,1.57,3.55,1.83h0a9.65,9.65,0,0,0,1.23.08h0c1.57,0,2.71-.46,2.76-1h0a.71.71,0,0,0,0-.08h0c0-.67-1.49-1.57-3.55-1.83h0a9.52,9.52,0,0,0-1.23-.08h-.05c-1.54,0-2.66.46-2.71,1Z" transform="translate(187.71 143.15)"/><path class="cls-146" d="M-113.07-141.41c-.08.51-1.19.79-2.48.61s-2.27-.72-2.19-1.23,1.19-.78,2.48-.62S-113-141.92-113.07-141.41Z" transform="translate(187.71 143.15)"/></g></g></svg>