<svg xmlns="http://www.w3.org/2000/svg" xmlns:xlink="http://www.w3.org/1999/xlink" viewBox="0 0 230.2 236.29"><defs><style>.cls-1{fill:none;}.cls-2{isolation:isolate;}.cls-3{fill:#5df5f9;}.cls-4{clip-path:url(#clip-path);}.cls-5{fill:#ffffa1;}.cls-6{fill:#4092a0;opacity:0.42;mix-blend-mode:multiply;}</style><clipPath id="clip-path" transform="translate(15.97 17.44)"><circle id="_橢圓形_" data-name="&lt;橢圓形&gt;" class="cls-1" cx="100.24" cy="99.72" r="99.76"/></clipPath></defs><title>dataHeaderDeco</title><g class="cls-2"><g id="圖層_1" data-name="圖層 1"><circle id="_橢圓形_2" data-name="&lt;橢圓形&gt;" class="cls-3" cx="116.21" cy="117.16" r="99.76"/><g id="_剪裁群組_" data-name="&lt;剪裁群組&gt;"><g class="cls-4"><g id="_群組_" data-name="&lt;群組&gt;"><path id="_複合路徑_" data-name="&lt;複合路徑&gt;" class="cls-5" d="M214.23,64.24a27.82,27.82,0,0,1-6.94,17.55A49.31,49.31,0,0,1,192,93.36c-11.48,5.93-24.46,8.42-37.35,8.77-12.88,0-26-2-37.87-7.73A50.55,50.55,0,0,1,101,82.69a29.33,29.33,0,0,1-7.51-18.46A29.28,29.28,0,0,1,101,45.78a50.56,50.56,0,0,1,15.82-11.71c11.82-5.77,25-7.76,37.87-7.74,12.89.35,25.88,2.84,37.35,8.77a49.31,49.31,0,0,1,15.28,11.58A27.82,27.82,0,0,1,214.23,64.24Zm0,0a27.7,27.7,0,0,0-7.12-17.39,49,49,0,0,0-15.31-11.31c-11.53-5.62-24.48-7.59-37.14-7.56-12.67.34-25.44,2.81-36.62,8.6a47.69,47.69,0,0,0-14.77,11.18,26.24,26.24,0,0,0-6.55,16.48,26.19,26.19,0,0,0,6.55,16.48A47.69,47.69,0,0,0,118,91.9c11.18,5.79,24,8.26,36.62,8.6,12.66,0,25.61-1.94,37.14-7.56a49,49,0,0,0,15.31-11.31A27.7,27.7,0,0,0,214.23,64.24Z" transform="translate(15.97 17.44)"/><path id="_複合路徑_2" data-name="&lt;複合路徑&gt;" class="cls-5" d="M202,64.24a22.12,22.12,0,0,1-5.5,14,39.22,39.22,0,0,1-12.14,9.23c-9.11,4.74-19.44,6.78-29.71,7.09-10.26.06-20.76-1.48-30.22-6.06a40.46,40.46,0,0,1-12.68-9.36,23.63,23.63,0,0,1-6.07-14.87,23.58,23.58,0,0,1,6.07-14.87A40.46,40.46,0,0,1,124.43,40c9.46-4.59,20-6.12,30.22-6.06,10.26.32,20.59,2.35,29.71,7.1a39.23,39.23,0,0,1,12.14,9.23A22.13,22.13,0,0,1,202,64.24Zm0,0a22,22,0,0,0-5.68-13.81,38.87,38.87,0,0,0-12.17-9C175,37,164.69,35.52,154.66,35.59c-10,.31-20.15,2.32-29,6.92a37.59,37.59,0,0,0-11.63,8.83,20.54,20.54,0,0,0-5.11,12.89,20.49,20.49,0,0,0,5.1,12.9A37.6,37.6,0,0,0,125.68,86c8.82,4.61,18.93,6.61,29,6.92C164.7,93,175,91.45,184.15,87a38.88,38.88,0,0,0,12.17-9A22,22,0,0,0,202,64.24Z" transform="translate(15.97 17.44)"/><path id="_複合路徑_3" data-name="&lt;複合路徑&gt;" class="cls-5" d="M185.28,64.24a14.3,14.3,0,0,1-3.57,9,25.89,25.89,0,0,1-7.81,6,46.56,46.56,0,0,1-39,1.05,26.3,26.3,0,0,1-8.43-6.11,15.87,15.87,0,0,1-4.06-10,15.84,15.84,0,0,1,4.05-10,26.15,26.15,0,0,1,8.43-6.12,46.54,46.54,0,0,1,39,1.06,25.87,25.87,0,0,1,7.81,6A14.3,14.3,0,0,1,185.28,64.24Zm0,0a14.24,14.24,0,0,0-3.66-8.94,24.67,24.67,0,0,0-7.92-5.72,44.94,44.94,0,0,0-37.56,1.06,24.31,24.31,0,0,0-7.3,5.65,12.7,12.7,0,0,0-3.18,8c0,5.85,5,10.79,10.47,13.61A44.91,44.91,0,0,0,173.7,78.9a24.64,24.64,0,0,0,7.92-5.72A14.24,14.24,0,0,0,185.28,64.24Z" transform="translate(15.97 17.44)"/><path id="_複合路徑_4" data-name="&lt;複合路徑&gt;" class="cls-5" d="M175.3,64.24c0,4.62-3.77,8.18-7.63,10.22a31.63,31.63,0,0,1-26.54,1.05,18.05,18.05,0,0,1-5.86-4.2,11.21,11.21,0,0,1-2.88-7.08,11.19,11.19,0,0,1,2.87-7.08,17.91,17.91,0,0,1,5.86-4.2,30.08,30.08,0,0,1,13.53-2.39,30.41,30.41,0,0,1,13,3.44C171.53,56.05,175.26,59.62,175.3,64.24Zm0,0a9.58,9.58,0,0,0-2.48-6,16.43,16.43,0,0,0-5.36-3.8,30,30,0,0,0-25.08,1.06c-3.63,1.91-6.75,5.14-6.73,8.76s3.1,6.85,6.73,8.76a30,30,0,0,0,25.08,1.05,16.42,16.42,0,0,0,5.35-3.8A9.59,9.59,0,0,0,175.3,64.24Z" transform="translate(15.97 17.44)"/><path id="_複合路徑_5" data-name="&lt;複合路徑&gt;" class="cls-5" d="M104.81,118.95a27.82,27.82,0,0,1-6.94,17.55,49.32,49.32,0,0,1-15.28,11.58c-11.48,5.93-24.47,8.42-37.35,8.77-12.88,0-26-2-37.87-7.73A50.55,50.55,0,0,1-8.45,137.4,29.33,29.33,0,0,1-16,118.95a29.28,29.28,0,0,1,7.51-18.46A50.55,50.55,0,0,1,7.36,88.78C19.18,83,32.36,81,45.24,81c12.89.35,25.88,2.84,37.35,8.77A49.31,49.31,0,0,1,97.87,101.4,27.82,27.82,0,0,1,104.81,118.95Zm0,0a27.7,27.7,0,0,0-7.12-17.39A49,49,0,0,0,82.37,90.24c-11.53-5.62-24.48-7.59-37.14-7.56C32.57,83,19.8,85.5,8.62,91.28A47.69,47.69,0,0,0-6.16,102.47a26.24,26.24,0,0,0-6.55,16.48,26.18,26.18,0,0,0,6.55,16.48A47.69,47.69,0,0,0,8.61,146.61c11.18,5.79,24,8.26,36.62,8.6,12.66,0,25.61-1.94,37.14-7.56a49,49,0,0,0,15.31-11.31A27.7,27.7,0,0,0,104.81,118.95Z" transform="translate(15.97 17.44)"/><path id="_複合路徑_6" data-name="&lt;複合路徑&gt;" class="cls-5" d="M92.58,118.95a22.12,22.12,0,0,1-5.5,14,39.22,39.22,0,0,1-12.14,9.23c-9.11,4.74-19.44,6.78-29.71,7.09-10.26.06-20.76-1.48-30.22-6.06a40.46,40.46,0,0,1-12.68-9.36,23.63,23.63,0,0,1-6.07-14.87,23.58,23.58,0,0,1,6.07-14.87A40.46,40.46,0,0,1,15,94.71c9.46-4.59,20-6.12,30.22-6.06C55.5,89,65.83,91,74.94,95.75A39.22,39.22,0,0,1,87.08,105,22.12,22.12,0,0,1,92.58,118.95Zm0,0a22,22,0,0,0-5.68-13.81,38.87,38.87,0,0,0-12.17-9c-9.17-4.44-19.45-5.95-29.49-5.88-10,.31-20.15,2.32-29,6.92a37.6,37.6,0,0,0-11.63,8.83A20.54,20.54,0,0,0-.48,118.95a20.49,20.49,0,0,0,5.1,12.9,37.6,37.6,0,0,0,11.63,8.84c8.82,4.61,18.93,6.61,29,6.92,10,.07,20.33-1.45,29.49-5.89a38.88,38.88,0,0,0,12.17-9A22,22,0,0,0,92.58,118.95Z" transform="translate(15.97 17.44)"/><path id="_複合路徑_7" data-name="&lt;複合路徑&gt;" class="cls-5" d="M75.86,118.95a14.3,14.3,0,0,1-3.57,9,25.88,25.88,0,0,1-7.81,6,44.71,44.71,0,0,1-19.25,4.81,44.47,44.47,0,0,1-19.77-3.76A26.3,26.3,0,0,1,17,128.95a15.87,15.87,0,0,1-4.06-10,15.84,15.84,0,0,1,4.05-10,26.15,26.15,0,0,1,8.43-6.12,44.37,44.37,0,0,1,19.78-3.76,44.68,44.68,0,0,1,19.25,4.81,25.86,25.86,0,0,1,7.81,6A14.3,14.3,0,0,1,75.86,118.95Zm0,0A14.24,14.24,0,0,0,72.2,110a24.66,24.66,0,0,0-7.92-5.72,42.87,42.87,0,0,0-19-3.58,43.09,43.09,0,0,0-18.51,4.64,24.31,24.31,0,0,0-7.3,5.65,12.69,12.69,0,0,0-3.18,8c0,5.85,5,10.79,10.47,13.61a43,43,0,0,0,18.52,4.64,42.84,42.84,0,0,0,19-3.59,24.64,24.64,0,0,0,7.92-5.72A14.24,14.24,0,0,0,75.86,118.95Z" transform="translate(15.97 17.44)"/><path id="_複合路徑_8" data-name="&lt;複合路徑&gt;" class="cls-5" d="M65.88,118.95c0,4.62-3.77,8.18-7.63,10.22a30.44,30.44,0,0,1-13,3.44,30.18,30.18,0,0,1-13.53-2.39,18.06,18.06,0,0,1-5.86-4.2,10.15,10.15,0,0,1,0-14.15,17.91,17.91,0,0,1,5.86-4.2,30.08,30.08,0,0,1,13.53-2.39,30.41,30.41,0,0,1,13,3.44C62.11,110.76,65.84,114.33,65.88,118.95Zm0,0a9.59,9.59,0,0,0-2.48-6,16.44,16.44,0,0,0-5.36-3.8,28.6,28.6,0,0,0-12.8-2.21A28.79,28.79,0,0,0,33,110.19c-3.63,1.91-6.75,5.14-6.73,8.76s3.1,6.85,6.73,8.76A28.69,28.69,0,0,0,45.24,131,28.57,28.57,0,0,0,58,128.76a16.41,16.41,0,0,0,5.35-3.8A9.59,9.59,0,0,0,65.88,118.95Z" transform="translate(15.97 17.44)"/><path id="_複合路徑_9" data-name="&lt;複合路徑&gt;" class="cls-5" d="M190.31,137.9a16.5,16.5,0,0,1-4.12,10.4,29.78,29.78,0,0,1-9,7A51.44,51.44,0,0,1,155,160.7c-7.68.1-15.57-1-22.72-4.4a30.18,30.18,0,0,1-9.64-7,16.36,16.36,0,0,1,0-22.77,30,30,0,0,1,9.64-7c7.15-3.4,15-4.5,22.72-4.4a51.41,51.41,0,0,1,22.19,5.46,29.75,29.75,0,0,1,9,7A16.49,16.49,0,0,1,190.31,137.9Zm0,0a16.43,16.43,0,0,0-4.22-10.32A28.55,28.55,0,0,0,177,121c-6.86-3.26-14.52-4.33-22-4.23A49.83,49.83,0,0,0,133.52,122a28.2,28.2,0,0,0-8.51,6.55,13.55,13.55,0,0,0,0,18.67,28,28,0,0,0,8.51,6.56c6.49,3.46,14,5,21.46,5.28,7.47.1,15.13-1,22-4.23a28.53,28.53,0,0,0,9.13-6.63A16.44,16.44,0,0,0,190.31,137.9Z" transform="translate(15.97 17.44)"/><path id="_複合路徑_10" data-name="&lt;複合路徑&gt;" class="cls-5" d="M178.79,137.9a11.13,11.13,0,0,1-2.76,7,20.27,20.27,0,0,1-6.06,4.74,36.38,36.38,0,0,1-30.51,1.05,20.68,20.68,0,0,1-6.68-4.81,11.49,11.49,0,0,1,0-16,20.53,20.53,0,0,1,6.68-4.81A36.35,36.35,0,0,1,170,126.13a20.25,20.25,0,0,1,6.06,4.74A11.13,11.13,0,0,1,178.79,137.9Zm0,0a11.07,11.07,0,0,0-2.86-6.94,19,19,0,0,0-6.17-4.41,34.75,34.75,0,0,0-29,1.06c-4.23,2.2-7.93,6-7.92,10.3s3.69,8.1,7.92,10.3a34.73,34.73,0,0,0,29,1.05,19,19,0,0,0,6.17-4.41A11.07,11.07,0,0,0,178.79,137.9Z" transform="translate(15.97 17.44)"/><path id="_複合路徑_11" data-name="&lt;複合路徑&gt;" class="cls-5" d="M168.84,137.9c0,3.1-2.51,5.51-5.09,6.93a20.74,20.74,0,0,1-8.77,2.51,20.45,20.45,0,0,1-9.29-1.46,12.45,12.45,0,0,1-4.12-2.89,7.27,7.27,0,0,1,0-10.18,12.3,12.3,0,0,1,4.12-2.9,20.36,20.36,0,0,1,9.29-1.46,20.71,20.71,0,0,1,8.77,2.52C166.33,132.39,168.82,134.8,168.84,137.9Zm0,0c-.08-3.11-2.65-5.41-5.3-6.52a19.85,19.85,0,0,0-16.59,1.06c-2.35,1.29-4.23,3.36-4.19,5.47s1.83,4.18,4.19,5.47a19.82,19.82,0,0,0,16.6,1.05C166.19,143.31,168.76,141,168.84,137.9Z" transform="translate(15.97 17.44)"/><path id="_複合路徑_12" data-name="&lt;複合路徑&gt;" class="cls-5" d="M146.54,5.38a16.5,16.5,0,0,1-4.12,10.4,29.77,29.77,0,0,1-9,7,51.44,51.44,0,0,1-22.19,5.45c-7.68.1-15.57-1-22.72-4.4a30.19,30.19,0,0,1-9.64-7A18.06,18.06,0,0,1,74.25,5.38,18,18,0,0,1,78.86-6a30,30,0,0,1,9.64-7c7.15-3.4,15-4.5,22.72-4.4A51.41,51.41,0,0,1,133.4-12a29.75,29.75,0,0,1,9,7A16.5,16.5,0,0,1,146.54,5.38Zm0,0a16.44,16.44,0,0,0-4.22-10.32,28.55,28.55,0,0,0-9.13-6.62c-6.86-3.26-14.52-4.33-22-4.23a49.83,49.83,0,0,0-21.46,5.28A28.2,28.2,0,0,0,81.24-4a14.89,14.89,0,0,0-3.73,9.34,14.86,14.86,0,0,0,3.73,9.34,28,28,0,0,0,8.51,6.56c6.49,3.46,14,5,21.46,5.28,7.47.1,15.13-1,22-4.23a28.53,28.53,0,0,0,9.13-6.63A16.44,16.44,0,0,0,146.54,5.38Z" transform="translate(15.97 17.44)"/><path id="_複合路徑_13" data-name="&lt;複合路徑&gt;" class="cls-5" d="M135,5.38a11.13,11.13,0,0,1-2.76,7,20.27,20.27,0,0,1-6.06,4.74,35,35,0,0,1-15,3.87A34.72,34.72,0,0,1,95.7,18.19,20.67,20.67,0,0,1,89,13.39a12.69,12.69,0,0,1-3.25-8,12.66,12.66,0,0,1,3.25-8,20.53,20.53,0,0,1,6.68-4.81,34.63,34.63,0,0,1,15.52-2.82,34.94,34.94,0,0,1,15,3.88,20.25,20.25,0,0,1,6.06,4.74A11.13,11.13,0,0,1,135,5.38Zm0,0a11.07,11.07,0,0,0-2.86-6.94A19.05,19.05,0,0,0,126-6,34.75,34.75,0,0,0,97-4.92C92.72-2.72,89,1,89,5.38s3.69,8.1,7.92,10.3a33.24,33.24,0,0,0,14.26,3.71A33.1,33.1,0,0,0,126,16.73a19,19,0,0,0,6.17-4.41A11.07,11.07,0,0,0,135,5.38Z" transform="translate(15.97 17.44)"/><path id="_複合路徑_14" data-name="&lt;複合路徑&gt;" class="cls-5" d="M125.07,5.38c0,3.1-2.51,5.51-5.09,6.93a20.74,20.74,0,0,1-8.77,2.51,20.45,20.45,0,0,1-9.29-1.46,12.44,12.44,0,0,1-4.12-2.89,8,8,0,0,1-2.08-5.09A8,8,0,0,1,97.8.29a12.31,12.31,0,0,1,4.12-2.9,20.36,20.36,0,0,1,9.29-1.46A20.71,20.71,0,0,1,120-1.55C122.56-.13,125.06,2.28,125.07,5.38Zm0,0c-.08-3.11-2.65-5.41-5.3-6.52a18.9,18.9,0,0,0-8.56-1.28,19.06,19.06,0,0,0-8,2.34C100.82,1.21,98.95,3.28,99,5.38s1.83,4.18,4.19,5.47a19,19,0,0,0,8,2.34,18.87,18.87,0,0,0,8.56-1.29C122.42,10.79,125,8.48,125.07,5.38Z" transform="translate(15.97 17.44)"/><path id="_複合路徑_15" data-name="&lt;複合路徑&gt;" class="cls-5" d="M153.83,188.85a21.91,21.91,0,0,1-5.44,13.82,38.83,38.83,0,0,1-12,9.14c-9,4.7-19.25,6.71-29.41,7-10.16.06-20.56-1.46-29.93-6a40.08,40.08,0,0,1-12.56-9.27,21.06,21.06,0,0,1,0-29.47A40.08,40.08,0,0,1,77,164.85c9.37-4.54,19.78-6.06,29.93-6,10.16.31,20.39,2.33,29.41,7a38.84,38.84,0,0,1,12,9.14A21.91,21.91,0,0,1,153.83,188.85Zm0,0a21.79,21.79,0,0,0-5.62-13.67,38.49,38.49,0,0,0-12.05-8.87c-9.08-4.39-19.26-5.89-29.2-5.82-9.95.31-20,2.31-28.68,6.86a37.21,37.21,0,0,0-11.51,8.75,18.64,18.64,0,0,0,0,25.52,37.22,37.22,0,0,0,11.51,8.75C87,214.92,97,216.91,107,217.22c9.94.07,20.13-1.43,29.2-5.82a38.49,38.49,0,0,0,12.05-8.87A21.79,21.79,0,0,0,153.83,188.85Z" transform="translate(15.97 17.44)"/><path id="_複合路徑_16" data-name="&lt;複合路徑&gt;" class="cls-5" d="M138.55,188.85a14.75,14.75,0,0,1-3.68,9.31,26.69,26.69,0,0,1-8.06,6.23,48,48,0,0,1-40.24,1.05,27.1,27.1,0,0,1-8.68-6.3,14.78,14.78,0,0,1,0-20.58,27,27,0,0,1,8.68-6.31c6.43-3,13.5-4,20.38-3.89a46.07,46.07,0,0,1,19.86,4.95,26.67,26.67,0,0,1,8.06,6.24A14.76,14.76,0,0,1,138.55,188.85Zm0,0a14.69,14.69,0,0,0-3.78-9.22,25.47,25.47,0,0,0-8.17-5.91c-6.13-2.89-13-3.83-19.65-3.71a44.48,44.48,0,0,0-19.12,4.77,25.12,25.12,0,0,0-7.55,5.84,12,12,0,0,0,0,16.48,25,25,0,0,0,7.55,5.84A44.38,44.38,0,0,0,107,207.71c6.66.11,13.52-.82,19.65-3.72a25.45,25.45,0,0,0,8.17-5.91A14.69,14.69,0,0,0,138.55,188.85Z" transform="translate(15.97 17.44)"/><path id="_複合路徑_17" data-name="&lt;複合路徑&gt;" class="cls-5" d="M125.34,188.85c0,4.11-3.35,7.3-6.79,9.13A28.26,28.26,0,0,1,94.83,199a16.19,16.19,0,0,1-5.28-3.76,9.19,9.19,0,0,1,0-12.83,16,16,0,0,1,5.28-3.77A26.85,26.85,0,0,1,107,176.59a27.19,27.19,0,0,1,11.6,3.14C122,181.56,125.31,184.74,125.34,188.85Zm0,0a8.54,8.54,0,0,0-2.22-5.35,14.58,14.58,0,0,0-4.78-3.37,26.63,26.63,0,0,0-22.26,1.06c-3.21,1.71-5.91,4.55-5.89,7.66s2.68,6,5.89,7.67a26.61,26.61,0,0,0,22.26,1.05,14.56,14.56,0,0,0,4.78-3.37A8.54,8.54,0,0,0,125.34,188.85Z" transform="translate(15.97 17.44)"/><path id="_複合路徑_18" data-name="&lt;複合路徑&gt;" class="cls-5" d="M85.75,41.74A21.91,21.91,0,0,1,80.3,55.57a38.84,38.84,0,0,1-12,9.14c-9,4.7-19.25,6.71-29.41,7-10.16.06-20.56-1.46-29.93-6A40.08,40.08,0,0,1-3.62,56.48a23.41,23.41,0,0,1-6-14.73A23.36,23.36,0,0,1-3.63,27,40.08,40.08,0,0,1,8.94,17.74c9.37-4.54,19.78-6.06,29.93-6,10.16.31,20.39,2.33,29.41,7a38.84,38.84,0,0,1,12,9.14A21.91,21.91,0,0,1,85.75,41.74Zm0,0a21.79,21.79,0,0,0-5.62-13.67A38.49,38.49,0,0,0,68.07,19.2c-9.08-4.39-19.26-5.89-29.2-5.82-9.95.31-20,2.31-28.68,6.86A37.22,37.22,0,0,0-1.32,29,20.32,20.32,0,0,0-6.38,41.74a20.27,20.27,0,0,0,5,12.76,37.22,37.22,0,0,0,11.51,8.75c8.73,4.56,18.74,6.55,28.68,6.86,9.94.07,20.13-1.43,29.2-5.82a38.49,38.49,0,0,0,12.05-8.87A21.79,21.79,0,0,0,85.75,41.74Z" transform="translate(15.97 17.44)"/><path id="_複合路徑_19" data-name="&lt;複合路徑&gt;" class="cls-5" d="M70.46,41.74A14.75,14.75,0,0,1,66.78,51a26.69,26.69,0,0,1-8.06,6.23,46.1,46.1,0,0,1-19.85,4.94,45.86,45.86,0,0,1-20.38-3.89A27.1,27.1,0,0,1,9.81,52,16.32,16.32,0,0,1,5.64,41.74,16.29,16.29,0,0,1,9.81,31.45a27,27,0,0,1,8.68-6.31c6.43-3,13.5-4,20.38-3.89A46.07,46.07,0,0,1,58.72,26.2a26.67,26.67,0,0,1,8.06,6.24A14.76,14.76,0,0,1,70.46,41.74Zm0,0a14.69,14.69,0,0,0-3.78-9.22,25.47,25.47,0,0,0-8.17-5.91c-6.13-2.89-13-3.83-19.65-3.71a44.48,44.48,0,0,0-19.12,4.77A25.12,25.12,0,0,0,12.2,33.5a13.15,13.15,0,0,0-3.29,8.24A13.12,13.12,0,0,0,12.19,50a25,25,0,0,0,7.55,5.84A44.38,44.38,0,0,0,38.87,60.6c6.66.11,13.52-.82,19.65-3.72A25.45,25.45,0,0,0,66.69,51,14.69,14.69,0,0,0,70.46,41.74Z" transform="translate(15.97 17.44)"/><path id="_複合路徑_20" data-name="&lt;複合路徑&gt;" class="cls-5" d="M57.25,41.74c0,4.11-3.35,7.3-6.79,9.13A27.22,27.22,0,0,1,38.87,54a27,27,0,0,1-12.12-2.08,16.19,16.19,0,0,1-5.28-3.76,10.16,10.16,0,0,1-2.61-6.42,10.14,10.14,0,0,1,2.61-6.42,16,16,0,0,1,5.28-3.77,26.85,26.85,0,0,1,12.13-2.08,27.19,27.19,0,0,1,11.6,3.14C53.91,34.45,57.23,37.63,57.25,41.74Zm0,0A8.54,8.54,0,0,0,55,36.39,14.58,14.58,0,0,0,50.26,33a25.37,25.37,0,0,0-11.39-1.9,25.56,25.56,0,0,0-10.86,3c-3.21,1.71-5.91,4.55-5.89,7.66s2.68,6,5.89,7.67a25.46,25.46,0,0,0,10.87,3,25.34,25.34,0,0,0,11.39-1.91A14.56,14.56,0,0,0,55,47.1,8.54,8.54,0,0,0,57.25,41.74Z" transform="translate(15.97 17.44)"/></g></g></g><path id="_路徑_" data-name="&lt;路徑&gt;" class="cls-6" d="M122.71,2.53a99.74,99.74,0,0,1-80.88,178,99.75,99.75,0,1,0,80.88-178Z" transform="translate(15.97 17.44)"/></g></g></svg>