<svg id="圖層_1" data-name="圖層 1" xmlns="http://www.w3.org/2000/svg" viewBox="0 0 129.49 142.9"><defs><style>.cls-1{fill:#ffbd29;}.cls-2{fill:#edb90c;}.cls-3{fill:#ffd74f;}.cls-4{fill:#fff;opacity:0.2;}</style></defs><title>medal</title><path class="cls-1" d="M103.32,138.26h-8s3.73,15.57-9.73,22.93H113C99.59,153.84,103.32,138.26,103.32,138.26Z" transform="translate(-34.58 -28.21)"/><path class="cls-2" d="M96,137.62l-5.94-10.8a1,1,0,0,0-.35-.38C66.31,111.48,55,89.78,49.63,74.2a115.31,115.31,0,0,1-6-28.87,107.38,107.38,0,0,0,29.3,7.89H73a1.06,1.06,0,0,0,1-1.14,1.31,1.31,0,0,0-.11-.54l-4.06-14a1,1,0,0,0-1-.77,54,54,0,0,1-6.05.3c-7.08,0-17.47-1-26.77-6a.83.83,0,0,0-.9.07,1.2,1.2,0,0,0-.46.92c0,.72-.59,18,6.52,40,6.56,20.28,21.19,48.41,53.66,67.24a.84.84,0,0,0,.42.12.91.91,0,0,0,.72-.39A1.31,1.31,0,0,0,96,137.62Z" transform="translate(-34.58 -28.21)"/><path class="cls-2" d="M102.64,137.62l5.94-10.8a1,1,0,0,1,.35-.38c23.4-15,34.71-36.67,40.08-52.24a115.31,115.31,0,0,0,6-28.87,107.38,107.38,0,0,1-29.3,7.89h-.11a1.06,1.06,0,0,1-1-1.14,1.31,1.31,0,0,1,.11-.54l4.06-14a1,1,0,0,1,1-.77,54,54,0,0,0,6.05.3c7.08,0,17.47-1,26.77-6a.83.83,0,0,1,.9.07,1.2,1.2,0,0,1,.46.92c0,.72.59,18-6.52,40-6.56,20.28-21.19,48.41-53.66,67.24a.84.84,0,0,1-.42.12.91.91,0,0,1-.72-.39A1.31,1.31,0,0,1,102.64,137.62Z" transform="translate(-34.58 -28.21)"/><path class="cls-3" d="M99.32,45.87H60.24C62,77.41,84.7,144.2,99.32,144.2s37.29-66.8,39.08-98.33Z" transform="translate(-34.58 -28.21)"/><rect class="cls-1" x="23.12" y="6.08" width="83.25" height="12.79"/><path class="cls-3" d="M145.82,31.25a3,3,0,0,1-3,3H55.86a3,3,0,0,1-3-3h0a3,3,0,0,1,3-3h86.92a3,3,0,0,1,3,3Z" transform="translate(-34.58 -28.21)"/><path class="cls-3" d="M119.67,162.55a1.36,1.36,0,0,1-1.36,1.36h-38A1.36,1.36,0,0,1,79,162.55h0a1.36,1.36,0,0,1,1.36-1.36h38a1.36,1.36,0,0,1,1.36,1.36Z" transform="translate(-34.58 -28.21)"/><path class="cls-1" d="M128.61,171.11v-1.48a5.71,5.71,0,0,0-5.71-5.71H75.73A5.71,5.71,0,0,0,70,169.62v1.48Z" transform="translate(-34.58 -28.21)"/><path class="cls-1" d="M65.07,74.64h68.5q.49-2,.94-4H64.13Q64.58,72.63,65.07,74.64Z" transform="translate(-34.58 -28.21)"/><path class="cls-4" d="M70,169.62v1.48H99.32V28.21H55.86a3,3,0,1,0,0,6.08h1.83v2.55a55.11,55.11,0,0,1-21.74-5.78.83.83,0,0,0-.9.07,1.2,1.2,0,0,0-.46.92c0,.72-.59,18,6.52,40,6.14,19,19.37,44.87,47.69,63.55,2.39,3.49,4.75,6.08,7,7.47,0,5.2-1.5,13.39-10.2,18.14H80.33a1.36,1.36,0,0,0,0,2.73h-4.6A5.71,5.71,0,0,0,70,169.62ZM49.63,74.2a115.3,115.3,0,0,1-6-28.87A104.47,104.47,0,0,0,60.68,51c2.14,19.37,10.26,48,19.4,68.38C63.09,105.18,54.2,87.47,49.63,74.2Z" transform="translate(-34.58 -28.21)"/></svg>