<svg id="Object" xmlns="http://www.w3.org/2000/svg" viewBox="0 0 1116.52 1116.52"><defs><style>.cls-1{fill:#f6d738;}.cls-2{fill:#f3cc30;}.cls-3{fill:#edbd31;}.cls-4{fill:#f7db5e;}.cls-5{fill:#d49a34;}</style></defs><title>money</title><circle class="cls-1" cx="558.26" cy="558.26" r="558.26"/><circle class="cls-2" cx="558.26" cy="558.26" r="473.79"/><path class="cls-3" d="M810.62,156.36a471.57,471.57,0,0,1,74.54,255.21c0,261.67-212.12,473.79-473.79,473.79a471.54,471.54,0,0,1-247.88-70C247.69,946.84,395,1034,562.74,1034c261.67,0,473.79-212.12,473.79-473.79C1036.53,389.39,946.15,239.73,810.62,156.36Z" transform="translate(-4.48 -2.48)"/><path class="cls-4" d="M171.95,604.09c0-231,187.25-418.23,418.23-418.23,135,0,255.06,64,331.53,163.28C849.49,223.76,714.13,139.36,559,139.36c-231,0-418.23,187.25-418.23,418.23a416.38,416.38,0,0,0,86.7,255A416.31,416.31,0,0,1,171.95,604.09Z" transform="translate(-4.48 -2.48)"/><path class="cls-5" d="M601.85,254.94V315.3q36.33,5.85,59.44,24t44,55.74l-60.05,33.57q-27.1-49.27-70.83-49.27-27.1,0-45,16t-17.86,40q0,21.87,14.47,36.34,14.16,14.17,57.28,33.57,37.26,16.94,61.59,31.87T681.61,566q34.8,37.58,34.8,90.85,0,52.36-31.41,92.39-31.11,39.73-83.15,53.59v63.75H548v-61.9q-60.36-9.86-92.08-41.57t-46.81-97.93L476.82,651q13.86,46.82,33.88,66.83,20.94,19.1,55.74,19.1,33.87,0,56.66-21.87,22.48-21.55,22.48-55.74,0-30.49-18.79-49-9.55-8.93-28.18-20.17T551,565.67q-59.75-26.79-78.53-49.27Q442.63,482.83,442.64,436a117.68,117.68,0,0,1,7.08-41.27A112.9,112.9,0,0,1,470.2,360.1a127.3,127.3,0,0,1,33.11-26.95A178.18,178.18,0,0,1,548,315.3V254.94Z" transform="translate(-4.48 -2.48)"/></svg>