<?xml version="1.0" encoding="utf-8"?>
<!-- Generator: Adobe Illustrator 21.1.0, SVG Export Plug-In . SVG Version: 6.00 Build 0)  -->
<svg version="1.1" id="圖層_1" xmlns="http://www.w3.org/2000/svg" xmlns:xlink="http://www.w3.org/1999/xlink" x="0px" y="0px"
	 viewBox="0 0 250 250" style="enable-background:new 0 0 250 250;" xml:space="preserve">
<style type="text/css">
	.st0{fill:#E84D4C;}
	.st1{fill:#CB2A39;}
	.st2{fill:#F6CA70;}
	.st3{opacity:0.2;fill:#040000;}
	.st4{fill:#033455;}
	.st5{fill:#43BBC8;}
	.st6{opacity:0.1;fill:#040000;}
	.st7{fill:url(#XMLID_2_);}
	.st8{opacity:0.3;fill:#FFFFFF;}
	.st9{fill:#CF2F3B;}
	.st10{opacity:0.1;fill:#EEEEEE;stroke:#FFFFFF;stroke-miterlimit:10;}
	.st11{fill:url(#XMLID_3_);}
	.st12{fill:#ECE2D3;}
	.st13{fill:#655C5A;}
	.st14{fill:#1B1817;}
	.st15{fill:#F0ADB3;}
	.st16{fill:#116DA9;}
	.st17{fill:none;stroke:#B7B6B6;stroke-linecap:round;stroke-miterlimit:10;}
	.st18{opacity:0.5;fill:#B7B6B6;}
	.st19{opacity:0.5;fill:#9A999A;}
	.st20{fill:#9A999A;}
	.st21{opacity:0.1;fill:#FFFFFF;}
	.st22{fill:none;stroke:#1B1817;stroke-miterlimit:10;}
</style>
<g id="XMLID_258_">
	<g id="XMLID_262_">
		<g id="XMLID_293_">
			<path id="XMLID_298_" class="st0" d="M109.3,180.4c0.7,0.9,1.1,1.9,1.4,3c1.6,5.7-0.5,13.7-0.5,13.7s0,0,0,0
				c0.2,0,6.6-0.2,10.7-7.5c2.1-3.8,2.2-7.9,1.8-11.1c-0.1-0.6-0.5-0.9-0.9-1c-0.3-0.1-0.7,0-1,0.1c-0.3,0.2-0.5,0.4-0.5,0.8
				l-2.3-8.4l-1.7-6.3c0,0,0,0,0,0C111.8,170.2,109.3,180.4,109.3,180.4z"/>
			<path id="XMLID_296_" class="st1" d="M110.2,197.2c0.2,0,6.6-0.2,10.7-7.5c2.1-3.8,2.2-7.9,1.8-11.1c-0.1-0.6-0.5-0.9-0.9-1
				c-0.3-0.1-0.7,0-1,0.1c-0.2,0.2-0.4,0.5-0.5,0.8c0,0,0.5,6.8-3,12.3C113.7,196.2,110.4,197.1,110.2,197.2z"/>
			<path id="XMLID_294_" class="st1" d="M109.3,180.4c0.7,0.9,1.1,1.9,1.4,3c3.5-3.9,5.8-9,7.2-13.3l-1.7-6.3c0,0,0,0,0,0
				C111.8,170.2,109.3,180.4,109.3,180.4z"/>
		</g>
		<g id="XMLID_286_">
			<path id="XMLID_291_" class="st0" d="M88.5,175.3c-1,0.5-1.9,1.2-2.7,2c-4,4.3-5.9,12.4-5.9,12.4s0,0,0,0
				c-0.1-0.1-5.8-3.3-6-11.6c-0.1-4.3,1.7-8.1,3.6-10.6c0.3-0.5,0.8-0.6,1.3-0.5c0.3,0.1,0.6,0.3,0.8,0.6c0.2,0.3,0.2,0.6,0.1,0.9
				l5.9-6.3l4.4-4.7c0,0,0,0,0,0C91,165,88.5,175.3,88.5,175.3z"/>
			<path id="XMLID_289_" class="st1" d="M79.9,189.7c-0.1-0.1-5.8-3.3-6-11.6c-0.1-4.3,1.7-8.1,3.6-10.6c0.3-0.5,0.8-0.6,1.3-0.5
				c0.3,0.1,0.6,0.3,0.8,0.6c0,0.3,0.1,0.6,0.1,0.9c0,0-3.6,5.8-3,12.3C77.2,187.2,79.8,189.6,79.9,189.7z"/>
			<path id="XMLID_287_" class="st1" d="M88.5,175.3c-1,0.5-1.9,1.2-2.7,2c-1.3-5.1-1-10.7-0.3-15.1l4.4-4.7c0,0,0,0,0,0
				C91,165,88.5,175.3,88.5,175.3z"/>
		</g>
		<path id="XMLID_284_" class="st0" d="M89.8,158.3c-0.6,2.6-1.1,4.7-1.4,6.8c-0.3,2.1-0.4,4.1-0.3,6.7c0,0.1,0,0.2,0,0.2l0.4,4.1
			l0.5,4.6l0.9,8.7l11.5,2.8l0.5-0.8l4.3-6.4l2.5-3.8c3.2-4.8,5.6-10.2,7.1-15.9c0-0.2,0.1-0.3,0.1-0.5c1.9-7.8,2.1-14.6,1.5-20.1
			c0-0.4-0.1-0.8-0.1-1.2c-0.1-0.9-0.3-1.8-0.4-2.6c-0.1-0.4-0.1-0.7-0.2-1.1c0-0.2-0.1-0.4-0.1-0.5c-0.5-2.3-1.2-4.2-1.8-5.9
			c-0.8-1.9-1.5-3.4-2.1-4.5c-0.7-1.2-2-1.5-3.1-0.8c-1.9,1.2-5,3.6-8.3,7.4c-0.1,0.1-0.3,0.3-0.4,0.5c-0.2,0.3-0.5,0.6-0.7,0.8
			c-0.5,0.7-1.1,1.4-1.6,2.1c-0.2,0.3-0.4,0.6-0.7,0.9C94.7,144.4,91.8,150.4,89.8,158.3z"/>
		<path id="XMLID_283_" class="st2" d="M89.5,184.8l0.5,4.5c0.5,0.3,0.9,0.5,1.4,0.7c0.4,0.2,0.8,0.4,1.2,0.5c1.4,0.6,2.9,1,4.3,1.3
			c1.5,0.3,3,0.4,4.6,0.3l2.5-3.8c-2,0-3.9-0.1-5.8-0.5c-2.2-0.4-4.4-1.1-6.5-2c-0.3-0.2-0.7-0.3-1-0.5
			C90.3,185.2,89.9,185,89.5,184.8z"/>
		<path id="XMLID_282_" class="st3" d="M96.9,191.9c1.5,0.3,3,0.4,4.6,0.3l2.5-3.8l2.3-3.5l2.5-3.8c3.2-4.8,5.6-10.2,7.1-15.9
			c0-0.2,0.1-0.3,0.1-0.5c2.6-10.6,2-19.2,0.5-25.6c-0.5-2.3-1.2-4.2-1.8-5.9c-1.5,0.6-2,0.1-3.2,3.1c0,0,5.2,17.5-0.8,31.4
			c-5.5,12.7-8.8,8.7-8.8,8.7l-3.8,11.4L96.9,191.9z"/>
		<g id="XMLID_277_">
			<path id="XMLID_280_" class="st0" d="M93.7,196.2c0,0.3,0.3,0.5,0.5,0.6c0.3,0.1,0.6,0,0.7-0.3c6.8-9.7,8.4-28,8.8-35.5
				c0-0.4-0.2-0.6-0.5-0.7c-0.3-0.1-0.6,0-0.8,0.4C99.3,167.5,92.2,184.5,93.7,196.2z"/>
			<path id="XMLID_278_" class="st1" d="M103.2,160.3l-9,36.5c0.3,0.1,0.6,0,0.7-0.3c6.8-9.7,8.4-28,8.8-35.5
				C103.8,160.6,103.5,160.4,103.2,160.3z"/>
		</g>
		<g id="XMLID_269_">
			<g id="XMLID_271_">
				
					<ellipse id="XMLID_275_" transform="matrix(0.239 -0.971 0.971 0.239 -65.9655 217.2245)" class="st4" cx="105.6" cy="150.7" rx="4.1" ry="4.1"/>
				<path id="XMLID_274_" class="st5" d="M102.5,149.9C102.5,149.9,102.5,150,102.5,149.9c-0.4,1.7,0.6,3.4,2.3,3.9c0,0,0,0,0,0
					c0.3,0.1,0.6,0.1,0.9,0.1c0.5,0,1-0.2,1.5-0.4c0.4-0.2,0.7-0.5,1-0.9c0.3-0.3,0.4-0.7,0.6-1.2c0.4-1.7-0.6-3.5-2.3-3.9
					c-0.4-0.1-0.9-0.1-1.3,0c-0.4,0.1-0.8,0.2-1.2,0.5c-0.4,0.3-0.8,0.7-1,1.1C102.7,149.4,102.6,149.6,102.5,149.9z"/>
				<path id="XMLID_272_" class="st6" d="M102.8,149.1c0.3-0.5,0.6-0.8,1-1.1c0.4-0.2,0.8-0.4,1.2-0.5c0.4-0.1,0.9-0.1,1.3,0
					c1.7,0.4,2.8,2.2,2.3,3.9c0,0.1,0,0.2-0.1,0.3c0.3-1.6-0.8-3.2-2.4-3.6c-0.4-0.1-0.9-0.1-1.3,0c-0.4,0.1-0.8,0.2-1.2,0.5
					c-0.4,0.3-0.8,0.7-1,1.1c-0.1,0.2-0.2,0.4-0.3,0.6c0-0.1,0-0.1,0-0.2c0,0,0,0,0,0C102.6,149.6,102.7,149.4,102.8,149.1z"/>
			</g>
			
				<linearGradient id="XMLID_2_" gradientUnits="userSpaceOnUse" x1="-1135.1089" y1="296.5695" x2="-1137.475" y2="307.8478" gradientTransform="matrix(-0.9898 0.1425 0.1425 0.9898 -1063.2848 14.113)">
				<stop  offset="0" style="stop-color:#FFFFFF"/>
				<stop  offset="1" style="stop-color:#FFFFFF;stop-opacity:0"/>
			</linearGradient>
			<path id="XMLID_270_" class="st7" d="M105.1,148.4c0,0-1.6,1-1.5,2.5c0,1.7,1.3,2.3,2.8,2.2c0,0-1.3,0.7-2.7-0.4
				C102.2,151.5,102.9,149,105.1,148.4z"/>
		</g>
		<g id="XMLID_263_">
			<path id="XMLID_267_" class="st0" d="M101.2,135.4c4.9,2.1,10,3.4,15.3,3.8c-1.1-4.9-2.8-8.4-3.9-10.4c-0.4-0.7-1.1-1.1-1.8-1.2
				c-0.5,0-0.9,0.1-1.4,0.4C107.6,129.2,104.5,131.6,101.2,135.4z"/>
			<path id="XMLID_266_" class="st8" d="M107.8,130.3c0.3-0.3,0.6-0.5,1.1-0.9c0.8-0.7,1.3-0.8,1.7-0.2c0.7,1.1-3,5.2-5.5,5.1
				C103.1,134.2,106.3,131.5,107.8,130.3z"/>
			<path id="XMLID_264_" class="st1" d="M101.2,135.4c4.9,2.1,10,3.4,15.3,3.8c-1.1-4.9-2.8-8.4-3.9-10.4c-0.4-0.7-1.1-1.1-1.8-1.2
				c0.3,0.4,2.1,3.2,1.4,5.8C111.7,136.2,107.4,137.7,101.2,135.4z"/>
		</g>
	</g>
	<g id="XMLID_259_">
		<path id="XMLID_261_" class="st9" d="M106.6,207.2c0,0,2.7,8.3-6.5,25.1l-2.2-3.9c0,0-7.9,15.3-12.2,19.3c0,0-2.1-5.4-0.6-17.9
			l-4.3,4.7c0,0-1.4-7.2,1.8-15.5c0,0-4.3,2.9-4.6,3.9s-2.3-11,0.6-18.3c0,0,4.1-9.1,10.7-8.6l5.8,8.9l8.2-5.6
			C103.4,199.2,105.3,202.3,106.6,207.2z"/>
		<path id="XMLID_260_" class="st2" d="M89,195.4c0,0,4.3,7.2,6,7.8s8.4-4,8.4-4s3.9,7.9,3,13.9c-1.1,6.8-6,13-6,13s-2-5-2.7-8.9
			c0,0-2.6,3-7.5,11.1c0,0-5.2-7.5-2.7-16.5l-8.1,6.5C79.2,218.3,73.4,198.9,89,195.4z"/>
	</g>
</g>
<path id="XMLID_257_" class="st10" d="M42.2,77c0,40.5,36.6,72,88.2,70.5c47.6-1.4,79.1-29.8,79.1-70.3S173.8,3.7,126.2,3.7
	S42.2,36.5,42.2,77z"/>
<linearGradient id="XMLID_3_" gradientUnits="userSpaceOnUse" x1="-1871.6666" y1="52.6286" x2="-1871.6666" y2="52.6286" gradientTransform="matrix(-1 0 0 1 -1712 0)">
	<stop  offset="0" style="stop-color:#FFFFFF"/>
	<stop  offset="1" style="stop-color:#000000"/>
</linearGradient>
<path id="XMLID_256_" class="st11" d="M159.7,52.6"/>
<path id="XMLID_255_" class="st12" d="M178,62.3c-0.1-17.7,6.3-30.1,4.9-31.2c-2.4-1.8-34.8,8.5-41.9,18.5c-0.5,0.7-0.6,1.6-1.5,1.6
	l-5.2,0c-1.1,0-1.8-1.1-1.3-2.1c0.7-1.5,1.6-3.4,2.1-3.9c0.6-0.6-2.7-0.6-4,1.2c-3.8,5.2-2.1-6.6-3.1-6.2c-1.6,0.8-5,6.8-7.4,11
	c-0.3,0.5-0.9,0.6-1.4,0.2c-1.7-1.5-4.1-5-14-1.6c0,0-1-0.2,2.9,1.3c3.9,1.5,4.4,2.6,4.2,3.9c-0.2,1.3-3.9,1.6-7.5,2.4
	c-1.5,0.3-3.4-0.4-3.7-0.4c-4.2-0.7-35-6.3-48-3.2c-0.6,0.2-1.1,0.7-1.1,1.3c-0.1,1.7,0,5.3,2.1,11c2.9,7.8,12.6,25.1,17.6,32.5
	c0.2,0.3,0.2,0.7,0.2,1.1c0,0-0.9,19.1,9.8,29.1c17.5,16.4,28.3,16.3,28.3,16.3H145c0.1,0,0.2,0,0.3,0c2.3-0.5,22-3.2,32.4-22.2
	c0.3-0.6,0.6-1.2,0.8-1.9c1.3-4.6,9.5-25.8,0.4-46.4C177.3,70.9,178,66.8,178,62.3z"/>
<path id="XMLID_254_" class="st13" d="M93.9,101.3c-3,21.8,3.9,28.1,24.4,33.2c22.8,5.7,43.1-5.9,49.1-23
	c6.3-17.8-10.5-42.9-34-43.9C110.5,66.8,97,79.5,93.9,101.3z"/>
<ellipse id="XMLID_251_" transform="matrix(0.1379 -0.9904 0.9904 0.1379 -11.6143 194.9868)" class="st14" cx="106.2" cy="104.2" rx="6" ry="6"/>
<ellipse id="XMLID_250_" transform="matrix(0.1379 -0.9904 0.9904 0.1379 32.5055 245.6749)" class="st14" cx="157.4" cy="104.2" rx="6" ry="6"/>
<g>
	<path id="XMLID_249_" class="st14" d="M132.3,111.5c0,0-6-0.3-6.6,1.2s-0.2,4,5.8,5.3C137.4,119.3,140.4,109.9,132.3,111.5z"/>
	<g id="XMLID_247_">
		
			<rect id="XMLID_248_" x="129.4" y="119.5" transform="matrix(4.618737e-02 -0.9989 0.9989 4.618737e-02 5.9214 246.2178)" class="st14" width="5" height="1"/>
	</g>
</g>
<ellipse id="XMLID_246_" transform="matrix(0.9991 -4.270886e-02 4.270886e-02 0.9991 -4.8478 4.3305)" class="st15" cx="98.9" cy="115.6" rx="9.1" ry="4.4"/>
<ellipse id="XMLID_245_" transform="matrix(0.9991 -4.270886e-02 4.270886e-02 0.9991 -4.7882 7.1238)" class="st15" cx="164.3" cy="115.6" rx="9.1" ry="4.4"/>
<path id="XMLID_244_" class="st12" d="M144.5,151.4c0,0,23.1-8.4,28.4-4.4c0,0,3.6,4.2,0.4,7.5c-12,8.5-12.9,4.1-25.7,10.8
	L144.5,151.4z"/>
<path id="XMLID_243_" class="st12" d="M110.3,150c0,0,3.5,9.3,1.9,13.4c-1.7,4.1-16.3,14.6-18.6,14.1c-5.1-1.2-3.3-7-0.4-11.2
	C97.2,160.4,108.9,150.5,110.3,150z"/>
<path id="XMLID_242_" class="st16" d="M145.2,144.6c0,0,1.5,2.7,0,6.4l-35.5,0.4c0,0-0.9-6.8,0-6.8H145.2z"/>
<path id="XMLID_241_" class="st12" d="M106,176.1c0.1,0,0.1,0,0.2,0.1c1.1-9,3.5-25.5,3.5-25.5l35.5-0.2c0,0,4.1,17.4,3.6,28
	c0,0,0,0.3,0,0.3c0,0.4,0,0.3-0.1,0.7c0,0.1,0,0.2,0,0.2c-0.1,1-0.3,1.6-0.4,2c-2.2,10.5-12.4,10.4-14.4,11.2
	c-1.8,0.7-13.5,1.6-19.8-1c-0.8-0.3-1.5-0.7-2.1-1.1c-0.5-0.3-0.7-0.4-1-0.6c-0.4-0.2-0.7-0.5-1.1-0.8
	C106.4,186.3,105.2,183.8,106,176.1z"/>
<g id="XMLID_238_">
	<line id="XMLID_240_" class="st17" x1="130.5" y1="175.7" x2="133.5" y2="180.2"/>
	<line id="XMLID_239_" class="st17" x1="133.7" y1="176" x2="130.9" y2="179.9"/>
</g>
<path id="XMLID_237_" class="st18" d="M113.9,157.3c0,0-2,3.7-6.9,12.3C107,169.6,113.2,162.1,113.9,157.3z"/>
<g id="XMLID_234_">
	<path id="XMLID_236_" class="st12" d="M145.8,186.8l6.4,9.4c0,0,3.4-0.6,3.7,1.8c0.3,2.4-2.1,3.7-4.6,5.7c-2.5,2-5.6-1.8-5.6-1.8
		l-7.1-10.3L145.8,186.8z"/>
	<path id="XMLID_235_" class="st19" d="M153.9,196.3c0,0,1.2,1,0.9,2.3c-0.3,1.4-1.9,3.1-4.1,3.7s-2.2,0.4-2.8,0
		c-0.6-0.4-8.4-10.9-8.4-10.9l-0.8,0.5l4.2,5.7l2.9,4.3c0,0,2.7,3.1,5.2,2c0,0,3.1-2,4.1-3.4C156.3,199.2,156.3,196.4,153.9,196.3z"
		/>
</g>
<g id="XMLID_231_">
	<path id="XMLID_233_" class="st12" d="M121,192.1l0.2,10.7c0,0,3.1,1.4,2,3.5c-1.1,2.2-3.7,1.9-6.9,2.1c-3.1,0.2-3.5-4.6-3.5-4.6
		v-12.5L121,192.1z"/>
	<path id="XMLID_232_" class="st19" d="M122.5,203.7c0,0,0.4,1.1,0.3,1.7c-0.1,0.6-1.1,2.1-2.7,2.1s-3.5,0.8-5-0.6
		c-1.5-1.4-1.2-4-1.2-4.5c0-0.5,0-11.7,0-11.7h-1.1l0,13.4c0,0,0.6,4.5,3.5,4.3c0,0,5.4,0.3,6.5-1.5
		C123.7,205.5,123.6,204.8,122.5,203.7z"/>
</g>
<path id="XMLID_230_" class="st19" d="M147.3,184.9c0,0-1.5,4-6.6,6.1c-3.4,1.5-9.1,2.5-15.5,2.5c-6.1,0.1-10.3-1-13.4-3
	c-2.6-1.7-4-3.1-5.2-5.5c0,0,2.8,3.5,8.8,5.6c3.1,1.1,7.6,1.6,12.1,1.7c6.9,0.1,11.7-1.3,14.7-3.1
	C144.6,187.8,145.5,186.8,147.3,184.9z"/>
<path id="XMLID_229_" class="st20" d="M131.9,45.6c0,0-0.5,0.2-1.4,1.5c0,0-0.8,0.6-1,0.5c-0.8-0.5-0.7-1.6-0.9-2.6l0.1,2
	c0,0,0.1,0.8,0.5,1.3C129.5,48.6,131.3,46.5,131.9,45.6z"/>
<path id="XMLID_228_" class="st20" d="M122.9,47.2l-2.3,3.9c0,0-0.4,0.5-0.7,0.5s-0.9-0.5-1.2-0.7c-0.2-0.2-1.3-1.6-3.4-2.2
	c0,0,3.1,2.2,3.3,2.6s1.3,2.1,2.3,0.6"/>
<path id="XMLID_227_" class="st20" d="M109.8,51.8c0,0,3.1,1.5,2.6,3.3c0,0,0.4,1.3-6.3,2.1c0,0,2.7,0.3,5.2-0.7s1.9-1.8,1.8-2.3
	C113,53.9,111.6,52.3,109.8,51.8z"/>
<path id="XMLID_171_" class="st18" d="M148.1,166.4c0,0-0.8-7.4-3.3-9.9c-2.5-2.5-2.9-2.1-2.9-2.1s3.3,2.8,4.3,6
	S148.1,166.4,148.1,166.4z"/>
<path id="XMLID_170_" class="st21" d="M67.5,47.9c-8.9,20.8,50,62.8,77.8,62.8c61,0,58.5-24.6,51-50.1c-9.7-33-34.9-44.3-55.7-46.7
	C102.5,9.5,82.6,12.6,67.5,47.9z"/>
<path id="XMLID_375_" class="st13" d="M92.6,63.8c0,0-29-2-31-2s2,7,3,9s10,18,10,18s3.3-11.1,9-17C88.1,67.1,92.6,63.8,92.6,63.8z"
	/>
<path class="st13" d="M145,54.5c0,0,23.9-17,28.4-16c0,0,0.1,0.4,0,1.4c-0.1,1,0,27.8,0,27.8S163.4,55.8,145,54.5z"/>
<path class="st22" d="M119.1,120c0,0,3.2,8,12.2,2.5c0,0,6.6,6,10.7-2.5"/>
</svg>
